{
.appVersion = "3134";
.formatVersion = 3;
DisplayStrings = (
"Aa Bb Cc Dd Ee Ff Gg Hh Ii Jj Kk Ll Mm Nn Oo Pp Qq Rr Ss Tt Uu Vv Ww Xx Yy Zz
1234567890
!@&?.

For one thing, time is the very thing that we are least willing to allow.

The shining
Positive &
Negative
Proscacinate"
);
customParameters = (
{
name = vendorID;
value = AMMP;
},
{
name = panose;
value = (
0,
0,
6,
0,
0,
0,
0,
0,
0,
0
);
},
{
name = unicodeRanges;
value = (
0,
1,
2,
29
);
},
{
name = codePageRanges;
value = (
"1252",
"1250",
"1254",
"1257",
"1258",
"bit 29"
);
},
{
name = blueScale;
value = 0.037;
},
{
name = glyphOrder;
value = (
.notdef,
space,
A,
Aacute,
Abreve,
uni1EAE,
uni1EB6,
uni1EB0,
uni1EB2,
uni1EB4,
uni01CD,
Acircumflex,
uni1EA4,
uni1EAC,
uni1EA6,
uni1EA8,
uni1EAA,
Adieresis,
uni1EA0,
Agrave,
uni1EA2,
Amacron,
Aogonek,
Aring,
Atilde,
AE,
B,
C,
Cacute,
Ccaron,
Ccedilla,
Cdotaccent,
D,
Eth,
Dcaron,
Dcroat,
E,
Eacute,
Ecaron,
Ecircumflex,
uni1EBE,
uni1EC6,
uni1EC0,
uni1EC2,
uni1EC4,
Edieresis,
Edotaccent,
uni1EB8,
Egrave,
uni1EBA,
Emacron,
Eogonek,
uni1EBC,
F,
G,
Gbreve,
uni0122,
Gdotaccent,
H,
Hbar,
I,
Iacute,
uni01CF,
Icircumflex,
Idieresis,
Idotaccent,
uni1ECA,
Igrave,
uni1EC8,
Imacron,
Iogonek,
Itilde,
J,
K,
uni0136,
L,
Lacute,
Lcaron,
uni013B,
Lslash,
M,
N,
Nacute,
Ncaron,
uni0145,
Eng,
Ntilde,
O,
Oacute,
uni01D1,
Ocircumflex,
uni1ED0,
uni1ED8,
uni1ED2,
uni1ED4,
uni1ED6,
Odieresis,
uni1ECC,
Ograve,
uni1ECE,
Ohorn,
uni1EDA,
uni1EE2,
uni1EDC,
uni1EDE,
uni1EE0,
Ohungarumlaut,
Omacron,
Oslash,
Otilde,
OE,
P,
Thorn,
Q,
R,
Racute,
Rcaron,
uni0156,
S,
Sacute,
Scaron,
Scedilla,
uni0218,
uni1E9E,
T,
Tbar,
Tcaron,
uni0162,
uni021A,
U,
Uacute,
uni01D3,
Ucircumflex,
Udieresis,
uni01D7,
uni01D9,
uni01DB,
uni01D5,
uni1EE4,
Ugrave,
uni1EE6,
Uhorn,
uni1EE8,
uni1EF0,
uni1EEA,
uni1EEC,
uni1EEE,
Uhungarumlaut,
Umacron,
Uogonek,
Uring,
Utilde,
V,
W,
Wacute,
Wcircumflex,
Wdieresis,
Wgrave,
X,
Y,
Yacute,
Ycircumflex,
Ydieresis,
uni1EF4,
Ygrave,
uni1EF6,
uni1EF8,
Z,
Zacute,
Zcaron,
Zdotaccent,

glyphs = (
{
glyphname = .notdef;
layers = (
{
hints = (
{
horizontal = 1;
place = (0, 24);
place = (0, 24);
type = Stem;
},
{
horizontal = 1;
place = (451, 23);
place = (451, 23);
type = Stem;
},
{
place = (115, 23);
place = (115, 23);
type = Stem;
},
{
place = (502, 23);
place = (502, 23);
type = Stem;
}
);
layerId = m01;
shapes = (
{
closed = 1;
nodes = (
(115,0,l),
(525,0,l),
(525,474,l),
(115,474,l)
);
},
{
closed = 1;
nodes = (
(138,24,l),
(138,451,l),
(502,451,l),
(502,24,l)
);
}
);
width = 640;
}
);
note = ".notdef";
},
{
glyphname = A;
kernLeft = A;
kernRight = A;
lastChange = "2022-12-26 06:04:45 +0000";
layers = (
{
hints = (
{
horizontal = 1;
place = (0, 21);
target = up;
type = BottomGhost;
},
{
horizontal = 1;
place = (173, 79);
place = (173, 79);
type = Stem;
},
{
horizontal = 1;
place = (697, -20);
target = down;
type = TopGhost;
},
{
place = (25, 604);
place = (25, 604);
type = Stem;
}
);
layerId = m01;
shapes = (
{
closed = 1;
nodes = (
(383,643,ls),
(369,679,o),
(343,697,o),
(304,697,cs),
(292,697,l),
(25,0,l),
(123,0,l),
(185,173,l),
(469,173,l),
(531,0,l),
(629,0,l)
);
},
{
closed = 1;
nodes = (
(214,252,l),
(327,568,l),
(440,252,l)
);
}
);
width = 654;
}
);
note = A;
unicode = 65;
},
{
glyphname = Aacute;
kernLeft = A;
kernRight = A;
layers = (
{
hints = (
{
horizontal = 1;
place = (0, 21);
target = up;
type = BottomGhost;
},
{
horizontal = 1;
place = (173, 79);
place = (173, 79);
type = Stem;
},
{
horizontal = 1;
place = (697, -20);
target = down;
type = TopGhost;
},
{
horizontal = 1;
place = (760, 141);
place = (760, 141);
type = Stem;
},
{
place = (25, 604);
place = (25, 604);
type = Stem;
}
);
layerId = m01;
shapes = (
{
closed = 1;
nodes = (
(497,901,l),
(405,901,l),
(296,760,l),
(360,760,l)
);
},
{
closed = 1;
nodes = (
(531,0,l),
(629,0,l),
(362,697,l),
(292,697,l),
(25,0,l),
(123,0,l),
(185,173,l),
(469,173,l)
);
},
{
closed = 1;
nodes = (
(214,252,l),
(327,568,l),
(440,252,l)
);
}
);
width = 654;
}
);
note = Aacute;
unicode = 193;
},
{
glyphname = Abreve;
kernLeft = A;
kernRight = A;
layers = (
{
hints = (
{
horizontal = 1;
place = (0, 21);
target = up;
type = BottomGhost;
},
{
horizontal = 1;
place = (173, 79);
place = (173, 79);
type = Stem;
},
{
horizontal = 1;
place = (697, -20);
target = down;
type = TopGhost;
},
{
horizontal = 1;
place = (769, 52);
place = (769, 52);
type = Stem;
},
{
place = (174, 62);
place = (174, 62);
type = Stem;
},
{
place = (418, 62);
place = (418, 62);
type = Stem;
}
);
layerId = m01;
shapes = (
{
closed = 1;
nodes = (
(426,769,o),
(480,813,o),
(480,901,c),
(418,901,l),
(418,849,o),
(383,821,o),
(327,821,cs),
(273,821,o),
(236,847,o),
(236,901,c),
(174,901,l),
(174,816,o),
(224,769,o),
(327,769,cs)
);
},
{
closed = 1;
nodes = (
(531,0,l),
(629,0,l),
(362,697,l),
(292,697,l),
(25,0,l),
(123,0,l),
(185,173,l),
(469,173,l)
);
},
{
closed = 1;
nodes = (
(214,252,l),
(327,568,l),
(440,252,l)
);
}
);
width = 654;
}
);
note = Abreve;
unicode = 258;
},
{
glyphname = uni1EAE;
kernLeft = A;
kernRight = A;
layers = (
{
hints = (
{
horizontal = 1;
place = (0, 21);
target = up;
type = BottomGhost;
},
{
horizontal = 1;
place = (173, 79);
place = (173, 79);
type = Stem;
},
{
horizontal = 1;
place = (697, -20);
target = down;
type = TopGhost;
},
{
horizontal = 1;
place = (769, 52);
place = (769, 52);
type = Stem;
},
{
horizontal = 1;
place = (964, 141);
place = (964, 141);
type = Stem;
},
{
place = (174, 62);
place = (174, 62);
type = Stem;
},
{
place = (418, 62);
place = (418, 62);
type = Stem;
}
);
layerId = m01;
shapes = (
{
closed = 1;
nodes = (
(497,1105,l),
(405,1105,l),
(296,964,l),
(360,964,l)
);
},
{
closed = 1;
nodes = (
(426,769,o),
(480,813,o),
(480,901,c),
(418,901,l),
(418,849,o),
(383,821,o),
(327,821,cs),
(273,821,o),
(236,847,o),
(236,901,c),
(174,901,l),
(174,816,o),
(224,769,o),
(327,769,cs)
);
},
{
closed = 1;
nodes = (
(531,0,l),
(629,0,l),
(362,697,l),
(292,697,l),
(25,0,l),
(123,0,l),
(185,173,l),
(469,173,l)
);
},
{
closed = 1;
nodes = (
(214,252,l),
(327,568,l),
(440,252,l)
);
}
);
width = 654;
}
);
note = uni1EAE;
unicode = 7854;
},
{
glyphname = uni1EB6;
kernLeft = A;
kernRight = A;
layers = (
{
hints = (
{
horizontal = 1;
place = (-173, 104);
place = (-173, 104);
type = Stem;
},
{
horizontal = 1;
place = (0, 21);
target = up;
type = BottomGhost;
},
{
horizontal = 1;
place = (173, 79);
place = (173, 79);
type = Stem;
},
{
horizontal = 1;
place = (697, -20);
target = down;
type = TopGhost;
},
{
horizontal = 1;
place = (769, 52);
place = (769, 52);
type = Stem;
},
{
place = (174, 62);
place = (174, 62);
type = Stem;
},
{
place = (279, 96);
place = (279, 96);
type = Stem;
},
{
place = (418, 62);
place = (418, 62);
type = Stem;
}
);
layerId = m01;
shapes = (
{
closed = 1;
nodes = (
(426,769,o),
(480,813,o),
(480,901,c),
(418,901,l),
(418,849,o),
(383,821,o),
(327,821,cs),
(273,821,o),
(236,847,o),
(236,901,c),
(174,901,l),
(174,816,o),
(224,769,o),
(327,769,cs)
);
},
{
closed = 1;
nodes = (
(629,0,l),
(362,697,l),
(292,697,l),
(25,0,l),
(123,0,l),
(185,173,l),
(469,173,l),
(531,0,l)
);
},
{
closed = 1;
nodes = (
(214,252,l),
(327,568,l),
(440,252,l)
);
},
{
closed = 1;
nodes = (
(279,-173,l),
(375,-173,l),
(375,-69,l),
(279,-69,l)
);
}
);
width = 654;
}
);
note = uni1EB6;
unicode = 7862;
},
{
glyphname = uni1EB0;
kernLeft = A;
kernRight = A;
layers = (
{
hints = (
{
horizontal = 1;
place = (0, 21);
target = up;
type = BottomGhost;
},
{
horizontal = 1;
place = (173, 79);
place = (173, 79);
type = Stem;
},
{
horizontal = 1;
place = (697, -20);
target = down;
type = TopGhost;
},
{
horizontal = 1;
place = (769, 52);
place = (769, 52);
type = Stem;
},
{
horizontal = 1;
place = (964, 141);
place = (964, 141);
type = Stem;
},
{
place = (174, 62);
place = (174, 62);
type = Stem;
},
{
place = (418, 62);
place = (418, 62);
type = Stem;
}
);
layerId = m01;
shapes = (
{
closed = 1;
nodes = (
(360,964,l),
(256,1105,l),
(164,1105,l),
(294,964,l)
);
},
{
closed = 1;
nodes = (
(174,901,l),
(174,816,o),
(224,769,o),
(327,769,cs),
(426,769,o),
(480,813,o),
(480,901,c),
(418,901,l),
(418,849,o),
(383,821,o),
(327,821,cs),
(273,821,o),
(236,847,o),
(236,901,c)
);
},
{
closed = 1;
nodes = (
(531,0,l),
(629,0,l),
(362,697,l),
(292,697,l),
(25,0,l),
(123,0,l),
(185,173,l),
(469,173,l)
);
},
{
closed = 1;
nodes = (
(214,252,l),
(327,568,l),
(440,252,l)
);
}
);
width = 654;
}
);
note = uni1EB0;
unicode = 7856;
},
{
glyphname = uni1EB2;
kernLeft = A;
kernRight = A;
layers = (
{
hints = (
{
horizontal = 1;
place = (0, 21);
target = up;
type = BottomGhost;
},
{
horizontal = 1;
place = (173, 79);
place = (173, 79);
type = Stem;
},
{
horizontal = 1;
place = (697, -20);
target = down;
type = TopGhost;
},
{
horizontal = 1;
place = (769, 52);
place = (769, 52);
type = Stem;
},
{
horizontal = 1;
place = (1077, 49);
place = (1077, 49);
type = Stem;
},
{
place = (174, 62);
place = (174, 62);
type = Stem;
},
{
place = (381, 57);
place = (381, 57);
type = Stem;
},
{
place = (418, 62);
place = (418, 62);
type = Stem;
}
);
layerId = m01;
shapes = (
{
closed = 1;
nodes = (
(381,994,o),
(343,988,o),
(307,982,c),
(320,940,l),
(370,949,o),
(438,961,o),
(438,1028,cs),
(438,1092,o),
(378,1126,o),
(295,1126,cs),
(280,1126,l),
(280,1077,l),
(295,1077,ls),
(338,1077,o),
(381,1067,o),
(381,1029,cs)
);
},
{
closed = 1;
nodes = (
(426,769,o),
(480,813,o),
(480,901,c),
(418,901,l),
(418,849,o),
(383,821,o),
(327,821,cs),
(273,821,o),
(236,847,o),
(236,901,c),
(174,901,l),
(174,816,o),
(224,769,o),
(327,769,cs)
);
},
{
closed = 1;
nodes = (
(531,0,l),
(629,0,l),
(362,697,l),
(292,697,l),
(25,0,l),
(123,0,l),
(185,173,l),
(469,173,l)
);
},
{
closed = 1;
nodes = (
(214,252,l),
(327,568,l),
(440,252,l)
);
}
);
width = 654;
}
);
note = uni1EB2;
unicode = 7858;
},
{
glyphname = uni1EB4;
kernLeft = A;
kernRight = A;
layers = (
{
hints = (
{
horizontal = 1;
place = (0, 21);
target = up;
type = BottomGhost;
},
{
horizontal = 1;
place = (173, 79);
place = (173, 79);
type = Stem;
},
{
horizontal = 1;
place = (697, -20);
target = down;
type = TopGhost;
},
{
horizontal = 1;
place = (769, 52);
place = (769, 52);
type = Stem;
},
{
horizontal = 1;
place = (1055, 54);
place = (1055, 54);
type = Stem;
},
{
place = (166, 50);
place = (166, 50);
type = Stem;
},
{
place = (436, 52);
place = (436, 52);
type = Stem;
},
{
horizontal = 1;
place = (973, 55);
place = (973, 55);
type = Stem;
},
{
place = (174, 62);
place = (174, 62);
type = Stem;
},
{
place = (418, 62);
place = (418, 62);
type = Stem;
}
);
layerId = m01;
shapes = (
{
closed = 1;
nodes = (
(308,1055,o),
(313,973,o),
(395,973,cs),
(451,973,o),
(488,1022,o),
(488,1105,c),
(436,1105,l),
(436,1057,o),
(418,1028,o),
(395,1028,cs),
(347,1028,o),
(336,1109,o),
(263,1109,cs),
(204,1109,o),
(166,1062,o),
(166,980,c),
(216,980,l),
(216,1027,o),
(233,1055,o),
(260,1055,cs)
);
},
{
closed = 1;
nodes = (
(273,821,o),
(236,847,o),
(236,901,c),
(174,901,l),
(174,816,o),
(224,769,o),
(327,769,cs),
(426,769,o),
(480,813,o),
(480,901,c),
(418,901,l),
(418,849,o),
(383,821,o),
(327,821,cs)
);
},
{
closed = 1;
nodes = (
(531,0,l),
(629,0,l),
(362,697,l),
(292,697,l),
(25,0,l),
(123,0,l),
(185,173,l),
(469,173,l)
);
},
{
closed = 1;
nodes = (
(214,252,l),
(327,568,l),
(440,252,l)
);
}
);
width = 654;
}
);
note = uni1EB4;
unicode = 7860;
},
{
glyphname = uni01CD;
kernLeft = A;
kernRight = A;
layers = (
{
hints = (
{
horizontal = 1;
place = (0, 21);
target = up;
type = BottomGhost;
},
{
horizontal = 1;
place = (173, 79);
place = (173, 79);
type = Stem;
},
{
horizontal = 1;
place = (697, -20);
target = down;
type = TopGhost;
},
{
place = (25, 604);
place = (25, 604);
type = Stem;
}
);
layerId = m01;
shapes = (
{
closed = 1;
nodes = (
(478,901,l),
(409,901,l),
(327,815,l),
(245,901,l),
(176,901,l),
(327,744,l)
);
},
{
closed = 1;
nodes = (
(531,0,l),
(629,0,l),
(362,697,l),
(292,697,l),
(25,0,l),
(123,0,l),
(185,173,l),
(469,173,l)
);
},
{
closed = 1;
nodes = (
(214,252,l),
(327,568,l),
(440,252,l)
);
}
);
width = 654;
}
);
note = uni01CD;
unicode = 461;
},
{
glyphname = Acircumflex;
kernLeft = A;
kernRight = A;
layers = (
{
hints = (
{
horizontal = 1;
place = (0, 21);
target = up;
type = BottomGhost;
},
{
horizontal = 1;
place = (173, 79);
place = (173, 79);
type = Stem;
},
{
horizontal = 1;
place = (697, -20);
target = down;
type = TopGhost;
},
{
place = (25, 604);
place = (25, 604);
type = Stem;
}
);
layerId = m01;
shapes = (
{
closed = 1;
nodes = (
(327,839,l),
(409,750,l),
(478,750,l),
(327,914,l),
(176,750,l),
(245,750,l)
);
},
{
closed = 1;
nodes = (
(531,0,l),
(629,0,l),
(362,697,l),
(292,697,l),
(25,0,l),
(123,0,l),
(185,173,l),
(469,173,l)
);
},
{
closed = 1;
nodes = (
(214,252,l),
(327,568,l),
(440,252,l)
);
}
);
width = 654;
}
);
note = Acircumflex;
unicode = 194;
},
{
glyphname = uni1EA4;
kernLeft = A;
kernRight = A;
layers = (
{
hints = (
{
horizontal = 1;
place = (0, 21);
target = up;
type = BottomGhost;
},
{
horizontal = 1;
place = (173, 79);
place = (173, 79);
type = Stem;
},
{
horizontal = 1;
place = (697, -20);
target = down;
type = TopGhost;
},
{
horizontal = 1;
place = (949, 141);
place = (949, 141);
type = Stem;
},
{
place = (25, 604);
place = (25, 604);
type = Stem;
}
);
layerId = m01;
shapes = (
{
closed = 1;
nodes = (
(497,1090,l),
(405,1090,l),
(296,949,l),
(360,949,l)
);
},
{
closed = 1;
nodes = (
(327,839,l),
(409,750,l),
(478,750,l),
(327,914,l),
(176,750,l),
(245,750,l)
);
},
{
closed = 1;
nodes = (
(531,0,l),
(629,0,l),
(362,697,l),
(292,697,l),
(25,0,l),
(123,0,l),
(185,173,l),
(469,173,l)
);
},
{
closed = 1;
nodes = (
(214,252,l),
(327,568,l),
(440,252,l)
);
}
);
width = 654;
}
);
note = uni1EA4;
unicode = 7844;
},
{
glyphname = uni1EAC;
kernLeft = A;
kernRight = A;
layers = (
{
hints = (
{
horizontal = 1;
place = (-173, 104);
place = (-173, 104);
type = Stem;
},
{
horizontal = 1;
place = (0, 21);
target = up;
type = BottomGhost;
},
{
horizontal = 1;
place = (173, 79);
place = (173, 79);
type = Stem;
},
{
horizontal = 1;
place = (697, -20);
target = down;
type = TopGhost;
},
{
place = (279, 96);
place = (279, 96);
type = Stem;
}
);
layerId = m01;
shapes = (
{
closed = 1;
nodes = (
(327,839,l),
(409,750,l),
(478,750,l),
(327,914,l),
(176,750,l),
(245,750,l)
);
},
{
closed = 1;
nodes = (
(629,0,l),
(362,697,l),
(292,697,l),
(25,0,l),
(123,0,l),
(185,173,l),
(469,173,l),
(531,0,l)
);
},
{
closed = 1;
nodes = (
(214,252,l),
(327,568,l),
(440,252,l)
);
},
{
closed = 1;
nodes = (
(279,-173,l),
(375,-173,l),
(375,-69,l),
(279,-69,l)
);
}
);
width = 654;
}
);
note = uni1EAC;
unicode = 7852;
},
{
glyphname = uni1EA6;
kernLeft = A;
kernRight = A;
layers = (
{
hints = (
{
horizontal = 1;
place = (0, 21);
target = up;
type = BottomGhost;
},
{
horizontal = 1;
place = (173, 79);
place = (173, 79);
type = Stem;
},
{
horizontal = 1;
place = (697, -20);
target = down;
type = TopGhost;
},
{
horizontal = 1;
place = (949, 141);
place = (949, 141);
type = Stem;
},
{
place = (25, 604);
place = (25, 604);
type = Stem;
}
);
layerId = m01;
shapes = (
{
closed = 1;
nodes = (
(360,949,l),
(256,1090,l),
(164,1090,l),
(294,949,l)
);
},
{
closed = 1;
nodes = (
(176,750,l),
(245,750,l),
(327,839,l),
(409,750,l),
(478,750,l),
(327,914,l)
);
},
{
closed = 1;
nodes = (
(531,0,l),
(629,0,l),
(362,697,l),
(292,697,l),
(25,0,l),
(123,0,l),
(185,173,l),
(469,173,l)
);
},
{
closed = 1;
nodes = (
(214,252,l),
(327,568,l),
(440,252,l)
);
}
);
width = 654;
}
);
note = uni1EA6;
unicode = 7846;
},
{
glyphname = uni1EA8;
kernLeft = A;
kernRight = A;
layers = (
{
hints = (
{
horizontal = 1;
place = (0, 21);
target = up;
type = BottomGhost;
},
{
horizontal = 1;
place = (173, 79);
place = (173, 79);
type = Stem;
},
{
horizontal = 1;
place = (697, -20);
target = down;
type = TopGhost;
},
{
horizontal = 1;
place = (1062, 49);
place = (1062, 49);
type = Stem;
},
{
place = (381, 57);
place = (381, 57);
type = Stem;
}
);
layerId = m01;
shapes = (
{
closed = 1;
nodes = (
(381,979,o),
(343,973,o),
(307,967,c),
(320,925,l),
(370,934,o),
(438,946,o),
(438,1013,cs),
(438,1077,o),
(378,1111,o),
(295,1111,cs),
(280,1111,l),
(280,1062,l),
(295,1062,ls),
(338,1062,o),
(381,1052,o),
(381,1014,cs)
);
},
{
closed = 1;
nodes = (
(327,839,l),
(409,750,l),
(478,750,l),
(327,914,l),
(176,750,l),
(245,750,l)
);
},
{
closed = 1;
nodes = (
(531,0,l),
(629,0,l),
(362,697,l),
(292,697,l),
(25,0,l),
(123,0,l),
(185,173,l),
(469,173,l)
);
},
{
closed = 1;
nodes = (
(214,252,l),
(327,568,l),
(440,252,l)
);
}
);
width = 654;
}
);
note = uni1EA8;
unicode = 7848;
},
{
glyphname = uni1EAA;
kernLeft = A;
kernRight = A;
layers = (
{
hints = (
{
horizontal = 1;
place = (0, 21);
target = up;
type = BottomGhost;
},
{
horizontal = 1;
place = (173, 79);
place = (173, 79);
type = Stem;
},
{
horizontal = 1;
place = (697, -20);
target = down;
type = TopGhost;
},
{
horizontal = 1;
place = (1040, 54);
place = (1040, 54);
type = Stem;
},
{
place = (166, 50);
place = (166, 50);
type = Stem;
},
{
place = (436, 52);
place = (436, 52);
type = Stem;
},
{
horizontal = 1;
place = (958, 55);
place = (958, 55);
type = Stem;
}
);
layerId = m01;
shapes = (
{
closed = 1;
nodes = (
(308,1040,o),
(313,958,o),
(395,958,cs),
(451,958,o),
(488,1007,o),
(488,1090,c),
(436,1090,l),
(436,1042,o),
(418,1013,o),
(395,1013,cs),
(347,1013,o),
(336,1094,o),
(263,1094,cs),
(204,1094,o),
(166,1047,o),
(166,965,c),
(216,965,l),
(216,1012,o),
(233,1040,o),
(260,1040,cs)
);
},
{
closed = 1;
nodes = (
(176,750,l),
(245,750,l),
(327,839,l),
(409,750,l),
(478,750,l),
(327,914,l)
);
},
{
closed = 1;
nodes = (
(531,0,l),
(629,0,l),
(362,697,l),
(292,697,l),
(25,0,l),
(123,0,l),
(185,173,l),
(469,173,l)
);
},
{
closed = 1;
nodes = (
(214,252,l),
(327,568,l),
(440,252,l)
);
}
);
width = 654;
}
);
note = uni1EAA;
unicode = 7850;
},
{
glyphname = Adieresis;
kernLeft = A;
kernRight = A;
layers = (
{
hints = (
{
horizontal = 1;
place = (0, 21);
target = up;
type = BottomGhost;
},
{
horizontal = 1;
place = (173, 79);
place = (173, 79);
type = Stem;
},
{
horizontal = 1;
place = (697, -20);
target = down;
type = TopGhost;
},
{
horizontal = 1;
place = (796, 105);
place = (796, 105);
type = Stem;
},
{
place = (191, 87);
place = (191, 87);
type = Stem;
},
{
place = (376, 87);
place = (376, 87);
type = Stem;
}
);
layerId = m01;
shapes = (
{
closed = 1;
nodes = (
(278,901,l),
(191,901,l),
(191,796,l),
(278,796,l)
);
},
{
closed = 1;
nodes = (
(463,901,l),
(376,901,l),
(376,796,l),
(463,796,l)
);
},
{
closed = 1;
nodes = (
(531,0,l),
(629,0,l),
(362,697,l),
(292,697,l),
(25,0,l),
(123,0,l),
(185,173,l),
(469,173,l)
);
},
{
closed = 1;
nodes = (
(214,252,l),
(327,568,l),
(440,252,l)
);
}
);
width = 654;
}
);
note = Adieresis;
unicode = 196;
},
{
glyphname = uni1EA0;
kernLeft = A;
kernRight = A;
layers = (
{
hints = (
{
horizontal = 1;
place = (-173, 104);
place = (-173, 104);
type = Stem;
},
{
horizontal = 1;
place = (0, 21);
target = up;
type = BottomGhost;
},
{
horizontal = 1;
place = (173, 79);
place = (173, 79);
type = Stem;
},
{
horizontal = 1;
place = (697, -20);
target = down;
type = TopGhost;
},
{
place = (279, 96);
place = (279, 96);
type = Stem;
}
);
layerId = m01;
shapes = (
{
closed = 1;
nodes = (
(629,0,l),
(362,697,l),
(292,697,l),
(25,0,l),
(123,0,l),
(185,173,l),
(469,173,l),
(531,0,l)
);
},
{
closed = 1;
nodes = (
(214,252,l),
(327,568,l),
(440,252,l)
);
},
{
closed = 1;
nodes = (
(279,-173,l),
(375,-173,l),
(375,-69,l),
(279,-69,l)
);
}
);
width = 654;
}
);
note = uni1EA0;
unicode = 7840;
},
{
glyphname = Agrave;
kernLeft = A;
kernRight = A;
layers = (
{
hints = (
{
horizontal = 1;
place = (0, 21);
target = up;
type = BottomGhost;
},
{
horizontal = 1;
place = (173, 79);
place = (173, 79);
type = Stem;
},
{
horizontal = 1;
place = (697, -20);
target = down;
type = TopGhost;
},
{
horizontal = 1;
place = (760, 141);
place = (760, 141);
type = Stem;
},
{
place = (25, 604);
place = (25, 604);
type = Stem;
}
);
layerId = m01;
shapes = (
{
closed = 1;
nodes = (
(360,760,l),
(256,901,l),
(164,901,l),
(294,760,l)
);
},
{
closed = 1;
nodes = (
(531,0,l),
(629,0,l),
(362,697,l),
(292,697,l),
(25,0,l),
(123,0,l),
(185,173,l),
(469,173,l)
);
},
{
closed = 1;
nodes = (
(214,252,l),
(327,568,l),
(440,252,l)
);
}
);
width = 654;
}
);
note = Agrave;
unicode = 192;
},
{
glyphname = uni1EA2;
kernLeft = A;
kernRight = A;
layers = (
{
hints = (
{
horizontal = 1;
place = (0, 21);
target = up;
type = BottomGhost;
},
{
horizontal = 1;
place = (173, 79);
place = (173, 79);
type = Stem;
},
{
horizontal = 1;
place = (697, -20);
target = down;
type = TopGhost;
},
{
horizontal = 1;
place = (873, 49);
place = (873, 49);
type = Stem;
},
{
place = (381, 57);
place = (381, 57);
type = Stem;
}
);
layerId = m01;
shapes = (
{
closed = 1;
nodes = (
(381,790,o),
(343,784,o),
(307,778,c),
(320,736,l),
(370,745,o),
(438,757,o),
(438,824,cs),
(438,888,o),
(378,922,o),
(295,922,cs),
(280,922,l),
(280,873,l),
(295,873,ls),
(338,873,o),
(381,863,o),
(381,825,cs)
);
},
{
closed = 1;
nodes = (
(531,0,l),
(629,0,l),
(362,697,l),
(292,697,l),
(25,0,l),
(123,0,l),
(185,173,l),
(469,173,l)
);
},
{
closed = 1;
nodes = (
(214,252,l),
(327,568,l),
(440,252,l)
);
}
);
width = 654;
}
);
note = uni1EA2;
unicode = 7842;
},
{
glyphname = Amacron;
kernLeft = A;
kernRight = A;
layers = (
{
hints = (
{
horizontal = 1;
place = (0, 21);
target = up;
type = BottomGhost;
},
{
horizontal = 1;
place = (173, 79);
place = (173, 79);
type = Stem;
},
{
horizontal = 1;
place = (697, -20);
target = down;
type = TopGhost;
},
{
horizontal = 1;
place = (792, 51);
place = (792, 51);
type = Stem;
},
{
place = (25, 604);
place = (25, 604);
type = Stem;
}
);
layerId = m01;
shapes = (
{
closed = 1;
nodes = (
(463,843,l),
(191,843,l),
(191,792,l),
(463,792,l)
);
},
{
closed = 1;
nodes = (
(531,0,l),
(629,0,l),
(362,697,l),
(292,697,l),
(25,0,l),
(123,0,l),
(185,173,l),
(469,173,l)
);
},
{
closed = 1;
nodes = (
(214,252,l),
(327,568,l),
(440,252,l)
);
}
);
width = 654;
}
);
note = Amacron;
unicode = 256;
},
{
glyphname = Aogonek;
kernLeft = A;
kernRight = A;
layers = (
{
hints = (
{
horizontal = 1;
place = (-217, 55);
place = (-217, 55);
type = Stem;
},
{
horizontal = 1;
place = (0, 21);
target = up;
type = BottomGhost;
},
{
horizontal = 1;
place = (173, 79);
place = (173, 79);
type = Stem;
},
{
horizontal = 1;
place = (697, -20);
target = down;
type = TopGhost;
},
{
place = (475, 52);
place = (475, 52);
type = Stem;
}
);
layerId = m01;
shapes = (
{
closed = 1;
nodes = (
(628,-135,l),
(611,-152,o),
(593,-162,o),
(570,-162,cs),
(548,-162,o),
(527,-151,o),
(527,-119,cs),
(527,-55,o),
(602,-15,o),
(629,0,c),
(362,697,l),
(292,697,l),
(25,0,l),
(123,0,l),
(185,173,l),
(469,173,l),
(531,0,l),
(559,0,l),
(521,-23,o),
(475,-68,o),
(475,-127,cs),
(475,-182,o),
(517,-217,o),
(573,-217,cs),
(614,-217,o),
(647,-196,o),
(671,-167,c)
);
},
{
closed = 1;
nodes = (
(214,252,l),
(327,568,l),
(440,252,l)
);
}
);
width = 654;
}
);
note = Aogonek;
unicode = 260;
},
{
glyphname = Aring;
kernLeft = A;
kernRight = A;
layers = (
{
hints = (
{
horizontal = 1;
place = (0, 21);
target = up;
type = BottomGhost;
},
{
horizontal = 1;
place = (173, 79);
place = (173, 79);
type = Stem;
},
{
horizontal = 1;
place = (838, 47);
place = (838, 47);
type = Stem;
},
{
place = (225, 48);
place = (225, 48);
type = Stem;
},
{
place = (383, 47);
place = (383, 47);
type = Stem;
}
);
layerId = m01;
shapes = (
{
closed = 1;
nodes = (
(531,0,l),
(629,0,l),
(366,687,l),
(404,702,o),
(430,739,o),
(430,783,cs),
(430,840,o),
(383,885,o),
(328,885,cs),
(271,885,o),
(225,840,o),
(225,783,cs),
(225,741,o),
(251,703,o),
(288,688,c),
(25,0,l),
(123,0,l),
(185,173,l),
(469,173,l)
);
},
{
closed = 1;
nodes = (
(361,838,o),
(383,814,o),
(383,783,cs),
(383,752,o),
(359,728,o),
(328,728,cs),
(296,728,o),
(273,752,o),
(273,783,cs),
(273,814,o),
(296,838,o),
(328,838,cs)
);
},
{
closed = 1;
nodes = (
(214,252,l),
(327,568,l),
(440,252,l)
);
}
);
width = 654;
}
);
note = Aring;
unicode = 197;
},
{
glyphname = Atilde;
kernLeft = A;
kernRight = A;
layers = (
{
hints = (
{
horizontal = 1;
place = (0, 21);
target = up;
type = BottomGhost;
},
{
horizontal = 1;
place = (173, 79);
place = (173, 79);
type = Stem;
},
{
horizontal = 1;
place = (697, -20);
target = down;
type = TopGhost;
},
{
horizontal = 1;
place = (851, 54);
place = (851, 54);
type = Stem;
},
{
place = (166, 50);
place = (166, 50);
type = Stem;
},
{
place = (436, 52);
place = (436, 52);
type = Stem;
},
{
horizontal = 1;
place = (769, 55);
place = (769, 55);
type = Stem;
}
);
layerId = m01;
shapes = (
{
closed = 1;
nodes = (
(308,851,o),
(313,769,o),
(395,769,cs),
(451,769,o),
(488,818,o),
(488,901,c),
(436,901,l),
(436,853,o),
(418,824,o),
(395,824,cs),
(347,824,o),
(336,905,o),
(263,905,cs),
(204,905,o),
(166,858,o),
(166,776,c),
(216,776,l),
(216,823,o),
(233,851,o),
(260,851,cs)
);
},
{
closed = 1;
nodes = (
(531,0,l),
(629,0,l),
(362,697,l),
(292,697,l),
(25,0,l),
(123,0,l),
(185,173,l),
(469,173,l)
);
},
{
closed = 1;
nodes = (
(214,252,l),
(327,568,l),
(440,252,l)
);
}
);
width = 654;
}
);
note = Atilde;
unicode = 195;
},
{
glyphname = AE;
kernLeft = A;
layers = (
{
hints = (
{
horizontal = 1;
place = (0, 81);
place = (0, 81);
type = Stem;
},
{
horizontal = 1;
place = (162, 76);
place = (162, 76);
type = Stem;
},
{
horizontal = 1;
place = (311, 76);
place = (311, 76);
type = Stem;
},
{
horizontal = 1;
place = (618, 79);
place = (618, 79);
type = Stem;
},
{
place = (400, 90);
place = (400, 90);
type = Stem;
},
{
horizontal = 1;
place = (621, 76);
place = (621, 76);
type = Stem;
}
);
layerId = m01;
shapes = (
{
closed = 1;
nodes = (
(25,0,l),
(123,0,l),
(181,162,l),
(400,162,l),
(400,0,l),
(856,0,l),
(856,81,l),
(490,81,l),
(490,311,l),
(809,311,l),
(809,387,l),
(490,387,l),
(490,618,l),
(856,618,l),
(856,697,l),
(291,697,l)
);
},
{
closed = 1;
nodes = (
(209,238,l),
(347,621,l),
(400,621,l),
(400,238,l)
);
}
);
width = 912;
}
);
note = AE;
unicode = 198;
},
{
glyphname = B;
kernLeft = B;
kernRight = B;
lastChange = "2022-12-26 06:04:58 +0000";
layers = (
{
hints = (
{
horizontal = 1;
place = (0, 82);
place = (0, 82);
type = Stem;
},
{
horizontal = 1;
place = (322, 80);
place = (322, 80);
type = Stem;
},
{
horizontal = 1;
place = (615, 82);
place = (615, 82);
type = Stem;
},
{
place = (105, 89);
place = (105, 89);
type = Stem;
},
{
place = (488, 90);
place = (488, 90);
type = Stem;
},
{
place = (452, 89);
place = (452, 89);
type = Stem;
}
);
layerId = m01;
shapes = (
{
closed = 1;
nodes = (
(120,697,ls),
(110,697,o),
(105,692,o),
(105,682,cs),
(105,0,l),
(353,0,ls),
(496,0,o),
(578,72,o),
(578,198,cs),
(578,289,o),
(535,350,o),
(454,373,c),
(510,399,o),
(541,453,o),
(541,522,cs),
(541,632,o),
(463,697,o),
(329,697,cs)
);
},
{
closed = 1;
nodes = (
(194,402,l),
(194,615,l),
(329,615,ls),
(407,615,o),
(452,575,o),
(452,507,cs),
(452,441,o),
(411,402,o),
(338,402,cs)
);
},
{
closed = 1;
nodes = (
(194,82,l),
(194,322,l),
(359,322,ls),
(442,322,o),
(488,280,o),
(488,205,cs),
(488,127,o),
(437,82,o),
(347,82,cs)
);
}
);
width = 635;
}
);
note = B;
unicode = 66;
},
{
glyphname = C;
kernLeft = C;
kernRight = C;
lastChange = "2022-12-26 06:05:16 +0000";
layers = (
{
hints = (
{
horizontal = 1;
place = (-12, 85);
place = (-12, 85);
type = Stem;
},
{
horizontal = 1;
place = (624, 85);
place = (624, 85);
type = Stem;
},
{
place = (59, 89);
place = (59, 89);
type = Stem;
}
);
layerId = m01;
shapes = (
{
closed = 1;
nodes = (
(612,213,ls),
(603,216,o),
(596,213,o),
(592,204,cs),
(554,117,o),
(482,73,o),
(383,73,cs),
(234,73,o),
(148,174,o),
(148,350,cs),
(148,525,o),
(234,624,o),
(386,624,cs),
(486,624,o),
(556,583,o),
(593,496,cs),
(597,487,o),
(603,483,o),
(612,487,cs),
(680,514,l),
(631,643,o),
(528,709,o),
(386,709,cs),
(183,709,o),
(59,573,o),
(59,350,cs),
(59,125,o),
(182,-12,o),
(383,-12,cs),
(525,-12,o),
(631,57,o),
(682,187,c)
);
}
);
width = 723;
}
);
note = C;
unicode = 67;
},
{
glyphname = Cacute;
kernLeft = C;
kernRight = C;
layers = (
{
hints = (
{
horizontal = 1;
place = (-12, 85);
place = (-12, 85);
type = Stem;
},
{
horizontal = 1;
place = (624, 85);
place = (624, 85);
type = Stem;
},
{
horizontal = 1;
place = (760, 141);
place = (760, 141);
type = Stem;
},
{
place = (59, 89);
place = (59, 89);
type = Stem;
}
);
layerId = m01;
shapes = (
{
closed = 1;
nodes = (
(358,760,l),
(422,760,l),
(559,901,l),
(467,901,l)
);
},
{
closed = 1;
nodes = (
(525,-12,o),
(631,57,o),
(682,187,c),
(598,218,l),
(562,122,o),
(487,73,o),
(383,73,cs),
(234,73,o),
(148,174,o),
(148,350,cs),
(148,525,o),
(234,624,o),
(386,624,cs),
(491,624,o),
(563,578,o),
(598,482,c),
(680,514,l),
(631,643,o),
(528,709,o),
(386,709,cs),
(183,709,o),
(59,573,o),
(59,350,cs),
(59,125,o),
(182,-12,o),
(383,-12,cs)
);
}
);
width = 723;
}
);
note = Cacute;
unicode = 262;
},
{
glyphname = Ccaron;
kernLeft = C;
kernRight = C;
layers = (
{
hints = (
{
horizontal = 1;
place = (-12, 85);
place = (-12, 85);
type = Stem;
},
{
horizontal = 1;
place = (624, 85);
place = (624, 85);
type = Stem;
},
{
place = (59, 89);
place = (59, 89);
type = Stem;
}
);
layerId = m01;
shapes = (
{
closed = 1;
nodes = (
(390,744,l),
(541,901,l),
(472,901,l),
(390,815,l),
(308,901,l),
(239,901,l)
);
},
{
closed = 1;
nodes = (
(525,-12,o),
(631,57,o),
(682,187,c),
(598,218,l),
(562,122,o),
(487,73,o),
(383,73,cs),
(234,73,o),
(148,174,o),
(148,350,cs),
(148,525,o),
(234,624,o),
(386,624,cs),
(491,624,o),
(563,578,o),
(598,482,c),
(680,514,l),
(631,643,o),
(528,709,o),
(386,709,cs),
(183,709,o),
(59,573,o),
(59,350,cs),
(59,125,o),
(182,-12,o),
(383,-12,cs)
);
}
);
width = 723;
}
);
note = Ccaron;
unicode = 268;
},
{
glyphname = Ccedilla;
kernLeft = C;
kernRight = C;
layers = (
{
hints = (
{
horizontal = 1;
place = (-256, 51);
place = (-256, 51);
type = Stem;
},
{
horizontal = 1;
place = (-95, 36);
place = (-95, 36);
type = Stem;
},
{
horizontal = 1;
place = (-11, 84);
place = (-11, 84);
type = Stem;
},
{
horizontal = 1;
place = (624, 85);
place = (624, 85);
type = Stem;
},
{
place = (59, 89);
place = (59, 89);
type = Stem;
},
{
place = (433, 52);
place = (433, 52);
type = Stem;
}
);
layerId = m01;
shapes = (
{
closed = 1;
nodes = (
(598,218,l),
(562,122,o),
(487,73,o),
(383,73,cs),
(234,73,o),
(148,174,o),
(148,350,cs),
(148,525,o),
(234,624,o),
(386,624,cs),
(491,624,o),
(563,578,o),
(598,482,c),
(680,514,l),
(631,643,o),
(528,709,o),
(386,709,cs),
(183,709,o),
(59,573,o),
(59,350,cs),
(59,135,o),
(171,0,o),
(356,-11,c),
(307,-95,l),
(334,-95,o),
(359,-96,o),
(379,-101,cs),
(409,-108,o),
(433,-123,o),
(433,-155,cs),
(433,-186,o),
(413,-205,o),
(381,-205,cs),
(361,-205,o),
(337,-196,o),
(320,-173,c),
(290,-214,l),
(315,-243,o),
(350,-256,o),
(378,-256,cs),
(441,-256,o),
(485,-212,o),
(485,-153,cs),
(485,-117,o),
(467,-91,o),
(435,-76,cs),
(418,-68,o),
(400,-63,o),
(376,-59,c),
(408,-11,l),
(537,-4,o),
(634,65,o),
(682,187,c)
);
}
);
width = 723;
}
);
note = Ccedilla;
unicode = 199;
},
{
glyphname = Cdotaccent;
kernLeft = C;
kernRight = C;
layers = (
{
hints = (
{
horizontal = 1;
place = (-12, 85);
place = (-12, 85);
type = Stem;
},
{
horizontal = 1;
place = (624, 85);
place = (624, 85);
type = Stem;
},
{
horizontal = 1;
place = (796, 105);
place = (796, 105);
type = Stem;
},
{
place = (59, 89);
place = (59, 89);
type = Stem;
},
{
place = (342, 96);
place = (342, 96);
type = Stem;
}
);
layerId = m01;
shapes = (
{
closed = 1;
nodes = (
(342,796,l),
(438,796,l),
(438,901,l),
(342,901,l)
);
},
{
closed = 1;
nodes = (
(525,-12,o),
(631,57,o),
(682,187,c),
(598,218,l),
(562,122,o),
(487,73,o),
(383,73,cs),
(234,73,o),
(148,174,o),
(148,350,cs),
(148,525,o),
(234,624,o),
(386,624,cs),
(491,624,o),
(563,578,o),
(598,482,c),
(680,514,l),
(631,643,o),
(528,709,o),
(386,709,cs),
(183,709,o),
(59,573,o),
(59,350,cs),
(59,125,o),
(182,-12,o),
(383,-12,cs)
);
}
);
width = 723;
}
);
note = Cdotaccent;
unicode = 266;
},
{
glyphname = D;
kernLeft = B;
kernRight = D;
lastChange = "2022-12-26 06:05:27 +0000";
layers = (
{
hints = (
{
horizontal = 1;
place = (0, 82);
place = (0, 82);
type = Stem;
},
{
horizontal = 1;
place = (615, 82);
place = (615, 82);
type = Stem;
},
{
place = (105, 89);
place = (105, 89);
type = Stem;
},
{
place = (567, 90);
place = (567, 90);
type = Stem;
}
);
layerId = m01;
shapes = (
{
closed = 1;
nodes = (
(120,697,ls),
(110,697,o),
(105,692,o),
(105,682,cs),
(105,0,l),
(298,0,ls),
(530,0,o),
(657,121,o),
(657,343,cs),
(657,568,o),
(527,697,o),
(299,697,cs)
);
},
{
closed = 1;
nodes = (
(194,82,l),
(194,615,l),
(297,615,ls),
(478,615,o),
(567,526,o),
(567,347,cs),
(567,167,o),
(478,82,o),
(290,82,cs)
);
}
);
width = 714;
}
);
note = D;
unicode = 68;
},
{
glyphname = Eth;
kernLeft = B;
kernRight = D;
layers = (
{
hints = (
{
horizontal = 1;
place = (0, 82);
place = (0, 82);
type = Stem;
},
{
horizontal = 1;
place = (320, 58);
place = (320, 58);
type = Stem;
},
{
horizontal = 1;
place = (615, 82);
place = (615, 82);
type = Stem;
},
{
place = (105, 89);
place = (105, 89);
type = Stem;
},
{
place = (567, 90);
place = (567, 90);
type = Stem;
}
);
layerId = m01;
shapes = (
{
closed = 1;
nodes = (
(105,697,l),
(105,378,l),
(30,378,l),
(30,320,l),
(105,320,l),
(105,0,l),
(298,0,ls),
(530,0,o),
(657,121,o),
(657,343,cs),
(657,568,o),
(527,697,o),
(299,697,cs)
);
},
{
closed = 1;
nodes = (
(194,82,l),
(194,320,l),
(318,320,l),
(318,378,l),
(194,378,l),
(194,615,l),
(297,615,ls),
(478,615,o),
(567,526,o),
(567,347,cs),
(567,167,o),
(478,82,o),
(290,82,cs)
);
}
);
width = 714;
}
);
note = Eth;
unicode = 208;
},
{
glyphname = Dcaron;
kernLeft = B;
kernRight = D;
layers = (
{
hints = (
{
horizontal = 1;
place = (0, 82);
place = (0, 82);
type = Stem;
},
{
horizontal = 1;
place = (615, 82);
place = (615, 82);
type = Stem;
},
{
place = (105, 89);
place = (105, 89);
type = Stem;
},
{
place = (567, 90);
place = (567, 90);
type = Stem;
}
);
layerId = m01;
shapes = (
{
closed = 1;
nodes = (
(358,744,l),
(509,901,l),
(440,901,l),
(358,815,l),
(276,901,l),
(207,901,l)
);
},
{
closed = 1;
nodes = (
(105,0,l),
(298,0,ls),
(530,0,o),
(657,121,o),
(657,343,cs),
(657,568,o),
(527,697,o),
(299,697,cs),
(105,697,l)
);
},
{
closed = 1;
nodes = (
(194,82,l),
(194,615,l),
(297,615,ls),
(478,615,o),
(567,526,o),
(567,347,cs),
(567,167,o),
(478,82,o),
(290,82,cs)
);
}
);
width = 714;
}
);
note = Dcaron;
unicode = 270;
},
{
glyphname = Dcroat;
kernLeft = B;
kernRight = D;
layers = (
{
hints = (
{
horizontal = 1;
place = (0, 82);
place = (0, 82);
type = Stem;
},
{
horizontal = 1;
place = (320, 58);
place = (320, 58);
type = Stem;
},
{
horizontal = 1;
place = (615, 82);
place = (615, 82);
type = Stem;
},
{
place = (105, 89);
place = (105, 89);
type = Stem;
},
{
place = (567, 90);
place = (567, 90);
type = Stem;
}
);
layerId = m01;
shapes = (
{
closed = 1;
nodes = (
(105,697,l),
(105,378,l),
(30,378,l),
(30,320,l),
(105,320,l),
(105,0,l),
(298,0,ls),
(530,0,o),
(657,121,o),
(657,343,cs),
(657,568,o),
(527,697,o),
(299,697,cs)
);
},
{
closed = 1;
nodes = (
(194,82,l),
(194,320,l),
(318,320,l),
(318,378,l),
(194,378,l),
(194,615,l),
(297,615,ls),
(478,615,o),
(567,526,o),
(567,347,cs),
(567,167,o),
(478,82,o),
(290,82,cs)
);
}
);
width = 714;
}
);
note = Dcroat;
unicode = 272;
},
{
glyphname = E;
kernLeft = B;
lastChange = "2022-12-26 06:05:39 +0000";
layers = (
{
hints = (
{
horizontal = 1;
place = (0, 82);
place = (0, 82);
type = Stem;
},
{
horizontal = 1;
place = (315, 82);
place = (315, 82);
type = Stem;
},
{
horizontal = 1;
place = (615, 82);
place = (615, 82);
type = Stem;
},
{
place = (105, 89);
place = (105, 89);
type = Stem;
}
);
layerId = m01;
shapes = (
{
closed = 1;
nodes = (
(531,382,ls),
(531,392,o),
(526,397,o),
(516,397,cs),
(194,397,l),
(194,615,l),
(565,615,l),
(565,697,l),
(105,697,l),
(105,0,l),
(565,0,l),
(565,82,l),
(194,82,l),
(194,315,l),
(531,315,l)
);
}
);
width = 625;
}
);
note = E;
unicode = 69;
},
{
glyphname = Eacute;
kernLeft = B;
layers = (
{
hints = (
{
horizontal = 1;
place = (0, 82);
place = (0, 82);
type = Stem;
},
{
horizontal = 1;
place = (315, 82);
place = (315, 82);
type = Stem;
},
{
horizontal = 1;
place = (615, 82);
place = (615, 82);
type = Stem;
},
{
horizontal = 1;
place = (760, 141);
place = (760, 141);
type = Stem;
},
{
place = (105, 89);
place = (105, 89);
type = Stem;
}
);
layerId = m01;
shapes = (
{
closed = 1;
nodes = (
(303,760,l),
(367,760,l),
(504,901,l),
(412,901,l)
);
},
{
closed = 1;
nodes = (
(105,0,l),
(565,0,l),
(565,82,l),
(194,82,l),
(194,315,l),
(531,315,l),
(531,397,l),
(194,397,l),
(194,615,l),
(565,615,l),
(565,697,l),
(105,697,l)
);
}
);
width = 625;
}
);
note = Eacute;
unicode = 201;
},
{
glyphname = Ecaron;
kernLeft = B;
layers = (
{
hints = (
{
horizontal = 1;
place = (0, 82);
place = (0, 82);
type = Stem;
},
{
horizontal = 1;
place = (315, 82);
place = (315, 82);
type = Stem;
},
{
horizontal = 1;
place = (615, 82);
place = (615, 82);
type = Stem;
},
{
place = (105, 89);
place = (105, 89);
type = Stem;
}
);
layerId = m01;
shapes = (
{
closed = 1;
nodes = (
(335,744,l),
(486,901,l),
(417,901,l),
(335,815,l),
(253,901,l),
(184,901,l)
);
},
{
closed = 1;
nodes = (
(105,0,l),
(565,0,l),
(565,82,l),
(194,82,l),
(194,315,l),
(531,315,l),
(531,397,l),
(194,397,l),
(194,615,l),
(565,615,l),
(565,697,l),
(105,697,l)
);
}
);
width = 625;
}
);
note = Ecaron;
unicode = 282;
},
{
glyphname = Ecircumflex;
kernLeft = B;
layers = (
{
hints = (
{
horizontal = 1;
place = (0, 82);
place = (0, 82);
type = Stem;
},
{
horizontal = 1;
place = (315, 82);
place = (315, 82);
type = Stem;
},
{
horizontal = 1;
place = (615, 82);
place = (615, 82);
type = Stem;
},
{
place = (105, 89);
place = (105, 89);
type = Stem;
}
);
layerId = m01;
shapes = (
{
closed = 1;
nodes = (
(184,750,l),
(253,750,l),
(335,839,l),
(417,750,l),
(486,750,l),
(335,914,l)
);
},
{
closed = 1;
nodes = (
(105,0,l),
(565,0,l),
(565,82,l),
(194,82,l),
(194,315,l),
(531,315,l),
(531,397,l),
(194,397,l),
(194,615,l),
(565,615,l),
(565,697,l),
(105,697,l)
);
}
);
width = 625;
}
);
note = Ecircumflex;
unicode = 202;
},
{
glyphname = uni1EBE;
kernLeft = B;
layers = (
{
hints = (
{
horizontal = 1;
place = (0, 82);
place = (0, 82);
type = Stem;
},
{
horizontal = 1;
place = (315, 82);
place = (315, 82);
type = Stem;
},
{
horizontal = 1;
place = (615, 82);
place = (615, 82);
type = Stem;
},
{
horizontal = 1;
place = (949, 141);
place = (949, 141);
type = Stem;
},
{
place = (105, 89);
place = (105, 89);
type = Stem;
}
);
layerId = m01;
shapes = (
{
closed = 1;
nodes = (
(303,949,l),
(367,949,l),
(504,1090,l),
(412,1090,l)
);
},
{
closed = 1;
nodes = (
(184,750,l),
(253,750,l),
(335,839,l),
(417,750,l),
(486,750,l),
(335,914,l)
);
},
{
closed = 1;
nodes = (
(105,0,l),
(565,0,l),
(565,82,l),
(194,82,l),
(194,315,l),
(531,315,l),
(531,397,l),
(194,397,l),
(194,615,l),
(565,615,l),
(565,697,l),
(105,697,l)
);
}
);
width = 625;
}
);
note = uni1EBE;
unicode = 7870;
},
{
glyphname = uni1EC6;
kernLeft = B;
layers = (
{
hints = (
{
horizontal = 1;
place = (-173, 104);
place = (-173, 104);
type = Stem;
},
{
horizontal = 1;
place = (0, 82);
place = (0, 82);
type = Stem;
},
{
horizontal = 1;
place = (315, 82);
place = (315, 82);
type = Stem;
},
{
horizontal = 1;
place = (615, 82);
place = (615, 82);
type = Stem;
},
{
place = (105, 89);
place = (105, 89);
type = Stem;
},
{
place = (287, 96);
place = (287, 96);
type = Stem;
}
);
layerId = m01;
shapes = (
{
closed = 1;
nodes = (
(184,750,l),
(253,750,l),
(335,839,l),
(417,750,l),
(486,750,l),
(335,914,l)
);
},
{
closed = 1;
nodes = (
(105,0,l),
(565,0,l),
(565,82,l),
(194,82,l),
(194,315,l),
(531,315,l),
(531,397,l),
(194,397,l),
(194,615,l),
(565,615,l),
(565,697,l),
(105,697,l)
);
},
{
closed = 1;
nodes = (
(287,-173,l),
(383,-173,l),
(383,-69,l),
(287,-69,l)
);
}
);
width = 625;
}
);
note = uni1EC6;
unicode = 7878;
},
{
glyphname = uni1EC0;
kernLeft = B;
layers = (
{
hints = (
{
horizontal = 1;
place = (0, 82);
place = (0, 82);
type = Stem;
},
{
horizontal = 1;
place = (315, 82);
place = (315, 82);
type = Stem;
},
{
horizontal = 1;
place = (615, 82);
place = (615, 82);
type = Stem;
},
{
horizontal = 1;
place = (949, 141);
place = (949, 141);
type = Stem;
},
{
place = (105, 89);
place = (105, 89);
type = Stem;
}
);
layerId = m01;
shapes = (
{
closed = 1;
nodes = (
(302,949,l),
(368,949,l),
(264,1090,l),
(172,1090,l)
);
},
{
closed = 1;
nodes = (
(184,750,l),
(253,750,l),
(335,839,l),
(417,750,l),
(486,750,l),
(335,914,l)
);
},
{
closed = 1;
nodes = (
(105,0,l),
(565,0,l),
(565,82,l),
(194,82,l),
(194,315,l),
(531,315,l),
(531,397,l),
(194,397,l),
(194,615,l),
(565,615,l),
(565,697,l),
(105,697,l)
);
}
);
width = 625;
}
);
note = uni1EC0;
unicode = 7872;
},
{
glyphname = uni1EC2;
kernLeft = B;
layers = (
{
hints = (
{
horizontal = 1;
place = (0, 82);
place = (0, 82);
type = Stem;
},
{
horizontal = 1;
place = (315, 82);
place = (315, 82);
type = Stem;
},
{
horizontal = 1;
place = (615, 82);
place = (615, 82);
type = Stem;
},
{
horizontal = 1;
place = (1062, 49);
place = (1062, 49);
type = Stem;
},
{
place = (105, 89);
place = (105, 89);
type = Stem;
},
{
place = (388, 57);
place = (388, 57);
type = Stem;
}
);
layerId = m01;
shapes = (
{
closed = 1;
nodes = (
(327,925,l),
(377,934,o),
(445,946,o),
(445,1013,cs),
(445,1077,o),
(385,1111,o),
(302,1111,cs),
(287,1111,l),
(287,1062,l),
(302,1062,ls),
(345,1062,o),
(388,1052,o),
(388,1014,cs),
(388,979,o),
(350,973,o),
(314,967,c)
);
},
{
closed = 1;
nodes = (
(184,750,l),
(253,750,l),
(335,839,l),
(417,750,l),
(486,750,l),
(335,914,l)
);
},
{
closed = 1;
nodes = (
(105,0,l),
(565,0,l),
(565,82,l),
(194,82,l),
(194,315,l),
(531,315,l),
(531,397,l),
(194,397,l),
(194,615,l),
(565,615,l),
(565,697,l),
(105,697,l)
);
}
);
width = 625;
}
);
note = uni1EC2;
unicode = 7874;
},
{
glyphname = uni1EC4;
kernLeft = B;
layers = (
{
hints = (
{
horizontal = 1;
place = (0, 82);
place = (0, 82);
type = Stem;
},
{
horizontal = 1;
place = (315, 82);
place = (315, 82);
type = Stem;
},
{
horizontal = 1;
place = (615, 82);
place = (615, 82);
type = Stem;
},
{
horizontal = 1;
place = (958, 55);
place = (958, 55);
type = Stem;
},
{
horizontal = 1;
place = (1040, 54);
place = (1040, 54);
type = Stem;
},
{
place = (173, 50);
place = (173, 50);
type = Stem;
},
{
place = (443, 52);
place = (443, 52);
type = Stem;
},
{
place = (105, 89);
place = (105, 89);
type = Stem;
}
);
layerId = m01;
shapes = (
{
closed = 1;
nodes = (
(458,958,o),
(495,1007,o),
(495,1090,c),
(443,1090,l),
(443,1042,o),
(425,1013,o),
(402,1013,cs),
(354,1013,o),
(343,1094,o),
(270,1094,cs),
(211,1094,o),
(173,1047,o),
(173,965,c),
(223,965,l),
(223,1012,o),
(240,1040,o),
(267,1040,cs),
(315,1040,o),
(320,958,o),
(402,958,cs)
);
},
{
closed = 1;
nodes = (
(184,750,l),
(253,750,l),
(335,839,l),
(417,750,l),
(486,750,l),
(335,914,l)
);
},
{
closed = 1;
nodes = (
(105,0,l),
(565,0,l),
(565,82,l),
(194,82,l),
(194,315,l),
(531,315,l),
(531,397,l),
(194,397,l),
(194,615,l),
(565,615,l),
(565,697,l),
(105,697,l)
);
}
);
width = 625;
}
);
note = uni1EC4;
unicode = 7876;
},
{
glyphname = Edieresis;
kernLeft = B;
layers = (
{
hints = (
{
horizontal = 1;
place = (0, 82);
place = (0, 82);
type = Stem;
},
{
horizontal = 1;
place = (315, 82);
place = (315, 82);
type = Stem;
},
{
horizontal = 1;
place = (615, 82);
place = (615, 82);
type = Stem;
},
{
horizontal = 1;
place = (796, 105);
place = (796, 105);
type = Stem;
},
{
place = (198, 87);
place = (198, 87);
type = Stem;
},
{
place = (383, 87);
place = (383, 87);
type = Stem;
},
{
place = (105, 89);
place = (105, 89);
type = Stem;
}
);
layerId = m01;
shapes = (
{
closed = 1;
nodes = (
(198,796,l),
(285,796,l),
(285,901,l),
(198,901,l)
);
},
{
closed = 1;
nodes = (
(383,796,l),
(470,796,l),
(470,901,l),
(383,901,l)
);
},
{
closed = 1;
nodes = (
(105,0,l),
(565,0,l),
(565,82,l),
(194,82,l),
(194,315,l),
(531,315,l),
(531,397,l),
(194,397,l),
(194,615,l),
(565,615,l),
(565,697,l),
(105,697,l)
);
}
);
width = 625;
}
);
note = Edieresis;
unicode = 203;
},
{
glyphname = Edotaccent;
kernLeft = B;
layers = (
{
hints = (
{
horizontal = 1;
place = (0, 82);
place = (0, 82);
type = Stem;
},
{
horizontal = 1;
place = (315, 82);
place = (315, 82);
type = Stem;
},
{
horizontal = 1;
place = (615, 82);
place = (615, 82);
type = Stem;
},
{
horizontal = 1;
place = (796, 105);
place = (796, 105);
type = Stem;
},
{
place = (105, 89);
place = (105, 89);
type = Stem;
},
{
place = (287, 96);
place = (287, 96);
type = Stem;
}
);
layerId = m01;
shapes = (
{
closed = 1;
nodes = (
(287,796,l),
(383,796,l),
(383,901,l),
(287,901,l)
);
},
{
closed = 1;
nodes = (
(105,0,l),
(565,0,l),
(565,82,l),
(194,82,l),
(194,315,l),
(531,315,l),
(531,397,l),
(194,397,l),
(194,615,l),
(565,615,l),
(565,697,l),
(105,697,l)
);
}
);
width = 625;
}
);
note = Edotaccent;
unicode = 278;
},
{
glyphname = uni1EB8;
kernLeft = B;
layers = (
{
hints = (
{
horizontal = 1;
place = (-173, 104);
place = (-173, 104);
type = Stem;
},
{
horizontal = 1;
place = (0, 82);
place = (0, 82);
type = Stem;
},
{
horizontal = 1;
place = (315, 82);
place = (315, 82);
type = Stem;
},
{
horizontal = 1;
place = (615, 82);
place = (615, 82);
type = Stem;
},
{
place = (105, 89);
place = (105, 89);
type = Stem;
},
{
place = (287, 96);
place = (287, 96);
type = Stem;
}
);
layerId = m01;
shapes = (
{
closed = 1;
nodes = (
(105,0,l),
(565,0,l),
(565,82,l),
(194,82,l),
(194,315,l),
(531,315,l),
(531,397,l),
(194,397,l),
(194,615,l),
(565,615,l),
(565,697,l),
(105,697,l)
);
},
{
closed = 1;
nodes = (
(287,-173,l),
(383,-173,l),
(383,-69,l),
(287,-69,l)
);
}
);
width = 625;
}
);
note = uni1EB8;
unicode = 7864;
},
{
glyphname = Egrave;
kernLeft = B;
layers = (
{
hints = (
{
horizontal = 1;
place = (0, 82);
place = (0, 82);
type = Stem;
},
{
horizontal = 1;
place = (315, 82);
place = (315, 82);
type = Stem;
},
{
horizontal = 1;
place = (615, 82);
place = (615, 82);
type = Stem;
},
{
horizontal = 1;
place = (760, 141);
place = (760, 141);
type = Stem;
},
{
place = (105, 89);
place = (105, 89);
type = Stem;
}
);
layerId = m01;
shapes = (
{
closed = 1;
nodes = (
(302,760,l),
(368,760,l),
(264,901,l),
(172,901,l)
);
},
{
closed = 1;
nodes = (
(105,0,l),
(565,0,l),
(565,82,l),
(194,82,l),
(194,315,l),
(531,315,l),
(531,397,l),
(194,397,l),
(194,615,l),
(565,615,l),
(565,697,l),
(105,697,l)
);
}
);
width = 625;
}
);
note = Egrave;
unicode = 200;
},
{
glyphname = uni1EBA;
kernLeft = B;
layers = (
{
hints = (
{
horizontal = 1;
place = (0, 82);
place = (0, 82);
type = Stem;
},
{
horizontal = 1;
place = (315, 82);
place = (315, 82);
type = Stem;
},
{
horizontal = 1;
place = (615, 82);
place = (615, 82);
type = Stem;
},
{
horizontal = 1;
place = (873, 49);
place = (873, 49);
type = Stem;
},
{
place = (105, 89);
place = (105, 89);
type = Stem;
},
{
place = (388, 57);
place = (388, 57);
type = Stem;
}
);
layerId = m01;
shapes = (
{
closed = 1;
nodes = (
(327,736,l),
(377,745,o),
(445,757,o),
(445,824,cs),
(445,888,o),
(385,922,o),
(302,922,cs),
(287,922,l),
(287,873,l),
(302,873,ls),
(345,873,o),
(388,863,o),
(388,825,cs),
(388,790,o),
(350,784,o),
(314,778,c)
);
},
{
closed = 1;
nodes = (
(105,0,l),
(565,0,l),
(565,82,l),
(194,82,l),
(194,315,l),
(531,315,l),
(531,397,l),
(194,397,l),
(194,615,l),
(565,615,l),
(565,697,l),
(105,697,l)
);
}
);
width = 625;
}
);
note = uni1EBA;
unicode = 7866;
},
{
glyphname = Emacron;
kernLeft = B;
layers = (
{
hints = (
{
horizontal = 1;
place = (0, 82);
place = (0, 82);
type = Stem;
},
{
horizontal = 1;
place = (315, 82);
place = (315, 82);
type = Stem;
},
{
horizontal = 1;
place = (615, 82);
place = (615, 82);
type = Stem;
},
{
horizontal = 1;
place = (792, 51);
place = (792, 51);
type = Stem;
},
{
place = (105, 89);
place = (105, 89);
type = Stem;
}
);
layerId = m01;
shapes = (
{
closed = 1;
nodes = (
(198,792,l),
(470,792,l),
(470,843,l),
(198,843,l)
);
},
{
closed = 1;
nodes = (
(105,0,l),
(565,0,l),
(565,82,l),
(194,82,l),
(194,315,l),
(531,315,l),
(531,397,l),
(194,397,l),
(194,615,l),
(565,615,l),
(565,697,l),
(105,697,l)
);
}
);
width = 625;
}
);
note = Emacron;
unicode = 274;
},
{
glyphname = Eogonek;
kernLeft = B;
layers = (
{
hints = (
{
horizontal = 1;
place = (-217, 55);
place = (-217, 55);
type = Stem;
},
{
horizontal = 1;
place = (0, 82);
place = (0, 82);
type = Stem;
},
{
horizontal = 1;
place = (315, 82);
place = (315, 82);
type = Stem;
},
{
horizontal = 1;
place = (615, 82);
place = (615, 82);
type = Stem;
},
{
place = (105, 89);
place = (105, 89);
type = Stem;
},
{
place = (411, 52);
place = (411, 52);
type = Stem;
}
);
layerId = m01;
shapes = (
{
closed = 1;
nodes = (
(564,-135,l),
(547,-152,o),
(529,-162,o),
(506,-162,cs),
(484,-162,o),
(463,-151,o),
(463,-119,cs),
(463,-55,o),
(538,-15,o),
(565,0,c),
(565,82,l),
(194,82,l),
(194,315,l),
(531,315,l),
(531,397,l),
(194,397,l),
(194,615,l),
(565,615,l),
(565,697,l),
(105,697,l),
(105,0,l),
(495,0,l),
(457,-23,o),
(411,-68,o),
(411,-127,cs),
(411,-182,o),
(453,-217,o),
(509,-217,cs),
(550,-217,o),
(583,-196,o),
(607,-167,c)
);
}
);
width = 625;
}
);
note = Eogonek;
unicode = 280;
},
{
glyphname = uni1EBC;
kernLeft = B;
layers = (
{
hints = (
{
horizontal = 1;
place = (0, 82);
place = (0, 82);
type = Stem;
},
{
horizontal = 1;
place = (315, 82);
place = (315, 82);
type = Stem;
},
{
horizontal = 1;
place = (615, 82);
place = (615, 82);
type = Stem;
},
{
horizontal = 1;
place = (769, 55);
place = (769, 55);
type = Stem;
},
{
horizontal = 1;
place = (851, 54);
place = (851, 54);
type = Stem;
},
{
place = (173, 50);
place = (173, 50);
type = Stem;
},
{
place = (443, 52);
place = (443, 52);
type = Stem;
},
{
place = (105, 89);
place = (105, 89);
type = Stem;
}
);
layerId = m01;
shapes = (
{
closed = 1;
nodes = (
(458,769,o),
(495,818,o),
(495,901,c),
(443,901,l),
(443,853,o),
(425,824,o),
(402,824,cs),
(354,824,o),
(343,905,o),
(270,905,cs),
(211,905,o),
(173,858,o),
(173,776,c),
(223,776,l),
(223,823,o),
(240,851,o),
(267,851,cs),
(315,851,o),
(320,769,o),
(402,769,cs)
);
},
{
closed = 1;
nodes = (
(105,0,l),
(565,0,l),
(565,82,l),
(194,82,l),
(194,315,l),
(531,315,l),
(531,397,l),
(194,397,l),
(194,615,l),
(565,615,l),
(565,697,l),
(105,697,l)
);
}
);
width = 625;
}
);
note = uni1EBC;
unicode = 7868;
},
{
glyphname = F;
kernLeft = B;
kernRight = F;
lastChange = "2022-12-26 06:05:56 +0000";
layers = (
{
hints = (
{
horizontal = 1;
place = (0, 21);
target = up;
type = BottomGhost;
},
{
horizontal = 1;
place = (315, 82);
place = (315, 82);
type = Stem;
},
{
horizontal = 1;
place = (615, 82);
place = (615, 82);
type = Stem;
},
{
place = (105, 89);
place = (105, 89);
type = Stem;
}
);
layerId = m01;
shapes = (
{
closed = 1;
nodes = (
(570,615,ls),
(580,615,o),
(585,620,o),
(585,630,cs),
(585,697,l),
(105,697,l),
(105,0,l),
(150,0,l),
(194,55,l),
(194,315,l),
(537,315,l),
(537,397,l),
(194,397,l),
(194,615,l)
);
}
);
width = 620;
}
);
note = F;
unicode = 70;
},
{
glyphname = G;
kernLeft = C;
kernRight = G;
lastChange = "2022-12-26 06:06:06 +0000";
layers = (
{
hints = (
{
horizontal = 1;
place = (-12, 85);
place = (-12, 85);
type = Stem;
},
{
horizontal = 1;
place = (289, 77);
place = (289, 77);
type = Stem;
},
{
horizontal = 1;
place = (624, 85);
place = (624, 85);
type = Stem;
},
{
place = (58, 89);
place = (58, 89);
type = Stem;
},
{
place = (596, 86);
place = (596, 86);
type = Stem;
},
{
horizontal = 1;
place = (0, 21);
target = up;
type = BottomGhost;
}
);
layerId = m01;
shapes = (
{
closed = 1;
nodes = (
(447,366,ls),
(437,366,o),
(432,361,o),
(432,351,cs),
(432,289,l),
(596,289,l),
(596,271,ls),
(596,134,o),
(504,73,o),
(387,73,cs),
(224,73,o),
(147,189,o),
(147,352,cs),
(147,518,o),
(229,624,o),
(385,624,cs),
(494,624,o),
(564,574,o),
(597,482,c),
(666,509,ls),
(675,513,o),
(678,519,o),
(674,528,cs),
(624,643,o),
(526,709,o),
(386,709,cs),
(174,709,o),
(58,557,o),
(58,350,cs),
(58,138,o),
(180,-12,o),
(381,-12,cs),
(481,-12,o),
(562,26,o),
(602,95,c),
(614,0,l),
(650,0,l),
(682,50,l),
(682,366,l)
);
}
);
width = 762;
}
);
note = G;
unicode = 71;
},
{
glyphname = Gbreve;
kernLeft = C;
kernRight = G;
layers = (
{
hints = (
{
horizontal = 1;
place = (-12, 85);
place = (-12, 85);
type = Stem;
},
{
horizontal = 1;
place = (289, 77);
place = (289, 77);
type = Stem;
},
{
horizontal = 1;
place = (624, 85);
place = (624, 85);
type = Stem;
},
{
horizontal = 1;
place = (769, 52);
place = (769, 52);
type = Stem;
},
{
place = (58, 89);
place = (58, 89);
type = Stem;
},
{
place = (229, 62);
place = (229, 62);
type = Stem;
},
{
place = (473, 62);
place = (473, 62);
type = Stem;
},
{
place = (596, 86);
place = (596, 86);
type = Stem;
},
{
horizontal = 1;
place = (0, 21);
target = up;
type = BottomGhost;
}
);
layerId = m01;
shapes = (
{
closed = 1;
nodes = (
(481,769,o),
(535,813,o),
(535,901,c),
(473,901,l),
(473,849,o),
(438,821,o),
(382,821,cs),
(328,821,o),
(291,847,o),
(291,901,c),
(229,901,l),
(229,816,o),
(279,769,o),
(382,769,cs)
);
},
{
closed = 1;
nodes = (
(432,366,l),
(432,289,l),
(596,289,l),
(596,271,ls),
(596,134,o),
(504,73,o),
(387,73,cs),
(224,73,o),
(147,189,o),
(147,352,cs),
(147,518,o),
(229,624,o),
(385,624,cs),
(494,624,o),
(564,574,o),
(597,482,c),
(680,514,l),
(632,638,o),
(531,709,o),
(386,709,cs),
(174,709,o),
(58,557,o),
(58,350,cs),
(58,138,o),
(180,-12,o),
(381,-12,cs),
(481,-12,o),
(562,26,o),
(602,95,c),
(614,0,l),
(682,0,l),
(682,366,l)
);
}
);
width = 762;
}
);
note = Gbreve;
unicode = 286;
},
{
glyphname = uni0122;
kernLeft = C;
kernRight = G;
layers = (
{
hints = (
{
horizontal = 1;
place = (-12, 85);
place = (-12, 85);
type = Stem;
},
{
horizontal = 1;
place = (289, 77);
place = (289, 77);
type = Stem;
},
{
horizontal = 1;
place = (624, 85);
place = (624, 85);
type = Stem;
},
{
place = (58, 89);
place = (58, 89);
type = Stem;
},
{
place = (596, 86);
place = (596, 86);
type = Stem;
},
{
horizontal = 1;
place = (-223, 168);
place = (-223, 168);
type = Stem;
},
{
horizontal = 1;
place = (0, 21);
target = up;
type = BottomGhost;
}
);
layerId = m01;
shapes = (
{
closed = 1;
nodes = (
(432,366,l),
(432,289,l),
(596,289,l),
(596,271,ls),
(596,134,o),
(504,73,o),
(387,73,cs),
(224,73,o),
(147,189,o),
(147,352,cs),
(147,518,o),
(229,624,o),
(385,624,cs),
(494,624,o),
(564,574,o),
(597,482,c),
(680,514,l),
(632,638,o),
(531,709,o),
(386,709,cs),
(174,709,o),
(58,557,o),
(58,350,cs),
(58,138,o),
(180,-12,o),
(381,-12,cs),
(481,-12,o),
(562,26,o),
(602,95,c),
(614,0,l),
(682,0,l),
(682,366,l)
);
},
{
closed = 1;
nodes = (
(255,-223,l),
(308,-223,l),
(427,-55,l),
(336,-55,l)
);
}
);
width = 762;
}
);
note = uni0122;
unicode = 290;
},
{
glyphname = Gdotaccent;
kernLeft = C;
kernRight = G;
layers = (
{
hints = (
{
horizontal = 1;
place = (-12, 85);
place = (-12, 85);
type = Stem;
},
{
horizontal = 1;
place = (289, 77);
place = (289, 77);
type = Stem;
},
{
horizontal = 1;
place = (624, 85);
place = (624, 85);
type = Stem;
},
{
horizontal = 1;
place = (796, 105);
place = (796, 105);
type = Stem;
},
{
place = (58, 89);
place = (58, 89);
type = Stem;
},
{
place = (334, 96);
place = (334, 96);
type = Stem;
},
{
place = (596, 86);
place = (596, 86);
type = Stem;
},
{
horizontal = 1;
place = (0, 21);
target = up;
type = BottomGhost;
}
);
layerId = m01;
shapes = (
{
closed = 1;
nodes = (
(430,901,l),
(334,901,l),
(334,796,l),
(430,796,l)
);
},
{
closed = 1;
nodes = (
(432,366,l),
(432,289,l),
(596,289,l),
(596,271,ls),
(596,134,o),
(504,73,o),
(387,73,cs),
(224,73,o),
(147,189,o),
(147,352,cs),
(147,518,o),
(229,624,o),
(385,624,cs),
(494,624,o),
(564,574,o),
(597,482,c),
(680,514,l),
(632,638,o),
(531,709,o),
(386,709,cs),
(174,709,o),
(58,557,o),
(58,350,cs),
(58,138,o),
(180,-12,o),
(381,-12,cs),
(481,-12,o),
(562,26,o),
(602,95,c),
(614,0,l),
(682,0,l),
(682,366,l)
);
}
);
width = 762;
}
);
note = Gdotaccent;
unicode = 288;
},
{
glyphname = H;
kernLeft = B;
kernRight = H;
layers = (
{
hints = (
{
horizontal = 1;
place = (0, 21);
target = up;
type = BottomGhost;
},
{
horizontal = 1;
place = (315, 83);
place = (315, 83);
type = Stem;
},
{
horizontal = 1;
place = (697, -20);
target = down;
type = TopGhost;
},
{
place = (105, 89);
place = (105, 89);
type = Stem;
},
{
place = (537, 90);
place = (537, 90);
type = Stem;
}
);
layerId = m01;
shapes = (
{
closed = 1;
nodes = (
(105,0,l),
(194,0,l),
(194,315,l),
(537,315,l),
(537,0,l),
(627,0,l),
(627,697,l),
(537,697,l),
(537,398,l),
(194,398,l),
(194,697,l),
(105,697,l)
);
}
);
width = 732;
}
);
note = H;
unicode = 72;
},
{
glyphname = Hbar;
kernLeft = B;
kernRight = H;
layers = (
{
hints = (
{
horizontal = 1;
place = (0, 21);
target = up;
type = BottomGhost;
},
{
horizontal = 1;
place = (315, 83);
place = (315, 83);
type = Stem;
},
{
horizontal = 1;
place = (521, 52);
place = (521, 52);
type = Stem;
},
{
place = (105, 89);
place = (105, 89);
type = Stem;
},
{
place = (537, 90);
place = (537, 90);
type = Stem;
},
{
horizontal = 1;
place = (521, 176);
place = (521, 176);
type = Stem;
}
);
layerId = m01;
shapes = (
{
closed = 1;
nodes = (
(687,573,l),
(627,573,l),
(627,697,l),
(537,697,l),
(537,573,l),
(194,573,l),
(194,697,l),
(105,697,l),
(105,573,l),
(45,573,l),
(45,521,l),
(105,521,l),
(105,0,l),
(194,0,l),
(194,315,l),
(537,315,l),
(537,0,l),
(627,0,l),
(627,521,l),
(687,521,l)
);
},
{
closed = 1;
nodes = (
(537,398,l),
(194,398,l),
(194,521,l),
(537,521,l)
);
}
);
width = 732;
}
);
note = Hbar;
unicode = 294;
},
{
glyphname = I;
kernLeft = B;
kernRight = H;
layers = (
{
hints = (
{
horizontal = 1;
place = (0, 21);
target = up;
type = BottomGhost;
},
{
horizontal = 1;
place = (697, -20);
target = down;
type = TopGhost;
},
{
place = (105, 89);
place = (105, 89);
type = Stem;
}
);
layerId = m01;
shapes = (
{
closed = 1;
nodes = (
(105,0,l),
(194,0,l),
(194,697,l),
(105,697,l)
);
}
);
width = 300;
}
);
note = I;
unicode = 73;
},
{
glyphname = Iacute;
kernLeft = B;
kernRight = H;
layers = (
{
hints = (
{
horizontal = 1;
place = (0, 21);
target = up;
type = BottomGhost;
},
{
horizontal = 1;
place = (697, -20);
target = down;
type = TopGhost;
},
{
horizontal = 1;
place = (760, 141);
place = (760, 141);
type = Stem;
},
{
place = (105, 89);
place = (105, 89);
type = Stem;
}
);
layerId = m01;
shapes = (
{
closed = 1;
nodes = (
(119,760,l),
(183,760,l),
(320,901,l),
(228,901,l)
);
},
{
closed = 1;
nodes = (
(105,0,l),
(194,0,l),
(194,697,l),
(105,697,l)
);
}
);
width = 300;
}
);
note = Iacute;
unicode = 205;
},
{
glyphname = uni01CF;
layers = (
{
hints = (
{
horizontal = 1;
place = (0, 21);
target = up;
type = BottomGhost;
},
{
horizontal = 1;
place = (697, -20);
target = down;
type = TopGhost;
},
{
place = (105, 89);
place = (105, 89);
type = Stem;
}
);
layerId = m01;
shapes = (
{
closed = 1;
nodes = (
(150,744,l),
(301,901,l),
(232,901,l),
(150,815,l),
(68,901,l),
(-1,901,l)
);
},
{
closed = 1;
nodes = (
(105,0,l),
(194,0,l),
(194,697,l),
(105,697,l)
);
}
);
width = 300;
}
);
note = uni01CF;
unicode = 463;
},
{
glyphname = Icircumflex;
kernLeft = B;
kernRight = H;
layers = (
{
hints = (
{
horizontal = 1;
place = (0, 21);
target = up;
type = BottomGhost;
},
{
horizontal = 1;
place = (697, -20);
target = down;
type = TopGhost;
},
{
place = (105, 89);
place = (105, 89);
type = Stem;
}
);
layerId = m01;
shapes = (
{
closed = 1;
nodes = (
(-1,750,l),
(68,750,l),
(150,839,l),
(232,750,l),
(301,750,l),
(150,914,l)
);
},
{
closed = 1;
nodes = (
(105,0,l),
(194,0,l),
(194,697,l),
(105,697,l)
);
}
);
width = 300;
}
);
note = Icircumflex;
unicode = 206;
},
{
glyphname = Idieresis;
kernLeft = B;
kernRight = H;
layers = (
{
hints = (
{
horizontal = 1;
place = (0, 21);
target = up;
type = BottomGhost;
},
{
horizontal = 1;
place = (697, -20);
target = down;
type = TopGhost;
},
{
horizontal = 1;
place = (796, 105);
place = (796, 105);
type = Stem;
},
{
place = (14, 87);
place = (14, 87);
type = Stem;
},
{
place = (199, 87);
place = (199, 87);
type = Stem;
},
{
place = (105, 89);
place = (105, 89);
type = Stem;
}
);
layerId = m01;
shapes = (
{
closed = 1;
nodes = (
(14,796,l),
(101,796,l),
(101,901,l),
(14,901,l)
);
},
{
closed = 1;
nodes = (
(199,796,l),
(286,796,l),
(286,901,l),
(199,901,l)
);
},
{
closed = 1;
nodes = (
(105,0,l),
(194,0,l),
(194,697,l),
(105,697,l)
);
}
);
width = 300;
}
);
note = Idieresis;
unicode = 207;
},
{
glyphname = Idotaccent;
kernLeft = B;
kernRight = H;
layers = (
{
hints = (
{
horizontal = 1;
place = (0, 21);
target = up;
type = BottomGhost;
},
{
horizontal = 1;
place = (697, -20);
target = down;
type = TopGhost;
},
{
horizontal = 1;
place = (796, 105);
place = (796, 105);
type = Stem;
},
{
place = (102, 96);
place = (102, 96);
type = Stem;
},
{
place = (105, 89);
place = (105, 89);
type = Stem;
}
);
layerId = m01;
shapes = (
{
closed = 1;
nodes = (
(102,796,l),
(198,796,l),
(198,901,l),
(102,901,l)
);
},
{
closed = 1;
nodes = (
(105,0,l),
(194,0,l),
(194,697,l),
(105,697,l)
);
}
);
width = 300;
}
);
note = Idotaccent;
unicode = 304;
},
{
glyphname = uni1ECA;
layers = (
{
hints = (
{
horizontal = 1;
place = (-173, 104);
place = (-173, 104);
type = Stem;
},
{
horizontal = 1;
place = (0, 21);
target = up;
type = BottomGhost;
},
{
horizontal = 1;
place = (697, -20);
target = down;
type = TopGhost;
},
{
place = (105, 89);
place = (105, 89);
type = Stem;
},
{
place = (102, 92);
place = (102, 92);
type = Stem;
},
{
place = (105, 93);
place = (105, 93);
type = Stem;
}
);
layerId = m01;
shapes = (
{
closed = 1;
nodes = (
(105,0,l),
(194,0,l),
(194,697,l),
(105,697,l)
);
},
{
closed = 1;
nodes = (
(102,-173,l),
(198,-173,l),
(198,-69,l),
(102,-69,l)
);
}
);
width = 300;
}
);
note = uni1ECA;
unicode = 7882;
},
{
glyphname = Igrave;
kernLeft = B;
kernRight = H;
layers = (
{
hints = (
{
horizontal = 1;
place = (0, 21);
target = up;
type = BottomGhost;
},
{
horizontal = 1;
place = (697, -20);
target = down;
type = TopGhost;
},
{
horizontal = 1;
place = (760, 141);
place = (760, 141);
type = Stem;
},
{
place = (105, 89);
place = (105, 89);
type = Stem;
}
);
layerId = m01;
shapes = (
{
closed = 1;
nodes = (
(117,760,l),
(183,760,l),
(79,901,l),
(-13,901,l)
);
},
{
closed = 1;
nodes = (
(105,0,l),
(194,0,l),
(194,697,l),
(105,697,l)
);
}
);
width = 300;
}
);
note = Igrave;
unicode = 204;
},
{
glyphname = uni1EC8;
layers = (
{
hints = (
{
horizontal = 1;
place = (0, 21);
target = up;
type = BottomGhost;
},
{
horizontal = 1;
place = (697, -20);
target = down;
type = TopGhost;
},
{
horizontal = 1;
place = (873, 49);
place = (873, 49);
type = Stem;
},
{
place = (105, 89);
place = (105, 89);
type = Stem;
},
{
place = (204, 57);
place = (204, 57);
type = Stem;
}
);
layerId = m01;
shapes = (
{
closed = 1;
nodes = (
(143,736,l),
(193,745,o),
(261,757,o),
(261,824,cs),
(261,888,o),
(201,922,o),
(118,922,cs),
(103,922,l),
(103,873,l),
(118,873,ls),
(161,873,o),
(204,863,o),
(204,825,cs),
(204,790,o),
(166,784,o),
(130,778,c)
);
},
{
closed = 1;
nodes = (
(105,0,l),
(194,0,l),
(194,697,l),
(105,697,l)
);
}
);
width = 300;
}
);
note = uni1EC8;
unicode = 7880;
},
{
glyphname = Imacron;
kernLeft = B;
kernRight = H;
layers = (
{
hints = (
{
horizontal = 1;
place = (0, 21);
target = up;
type = BottomGhost;
},
{
horizontal = 1;
place = (697, -20);
target = down;
type = TopGhost;
},
{
horizontal = 1;
place = (792, 51);
place = (792, 51);
type = Stem;
},
{
place = (105, 89);
place = (105, 89);
type = Stem;
}
);
layerId = m01;
shapes = (
{
closed = 1;
nodes = (
(14,792,l),
(286,792,l),
(286,843,l),
(14,843,l)
);
},
{
closed = 1;
nodes = (
(105,0,l),
(194,0,l),
(194,697,l),
(105,697,l)
);
}
);
width = 300;
}
);
note = Imacron;
unicode = 298;
},
{
glyphname = Iogonek;
kernLeft = B;
kernRight = H;
layers = (
{
hints = (
{
horizontal = 1;
place = (-217, 55);
place = (-217, 55);
type = Stem;
},
{
horizontal = 1;
place = (0, 21);
target = up;
type = BottomGhost;
},
{
horizontal = 1;
place = (697, -20);
target = down;
type = TopGhost;
},
{
place = (105, 89);
place = (105, 89);
type = Stem;
},
{
place = (40, 52);
place = (40, 52);
type = Stem;
}
);
layerId = m01;
shapes = (
{
closed = 1;
nodes = (
(193,-135,l),
(176,-152,o),
(158,-162,o),
(135,-162,cs),
(113,-162,o),
(92,-151,o),
(92,-119,cs),
(92,-55,o),
(167,-15,o),
(194,0,c),
(194,697,l),
(105,697,l),
(105,0,l),
(124,0,l),
(86,-23,o),
(40,-68,o),
(40,-127,cs),
(40,-182,o),
(82,-217,o),
(138,-217,cs),
(179,-217,o),
(212,-196,o),
(236,-167,c)
);
}
);
width = 300;
}
);
note = Iogonek;
unicode = 302;
},
{
glyphname = Itilde;
layers = (
{
hints = (
{
horizontal = 1;
place = (0, 21);
target = up;
type = BottomGhost;
},
{
horizontal = 1;
place = (697, -20);
target = down;
type = TopGhost;
},
{
horizontal = 1;
place = (769, 55);
place = (769, 55);
type = Stem;
},
{
horizontal = 1;
place = (851, 54);
place = (851, 54);
type = Stem;
},
{
place = (-11, 50);
place = (-11, 50);
type = Stem;
},
{
place = (105, 89);
place = (105, 89);
type = Stem;
},
{
place = (259, 52);
place = (259, 52);
type = Stem;
}
);
layerId = m01;
shapes = (
{
closed = 1;
nodes = (
(274,769,o),
(311,818,o),
(311,901,c),
(259,901,l),
(259,853,o),
(241,824,o),
(218,824,cs),
(170,824,o),
(159,905,o),
(86,905,cs),
(27,905,o),
(-11,858,o),
(-11,776,c),
(39,776,l),
(39,823,o),
(56,851,o),
(83,851,cs),
(131,851,o),
(136,769,o),
(218,769,cs)
);
},
{
closed = 1;
nodes = (
(105,0,l),
(194,0,l),
(194,697,l),
(105,697,l)
);
}
);
width = 300;
}
);
note = Itilde;
unicode = 296;
},
{
glyphname = J;
kernLeft = J;
kernRight = J;
lastChange = "2022-12-26 06:06:24 +0000";
layers = (
{
hints = (
{
horizontal = 1;
place = (-12, 84);
place = (-12, 84);
type = Stem;
},
{
horizontal = 1;
place = (615, 82);
place = (615, 82);
type = Stem;
},
{
place = (31, 88);
place = (31, 88);
type = Stem;
},
{
place = (395, 89);
place = (395, 89);
type = Stem;
}
);
layerId = m01;
shapes = (
{
closed = 1;
nodes = (
(46,210,ls),
(36,209,o),
(31,203,o),
(32,193,cs),
(47,64,o),
(132,-12,o),
(259,-12,cs),
(400,-12,o),
(484,82,o),
(484,247,cs),
(484,697,l),
(159,697,l),
(119,656,l),
(119,615,l),
(395,615,l),
(395,252,ls),
(395,130,o),
(350,72,o),
(259,72,cs),
(174,72,o),
(126,122,o),
(119,218,c)
);
}
);
width = 576;
}
);
note = J;
unicode = 74;
},
{
glyphname = K;
kernLeft = B;
kernRight = K;
lastChange = "2022-12-26 06:07:01 +0000";
layers = (
{
hints = (
{
horizontal = 1;
place = (0, 21);
target = up;
type = BottomGhost;
},
{
horizontal = 1;
place = (697, -20);
target = down;
type = TopGhost;
},
{
place = (105, 89);
place = (105, 89);
type = Stem;
}
);
layerId = m01;
shapes = (
{
closed = 1;
nodes = (
(624,0,ls),
(634,0,o),
(636,4,o),
(631,13,cs),
(392,410,l),
(670,697,l),
(553,697,l),
(194,324,l),
(194,697,l),
(155,697,l),
(105,647,l),
(105,0,l),
(194,0,l),
(194,211,l),
(331,349,l),
(536,0,l)
);
}
);
width = 709;
}
);
note = K;
unicode = 75;
},
{
glyphname = uni0136;
kernLeft = B;
kernRight = K;
layers = (
{
hints = (
{
horizontal = 1;
place = (-223, 168);
place = (-223, 168);
type = Stem;
},
{
horizontal = 1;
place = (0, 21);
target = up;
type = BottomGhost;
},
{
horizontal = 1;
place = (697, -20);
target = down;
type = TopGhost;
},
{
place = (105, 89);
place = (105, 89);
type = Stem;
}
);
layerId = m01;
shapes = (
{
closed = 1;
nodes = (
(418,439,l),
(670,697,l),
(553,697,l),
(194,324,l),
(194,697,l),
(105,697,l),
(105,0,l),
(194,0,l),
(194,211,l),
(357,378,l),
(579,0,l),
(682,0,l)
);
},
{
closed = 1;
nodes = (
(228,-223,l),
(281,-223,l),
(400,-55,l),
(309,-55,l)
);
}
);
width = 709;
}
);
note = uni0136;
unicode = 310;
},
{
glyphname = L;
kernLeft = B;
kernRight = L;
layers = (
{
hints = (
{
horizontal = 1;
place = (0, 82);
place = (0, 82);
type = Stem;
},
{
horizontal = 1;
place = (697, -20);
target = down;
type = TopGhost;
},
{
place = (105, 89);
place = (105, 89);
type = Stem;
}
);
layerId = m01;
shapes = (
{
closed = 1;
nodes = (
(105,0,l),
(506,0,l),
(506,82,l),
(194,82,l),
(194,697,l),
(105,697,l)
);
}
);
width = 531;
}
);
note = L;
unicode = 76;
},
{
glyphname = Lacute;
kernLeft = B;
kernRight = L;
layers = (
{
hints = (
{
horizontal = 1;
place = (0, 82);
place = (0, 82);
type = Stem;
},
{
horizontal = 1;
place = (697, -20);
target = down;
type = TopGhost;
},
{
horizontal = 1;
place = (760, 141);
place = (760, 141);
type = Stem;
},
{
place = (105, 89);
place = (105, 89);
type = Stem;
}
);
layerId = m01;
shapes = (
{
closed = 1;
nodes = (
(119,760,l),
(183,760,l),
(320,901,l),
(228,901,l)
);
},
{
closed = 1;
nodes = (
(105,0,l),
(506,0,l),
(506,82,l),
(194,82,l),
(194,697,l),
(105,697,l)
);
}
);
width = 531;
}
);
note = Lacute;
unicode = 313;
},
{
glyphname = Lcaron;
kernLeft = B;
kernRight = L;
layers = (
{
hints = (
{
horizontal = 1;
place = (0, 82);
place = (0, 82);
type = Stem;
},
{
horizontal = 1;
place = (697, -20);
target = down;
type = TopGhost;
},
{
place = (105, 89);
place = (105, 89);
type = Stem;
},
{
horizontal = 1;
place = (484, 213);
place = (484, 213);
type = Stem;
}
);
layerId = m01;
shapes = (
{
closed = 1;
nodes = (
(105,0,l),
(506,0,l),
(506,82,l),
(194,82,l),
(194,697,l),
(105,697,l)
);
},
{
closed = 1;
nodes = (
(338,484,l),
(389,484,l),
(485,697,l),
(395,697,l)
);
}
);
width = 531;
}
);
note = Lcaron;
unicode = 317;
},
{
glyphname = uni013B;
kernLeft = B;
kernRight = L;
layers = (
{
hints = (
{
horizontal = 1;
place = (-223, 168);
place = (-223, 168);
type = Stem;
},
{
horizontal = 1;
place = (0, 82);
place = (0, 82);
type = Stem;
},
{
horizontal = 1;
place = (697, -20);
target = down;
type = TopGhost;
},
{
place = (105, 89);
place = (105, 89);
type = Stem;
}
);
layerId = m01;
shapes = (
{
closed = 1;
nodes = (
(105,0,l),
(506,0,l),
(506,82,l),
(194,82,l),
(194,697,l),
(105,697,l)
);
},
{
closed = 1;
nodes = (
(179,-223,l),
(232,-223,l),
(351,-55,l),
(260,-55,l)
);
}
);
width = 531;
}
);
note = uni013B;
unicode = 315;
},
{
glyphname = Lslash;
layers = (
{
hints = (
{
horizontal = 1;
place = (0, 82);
place = (0, 82);
type = Stem;
},
{
horizontal = 1;
place = (697, -20);
target = down;
type = TopGhost;
},
{
place = (105, 89);
place = (105, 89);
type = Stem;
}
);
layerId = m01;
shapes = (
{
closed = 1;
nodes = (
(194,82,l),
(194,305,l),
(344,424,l),
(344,512,l),
(194,394,l),
(194,697,l),
(105,697,l),
(105,323,l),
(50,280,l),
(50,191,l),
(105,235,l),
(105,0,l),
(506,0,l),
(506,82,l)
);
}
);
width = 531;
}
);
note = Lslash;
unicode = 321;
},
{
glyphname = M;
kernLeft = B;
kernRight = H;
lastChange = "2022-12-26 06:07:39 +0000";
layers = (
{
hints = (
{
horizontal = 1;
place = (0, 21);
target = up;
type = BottomGhost;
},
{
horizontal = 1;
place = (697, -20);
target = down;
type = TopGhost;
},
{
place = (105, 89);
place = (105, 89);
type = Stem;
},
{
place = (697, 90);
place = (697, 90);
type = Stem;
},
{
horizontal = 1;
place = (578, 119);
place = (578, 119);
type = Stem;
},
{
horizontal = 1;
place = (576, 121);
place = (576, 121);
type = Stem;
}
);
layerId = m01;
shapes = (
{
closed = 1;
nodes = (
(179,0,ls),
(189,0,o),
(194,5,o),
(194,15,cs),
(194,578,l),
(403,59,l),
(490,59,l),
(697,576,l),
(697,15,ls),
(697,5,o),
(702,0,o),
(712,0,cs),
(787,0,l),
(787,697,l),
(658,697,l),
(446,161,l),
(234,697,l),
(105,697,l),
(105,0,l)
);
}
);
width = 892;
}
);
note = M;
unicode = 77;
},
{
glyphname = N;
kernLeft = B;
kernRight = H;
lastChange = "2022-12-26 06:07:50 +0000";
layers = (
{
hints = (
{
horizontal = 1;
place = (0, 21);
target = up;
type = BottomGhost;
},
{
horizontal = 1;
place = (697, -20);
target = down;
type = TopGhost;
},
{
place = (105, 89);
place = (105, 89);
type = Stem;
},
{
place = (527, 89);
place = (527, 89);
type = Stem;
}
);
layerId = m01;
shapes = (
{
closed = 1;
nodes = (
(527,697,l),
(527,154,l),
(200,697,l),
(105,697,l),
(105,0,l),
(150,0,l),
(194,50,l),
(194,545,l),
(520,0,l),
(616,0,l),
(616,697,l)
);
}
);
width = 721;
}
);
note = N;
unicode = 78;
},
{
glyphname = Nacute;
kernLeft = B;
kernRight = H;
layers = (
{
hints = (
{
horizontal = 1;
place = (0, 21);
target = up;
type = BottomGhost;
},
{
horizontal = 1;
place = (697, -20);
target = down;
type = TopGhost;
},
{
horizontal = 1;
place = (760, 141);
place = (760, 141);
type = Stem;
},
{
place = (105, 89);
place = (105, 89);
type = Stem;
},
{
place = (527, 89);
place = (527, 89);
type = Stem;
}
);
layerId = m01;
shapes = (
{
closed = 1;
nodes = (
(530,901,l),
(438,901,l),
(329,760,l),
(393,760,l)
);
},
{
closed = 1;
nodes = (
(527,697,l),
(527,154,l),
(200,697,l),
(105,697,l),
(105,0,l),
(194,0,l),
(194,545,l),
(520,0,l),
(616,0,l),
(616,697,l)
);
}
);
width = 721;
}
);
note = Nacute;
unicode = 323;
},
{
glyphname = Ncaron;
kernLeft = B;
kernRight = H;
layers = (
{
hints = (
{
horizontal = 1;
place = (0, 21);
target = up;
type = BottomGhost;
},
{
horizontal = 1;
place = (697, -20);
target = down;
type = TopGhost;
},
{
place = (105, 89);
place = (105, 89);
type = Stem;
},
{
place = (527, 89);
place = (527, 89);
type = Stem;
}
);
layerId = m01;
shapes = (
{
closed = 1;
nodes = (
(512,901,l),
(443,901,l),
(361,815,l),
(279,901,l),
(210,901,l),
(361,744,l)
);
},
{
closed = 1;
nodes = (
(527,697,l),
(527,154,l),
(200,697,l),
(105,697,l),
(105,0,l),
(194,0,l),
(194,545,l),
(520,0,l),
(616,0,l),
(616,697,l)
);
}
);
width = 721;
}
);
note = Ncaron;
unicode = 327;
},
{
glyphname = uni0145;
kernLeft = B;
kernRight = H;
layers = (
{
hints = (
{
horizontal = 1;
place = (-223, 168);
place = (-223, 168);
type = Stem;
},
{
horizontal = 1;
place = (0, 21);
target = up;
type = BottomGhost;
},
{
horizontal = 1;
place = (697, -20);
target = down;
type = TopGhost;
},
{
place = (105, 89);
place = (105, 89);
type = Stem;
},
{
place = (527, 89);
place = (527, 89);
type = Stem;
}
);
layerId = m01;
shapes = (
{
closed = 1;
nodes = (
(527,697,l),
(527,154,l),
(200,697,l),
(105,697,l),
(105,0,l),
(194,0,l),
(194,545,l),
(520,0,l),
(616,0,l),
(616,697,l)
);
},
{
closed = 1;
nodes = (
(234,-223,l),
(287,-223,l),
(406,-55,l),
(315,-55,l)
);
}
);
width = 721;
}
);
note = uni0145;
unicode = 325;
},
{
glyphname = Eng;
kernLeft = B;
kernRight = H;
layers = (
{
hints = (
{
horizontal = 1;
place = (-175, 60);
place = (-175, 60);
type = Stem;
},
{
horizontal = 1;
place = (0, 21);
target = up;
type = BottomGhost;
},
{
horizontal = 1;
place = (697, -20);
target = down;
type = TopGhost;
},
{
place = (105, 89);
place = (105, 89);
type = Stem;
},
{
place = (527, 89);
place = (527, 89);
type = Stem;
},
{
place = (531, 85);
place = (531, 85);
type = Stem;
}
);
layerId = m01;
shapes = (
{
closed = 1;
nodes = (
(527,697,l),
(527,156,l),
(200,697,l),
(105,697,l),
(105,0,l),
(194,0,l),
(194,542,l),
(520,0,ls),
(527,-11,o),
(531,-25,o),
(531,-37,cs),
(531,-78,o),
(504,-115,o),
(439,-115,cs),
(427,-115,o),
(408,-112,o),
(392,-108,c),
(391,-165,l),
(415,-172,o),
(441,-175,o),
(461,-175,cs),
(574,-175,o),
(616,-98,o),
(616,-9,cs),
(616,697,l)
);
}
);
width = 721;
}
);
note = Eng;
unicode = 330;
},
{
glyphname = Ntilde;
kernLeft = B;
kernRight = H;
layers = (
{
hints = (
{
horizontal = 1;
place = (0, 21);
target = up;
type = BottomGhost;
},
{
horizontal = 1;
place = (697, -20);
target = down;
type = TopGhost;
},
{
horizontal = 1;
place = (851, 54);
place = (851, 54);
type = Stem;
},
{
place = (199, 50);
place = (199, 50);
type = Stem;
},
{
place = (469, 52);
place = (469, 52);
type = Stem;
},
{
horizontal = 1;
place = (769, 55);
place = (769, 55);
type = Stem;
},
{
place = (527, 89);
place = (527, 89);
type = Stem;
},
{
place = (105, 89);
place = (105, 89);
type = Stem;
}
);
layerId = m01;
shapes = (
{
closed = 1;
nodes = (
(341,851,o),
(346,769,o),
(428,769,cs),
(484,769,o),
(521,818,o),
(521,901,c),
(469,901,l),
(469,853,o),
(451,824,o),
(428,824,cs),
(380,824,o),
(369,905,o),
(296,905,cs),
(237,905,o),
(199,858,o),
(199,776,c),
(249,776,l),
(249,823,o),
(266,851,o),
(293,851,cs)
);
},
{
closed = 1;
nodes = (
(527,697,l),
(527,154,l),
(200,697,l),
(105,697,l),
(105,0,l),
(194,0,l),
(194,545,l),
(520,0,l),
(616,0,l),
(616,697,l)
);
}
);
width = 721;
}
);
note = Ntilde;
unicode = 209;
},
{
glyphname = O;
kernLeft = C;
kernRight = D;
lastChange = "2022-12-26 06:08:09 +0000";
layers = (
{
hints = (
{
horizontal = 1;
place = (-12, 85);
place = (-12, 85);
type = Stem;
},
{
horizontal = 1;
place = (624, 85);
place = (624, 85);
type = Stem;
},
{
place = (58, 89);
place = (58, 89);
type = Stem;
},
{
place = (616, 89);
place = (616, 89);
type = Stem;
}
);
layerId = m01;
shapes = (
{
closed = 1;
nodes = (
(575,-12,o),
(705,132,o),
(705,348,cs),
(705,565,o),
(575,709,o),
(381,709,cs),
(188,709,o),
(58,565,o),
(58,348,cs),
(58,132,o),
(188,-12,o),
(381,-12,cs)
);
},
{
closed = 1;
nodes = (
(238,54,o),
(147,180,o),
(147,348,cs),
(147,517,o),
(238,641,o),
(381,641,cs),
(524,641,o),
(616,517,o),
(616,348,cs),
(616,180,o),
(524,54,o),
(381,54,cs)
);
}
);
width = 763;
}
);
note = O;
unicode = 79;
},
{
glyphname = Oacute;
kernLeft = C;
kernRight = D;
layers = (
{
hints = (
{
horizontal = 1;
place = (-12, 85);
place = (-12, 85);
type = Stem;
},
{
horizontal = 1;
place = (624, 85);
place = (624, 85);
type = Stem;
},
{
horizontal = 1;
place = (760, 141);
place = (760, 141);
type = Stem;
},
{
place = (58, 89);
place = (58, 89);
type = Stem;
},
{
place = (616, 89);
place = (616, 89);
type = Stem;
}
);
layerId = m01;
shapes = (
{
closed = 1;
nodes = (
(350,760,l),
(414,760,l),
(551,901,l),
(459,901,l)
);
},
{
closed = 1;
nodes = (
(575,-12,o),
(705,132,o),
(705,348,cs),
(705,565,o),
(575,709,o),
(381,709,cs),
(188,709,o),
(58,565,o),
(58,348,cs),
(58,132,o),
(188,-12,o),
(381,-12,cs)
);
},
{
closed = 1;
nodes = (
(238,73,o),
(147,180,o),
(147,348,cs),
(147,517,o),
(238,624,o),
(381,624,cs),
(524,624,o),
(616,517,o),
(616,348,cs),
(616,180,o),
(524,73,o),
(381,73,cs)
);
}
);
width = 763;
}
);
note = Oacute;
unicode = 211;
},
{
glyphname = uni01D1;
kernLeft = C;
kernRight = D;
layers = (
{
hints = (
{
horizontal = 1;
place = (-12, 85);
place = (-12, 85);
type = Stem;
},
{
horizontal = 1;
place = (624, 85);
place = (624, 85);
type = Stem;
},
{
place = (58, 89);
place = (58, 89);
type = Stem;
},
{
place = (616, 89);
place = (616, 89);
type = Stem;
}
);
layerId = m01;
shapes = (
{
closed = 1;
nodes = (
(381,744,l),
(532,901,l),
(463,901,l),
(381,815,l),
(299,901,l),
(230,901,l)
);
},
{
closed = 1;
nodes = (
(575,-12,o),
(705,132,o),
(705,348,cs),
(705,565,o),
(575,709,o),
(381,709,cs),
(188,709,o),
(58,565,o),
(58,348,cs),
(58,132,o),
(188,-12,o),
(381,-12,cs)
);
},
{
closed = 1;
nodes = (
(238,73,o),
(147,180,o),
(147,348,cs),
(147,517,o),
(238,624,o),
(381,624,cs),
(524,624,o),
(616,517,o),
(616,348,cs),
(616,180,o),
(524,73,o),
(381,73,cs)
);
}
);
width = 763;
}
);
note = uni01D1;
unicode = 465;
},
{
glyphname = Ocircumflex;
kernLeft = C;
kernRight = D;
layers = (
{
hints = (
{
horizontal = 1;
place = (-12, 85);
place = (-12, 85);
type = Stem;
},
{
horizontal = 1;
place = (624, 85);
place = (624, 85);
type = Stem;
},
{
place = (58, 89);
place = (58, 89);
type = Stem;
},
{
place = (616, 89);
place = (616, 89);
type = Stem;
}
);
layerId = m01;
shapes = (
{
closed = 1;
nodes = (
(230,750,l),
(299,750,l),
(381,839,l),
(463,750,l),
(532,750,l),
(381,914,l)
);
},
{
closed = 1;
nodes = (
(575,-12,o),
(705,132,o),
(705,348,cs),
(705,565,o),
(575,709,o),
(381,709,cs),
(188,709,o),
(58,565,o),
(58,348,cs),
(58,132,o),
(188,-12,o),
(381,-12,cs)
);
},
{
closed = 1;
nodes = (
(238,73,o),
(147,180,o),
(147,348,cs),
(147,517,o),
(238,624,o),
(381,624,cs),
(524,624,o),
(616,517,o),
(616,348,cs),
(616,180,o),
(524,73,o),
(381,73,cs)
);
}
);
width = 763;
}
);
note = Ocircumflex;
unicode = 212;
},
{
glyphname = uni1ED0;
kernLeft = C;
kernRight = D;
layers = (
{
hints = (
{
horizontal = 1;
place = (-12, 85);
place = (-12, 85);
type = Stem;
},
{
horizontal = 1;
place = (624, 85);
place = (624, 85);
type = Stem;
},
{
horizontal = 1;
place = (949, 141);
place = (949, 141);
type = Stem;
},
{
place = (58, 89);
place = (58, 89);
type = Stem;
},
{
place = (616, 89);
place = (616, 89);
type = Stem;
}
);
layerId = m01;
shapes = (
{
closed = 1;
nodes = (
(350,949,l),
(414,949,l),
(551,1090,l),
(459,1090,l)
);
},
{
closed = 1;
nodes = (
(230,750,l),
(299,750,l),
(381,839,l),
(463,750,l),
(532,750,l),
(381,914,l)
);
},
{
closed = 1;
nodes = (
(575,-12,o),
(705,132,o),
(705,348,cs),
(705,565,o),
(575,709,o),
(381,709,cs),
(188,709,o),
(58,565,o),
(58,348,cs),
(58,132,o),
(188,-12,o),
(381,-12,cs)
);
},
{
closed = 1;
nodes = (
(238,73,o),
(147,180,o),
(147,348,cs),
(147,517,o),
(238,624,o),
(381,624,cs),
(524,624,o),
(616,517,o),
(616,348,cs),
(616,180,o),
(524,73,o),
(381,73,cs)
);
}
);
width = 763;
}
);
note = uni1ED0;
unicode = 7888;
},
{
glyphname = uni1ED8;
kernLeft = C;
kernRight = D;
layers = (
{
hints = (
{
horizontal = 1;
place = (-173, 104);
place = (-173, 104);
type = Stem;
},
{
horizontal = 1;
place = (-12, 85);
place = (-12, 85);
type = Stem;
},
{
horizontal = 1;
place = (624, 85);
place = (624, 85);
type = Stem;
},
{
place = (58, 89);
place = (58, 89);
type = Stem;
},
{
place = (333, 96);
place = (333, 96);
type = Stem;
},
{
place = (616, 89);
place = (616, 89);
type = Stem;
}
);
layerId = m01;
shapes = (
{
closed = 1;
nodes = (
(230,750,l),
(299,750,l),
(381,839,l),
(463,750,l),
(532,750,l),
(381,914,l)
);
},
{
closed = 1;
nodes = (
(575,-12,o),
(705,132,o),
(705,348,cs),
(705,565,o),
(575,709,o),
(381,709,cs),
(188,709,o),
(58,565,o),
(58,348,cs),
(58,132,o),
(188,-12,o),
(381,-12,cs)
);
},
{
closed = 1;
nodes = (
(238,73,o),
(147,180,o),
(147,348,cs),
(147,517,o),
(238,624,o),
(381,624,cs),
(524,624,o),
(616,517,o),
(616,348,cs),
(616,180,o),
(524,73,o),
(381,73,cs)
);
},
{
closed = 1;
nodes = (
(333,-173,l),
(429,-173,l),
(429,-69,l),
(333,-69,l)
);
}
);
width = 763;
}
);
note = uni1ED8;
unicode = 7896;
},
{
glyphname = uni1ED2;
kernLeft = C;
kernRight = D;
layers = (
{
hints = (
{
horizontal = 1;
place = (-12, 85);
place = (-12, 85);
type = Stem;
},
{
horizontal = 1;
place = (624, 85);
place = (624, 85);
type = Stem;
},
{
horizontal = 1;
place = (949, 141);
place = (949, 141);
type = Stem;
},
{
place = (58, 89);
place = (58, 89);
type = Stem;
},
{
place = (616, 89);
place = (616, 89);
type = Stem;
}
);
layerId = m01;
shapes = (
{
closed = 1;
nodes = (
(348,949,l),
(414,949,l),
(310,1090,l),
(218,1090,l)
);
},
{
closed = 1;
nodes = (
(230,750,l),
(299,750,l),
(381,839,l),
(463,750,l),
(532,750,l),
(381,914,l)
);
},
{
closed = 1;
nodes = (
(575,-12,o),
(705,132,o),
(705,348,cs),
(705,565,o),
(575,709,o),
(381,709,cs),
(188,709,o),
(58,565,o),
(58,348,cs),
(58,132,o),
(188,-12,o),
(381,-12,cs)
);
},
{
closed = 1;
nodes = (
(238,73,o),
(147,180,o),
(147,348,cs),
(147,517,o),
(238,624,o),
(381,624,cs),
(524,624,o),
(616,517,o),
(616,348,cs),
(616,180,o),
(524,73,o),
(381,73,cs)
);
}
);
width = 763;
}
);
note = uni1ED2;
unicode = 7890;
},
{
glyphname = uni1ED4;
kernLeft = C;
kernRight = D;
layers = (
{
hints = (
{
horizontal = 1;
place = (-12, 85);
place = (-12, 85);
type = Stem;
},
{
horizontal = 1;
place = (624, 85);
place = (624, 85);
type = Stem;
},
{
horizontal = 1;
place = (1062, 49);
place = (1062, 49);
type = Stem;
},
{
place = (58, 89);
place = (58, 89);
type = Stem;
},
{
place = (435, 57);
place = (435, 57);
type = Stem;
},
{
place = (616, 89);
place = (616, 89);
type = Stem;
}
);
layerId = m01;
shapes = (
{
closed = 1;
nodes = (
(374,925,l),
(424,934,o),
(492,946,o),
(492,1013,cs),
(492,1077,o),
(432,1111,o),
(349,1111,cs),
(334,1111,l),
(334,1062,l),
(349,1062,ls),
(392,1062,o),
(435,1052,o),
(435,1014,cs),
(435,979,o),
(397,973,o),
(361,967,c)
);
},
{
closed = 1;
nodes = (
(230,750,l),
(299,750,l),
(381,839,l),
(463,750,l),
(532,750,l),
(381,914,l)
);
},
{
closed = 1;
nodes = (
(575,-12,o),
(705,132,o),
(705,348,cs),
(705,565,o),
(575,709,o),
(381,709,cs),
(188,709,o),
(58,565,o),
(58,348,cs),
(58,132,o),
(188,-12,o),
(381,-12,cs)
);
},
{
closed = 1;
nodes = (
(238,73,o),
(147,180,o),
(147,348,cs),
(147,517,o),
(238,624,o),
(381,624,cs),
(524,624,o),
(616,517,o),
(616,348,cs),
(616,180,o),
(524,73,o),
(381,73,cs)
);
}
);
width = 763;
}
);
note = uni1ED4;
unicode = 7892;
},
{
glyphname = uni1ED6;
kernLeft = C;
kernRight = D;
layers = (
{
hints = (
{
horizontal = 1;
place = (-12, 85);
place = (-12, 85);
type = Stem;
},
{
horizontal = 1;
place = (624, 85);
place = (624, 85);
type = Stem;
},
{
horizontal = 1;
place = (958, 55);
place = (958, 55);
type = Stem;
},
{
horizontal = 1;
place = (1040, 54);
place = (1040, 54);
type = Stem;
},
{
place = (58, 89);
place = (58, 89);
type = Stem;
},
{
place = (220, 50);
place = (220, 50);
type = Stem;
},
{
place = (490, 52);
place = (490, 52);
type = Stem;
},
{
place = (616, 89);
place = (616, 89);
type = Stem;
}
);
layerId = m01;
shapes = (
{
closed = 1;
nodes = (
(505,958,o),
(542,1007,o),
(542,1090,c),
(490,1090,l),
(490,1042,o),
(472,1013,o),
(449,1013,cs),
(401,1013,o),
(390,1094,o),
(317,1094,cs),
(258,1094,o),
(220,1047,o),
(220,965,c),
(270,965,l),
(270,1012,o),
(287,1040,o),
(314,1040,cs),
(362,1040,o),
(367,958,o),
(449,958,cs)
);
},
{
closed = 1;
nodes = (
(230,750,l),
(299,750,l),
(381,839,l),
(463,750,l),
(532,750,l),
(381,914,l)
);
},
{
closed = 1;
nodes = (
(575,-12,o),
(705,132,o),
(705,348,cs),
(705,565,o),
(575,709,o),
(381,709,cs),
(188,709,o),
(58,565,o),
(58,348,cs),
(58,132,o),
(188,-12,o),
(381,-12,cs)
);
},
{
closed = 1;
nodes = (
(238,73,o),
(147,180,o),
(147,348,cs),
(147,517,o),
(238,624,o),
(381,624,cs),
(524,624,o),
(616,517,o),
(616,348,cs),
(616,180,o),
(524,73,o),
(381,73,cs)
);
}
);
width = 763;
}
);
note = uni1ED6;
unicode = 7894;
},
{
glyphname = Odieresis;
kernLeft = C;
kernRight = D;
layers = (
{
hints = (
{
horizontal = 1;
place = (-12, 85);
place = (-12, 85);
type = Stem;
},
{
horizontal = 1;
place = (624, 85);
place = (624, 85);
type = Stem;
},
{
horizontal = 1;
place = (796, 105);
place = (796, 105);
type = Stem;
},
{
place = (58, 89);
place = (58, 89);
type = Stem;
},
{
place = (245, 87);
place = (245, 87);
type = Stem;
},
{
place = (430, 87);
place = (430, 87);
type = Stem;
},
{
place = (616, 89);
place = (616, 89);
type = Stem;
}
);
layerId = m01;
shapes = (
{
closed = 1;
nodes = (
(245,796,l),
(332,796,l),
(332,901,l),
(245,901,l)
);
},
{
closed = 1;
nodes = (
(430,796,l),
(517,796,l),
(517,901,l),
(430,901,l)
);
},
{
closed = 1;
nodes = (
(575,-12,o),
(705,132,o),
(705,348,cs),
(705,565,o),
(575,709,o),
(381,709,cs),
(188,709,o),
(58,565,o),
(58,348,cs),
(58,132,o),
(188,-12,o),
(381,-12,cs)
);
},
{
closed = 1;
nodes = (
(238,73,o),
(147,180,o),
(147,348,cs),
(147,517,o),
(238,624,o),
(381,624,cs),
(524,624,o),
(616,517,o),
(616,348,cs),
(616,180,o),
(524,73,o),
(381,73,cs)
);
}
);
width = 763;
}
);
note = Odieresis;
unicode = 214;
},
{
glyphname = uni1ECC;
kernLeft = C;
kernRight = D;
layers = (
{
hints = (
{
horizontal = 1;
place = (-173, 104);
place = (-173, 104);
type = Stem;
},
{
horizontal = 1;
place = (-12, 85);
place = (-12, 85);
type = Stem;
},
{
horizontal = 1;
place = (624, 85);
place = (624, 85);
type = Stem;
},
{
place = (58, 89);
place = (58, 89);
type = Stem;
},
{
place = (333, 96);
place = (333, 96);
type = Stem;
},
{
place = (616, 89);
place = (616, 89);
type = Stem;
}
);
layerId = m01;
shapes = (
{
closed = 1;
nodes = (
(575,-12,o),
(705,132,o),
(705,348,cs),
(705,565,o),
(575,709,o),
(381,709,cs),
(188,709,o),
(58,565,o),
(58,348,cs),
(58,132,o),
(188,-12,o),
(381,-12,cs)
);
},
{
closed = 1;
nodes = (
(238,73,o),
(147,180,o),
(147,348,cs),
(147,517,o),
(238,624,o),
(381,624,cs),
(524,624,o),
(616,517,o),
(616,348,cs),
(616,180,o),
(524,73,o),
(381,73,cs)
);
},
{
closed = 1;
nodes = (
(333,-173,l),
(429,-173,l),
(429,-69,l),
(333,-69,l)
);
}
);
width = 763;
}
);
note = uni1ECC;
unicode = 7884;
},
{
glyphname = Ograve;
kernLeft = C;
kernRight = D;
layers = (
{
hints = (
{
horizontal = 1;
place = (-12, 85);
place = (-12, 85);
type = Stem;
},
{
horizontal = 1;
place = (624, 85);
place = (624, 85);
type = Stem;
},
{
horizontal = 1;
place = (760, 141);
place = (760, 141);
type = Stem;
},
{
place = (58, 89);
place = (58, 89);
type = Stem;
},
{
place = (616, 89);
place = (616, 89);
type = Stem;
}
);
layerId = m01;
shapes = (
{
closed = 1;
nodes = (
(348,760,l),
(414,760,l),
(310,901,l),
(218,901,l)
);
},
{
closed = 1;
nodes = (
(575,-12,o),
(705,132,o),
(705,348,cs),
(705,565,o),
(575,709,o),
(381,709,cs),
(188,709,o),
(58,565,o),
(58,348,cs),
(58,132,o),
(188,-12,o),
(381,-12,cs)
);
},
{
closed = 1;
nodes = (
(238,73,o),
(147,180,o),
(147,348,cs),
(147,517,o),
(238,624,o),
(381,624,cs),
(524,624,o),
(616,517,o),
(616,348,cs),
(616,180,o),
(524,73,o),
(381,73,cs)
);
}
);
width = 763;
}
);
note = Ograve;
unicode = 210;
},
{
glyphname = uni1ECE;
kernLeft = C;
kernRight = D;
layers = (
{
hints = (
{
horizontal = 1;
place = (-12, 85);
place = (-12, 85);
type = Stem;
},
{
horizontal = 1;
place = (624, 85);
place = (624, 85);
type = Stem;
},
{
horizontal = 1;
place = (873, 49);
place = (873, 49);
type = Stem;
},
{
place = (58, 89);
place = (58, 89);
type = Stem;
},
{
place = (435, 57);
place = (435, 57);
type = Stem;
},
{
place = (616, 89);
place = (616, 89);
type = Stem;
}
);
layerId = m01;
shapes = (
{
closed = 1;
nodes = (
(374,736,l),
(424,745,o),
(492,757,o),
(492,824,cs),
(492,888,o),
(432,922,o),
(349,922,cs),
(334,922,l),
(334,873,l),
(349,873,ls),
(392,873,o),
(435,863,o),
(435,825,cs),
(435,790,o),
(397,784,o),
(361,778,c)
);
},
{
closed = 1;
nodes = (
(575,-12,o),
(705,132,o),
(705,348,cs),
(705,565,o),
(575,709,o),
(381,709,cs),
(188,709,o),
(58,565,o),
(58,348,cs),
(58,132,o),
(188,-12,o),
(381,-12,cs)
);
},
{
closed = 1;
nodes = (
(238,73,o),
(147,180,o),
(147,348,cs),
(147,517,o),
(238,624,o),
(381,624,cs),
(524,624,o),
(616,517,o),
(616,348,cs),
(616,180,o),
(524,73,o),
(381,73,cs)
);
}
);
width = 763;
}
);
note = uni1ECE;
unicode = 7886;
},
{
glyphname = Ohorn;
kernLeft = C;
kernRight = D;
layers = (
{
hints = (
{
horizontal = 1;
place = (-12, 85);
place = (-12, 85);
type = Stem;
},
{
horizontal = 1;
place = (502, -20);
target = down;
type = TopGhost;
},
{
horizontal = 1;
place = (697, -20);
target = down;
type = TopGhost;
},
{
place = (58, 89);
place = (58, 89);
type = Stem;
},
{
place = (708, 65);
place = (708, 65);
type = Stem;
},
{
horizontal = 1;
place = (624, 85);
place = (624, 85);
type = Stem;
},
{
place = (616, 89);
place = (616, 89);
type = Stem;
}
);
layerId = m01;
shapes = (
{
closed = 1;
nodes = (
(708,697,l),
(708,645,ls),
(708,605,o),
(695,567,o),
(654,556,c),
(599,652,o),
(503,709,o),
(381,709,cs),
(188,709,o),
(58,565,o),
(58,348,cs),
(58,132,o),
(188,-12,o),
(381,-12,cs),
(575,-12,o),
(705,132,o),
(705,348,cs),
(705,405,o),
(696,457,o),
(679,502,c),
(745,521,o),
(773,578,o),
(773,652,cs),
(773,697,l)
);
},
{
closed = 1;
nodes = (
(238,73,o),
(147,180,o),
(147,348,cs),
(147,517,o),
(238,624,o),
(381,624,cs),
(524,624,o),
(616,517,o),
(616,348,cs),
(616,180,o),
(524,73,o),
(381,73,cs)
);
}
);
width = 763;
}
);
note = Ohorn;
unicode = 416;
},
{
glyphname = uni1EDA;
kernLeft = C;
kernRight = D;
layers = (
{
hints = (
{
horizontal = 1;
place = (-12, 85);
place = (-12, 85);
type = Stem;
},
{
horizontal = 1;
place = (502, -20);
target = down;
type = TopGhost;
},
{
horizontal = 1;
place = (697, -20);
target = down;
type = TopGhost;
},
{
horizontal = 1;
place = (760, 141);
place = (760, 141);
type = Stem;
},
{
place = (58, 89);
place = (58, 89);
type = Stem;
},
{
place = (616, 89);
place = (616, 89);
type = Stem;
},
{
place = (708, 65);
place = (708, 65);
type = Stem;
},
{
horizontal = 1;
place = (624, 85);
place = (624, 85);
type = Stem;
}
);
layerId = m01;
shapes = (
{
closed = 1;
nodes = (
(551,901,l),
(459,901,l),
(350,760,l),
(414,760,l)
);
},
{
closed = 1;
nodes = (
(708,697,l),
(708,645,ls),
(708,605,o),
(695,567,o),
(654,556,c),
(599,652,o),
(503,709,o),
(381,709,cs),
(188,709,o),
(58,565,o),
(58,348,cs),
(58,132,o),
(188,-12,o),
(381,-12,cs),
(575,-12,o),
(705,132,o),
(705,348,cs),
(705,405,o),
(696,457,o),
(679,502,c),
(745,521,o),
(773,578,o),
(773,652,cs),
(773,697,l)
);
},
{
closed = 1;
nodes = (
(238,73,o),
(147,180,o),
(147,348,cs),
(147,517,o),
(238,624,o),
(381,624,cs),
(524,624,o),
(616,517,o),
(616,348,cs),
(616,180,o),
(524,73,o),
(381,73,cs)
);
}
);
width = 763;
}
);
note = uni1EDA;
unicode = 7898;
},
{
glyphname = uni1EE2;
kernLeft = C;
kernRight = D;
layers = (
{
hints = (
{
horizontal = 1;
place = (-173, 104);
place = (-173, 104);
type = Stem;
},
{
horizontal = 1;
place = (-12, 85);
place = (-12, 85);
type = Stem;
},
{
horizontal = 1;
place = (502, -20);
target = down;
type = TopGhost;
},
{
horizontal = 1;
place = (697, -20);
target = down;
type = TopGhost;
},
{
place = (58, 89);
place = (58, 89);
type = Stem;
},
{
place = (333, 96);
place = (333, 96);
type = Stem;
},
{
place = (708, 65);
place = (708, 65);
type = Stem;
},
{
horizontal = 1;
place = (624, 85);
place = (624, 85);
type = Stem;
},
{
place = (616, 89);
place = (616, 89);
type = Stem;
}
);
layerId = m01;
shapes = (
{
closed = 1;
nodes = (
(708,697,l),
(708,645,ls),
(708,605,o),
(695,567,o),
(654,556,c),
(599,652,o),
(503,709,o),
(381,709,cs),
(188,709,o),
(58,565,o),
(58,348,cs),
(58,132,o),
(188,-12,o),
(381,-12,cs),
(575,-12,o),
(705,132,o),
(705,348,cs),
(705,405,o),
(696,457,o),
(679,502,c),
(745,521,o),
(773,578,o),
(773,652,cs),
(773,697,l)
);
},
{
closed = 1;
nodes = (
(238,73,o),
(147,180,o),
(147,348,cs),
(147,517,o),
(238,624,o),
(381,624,cs),
(524,624,o),
(616,517,o),
(616,348,cs),
(616,180,o),
(524,73,o),
(381,73,cs)
);
},
{
closed = 1;
nodes = (
(333,-173,l),
(429,-173,l),
(429,-69,l),
(333,-69,l)
);
}
);
width = 763;
}
);
note = uni1EE2;
unicode = 7906;
},
{
glyphname = uni1EDC;
kernLeft = C;
kernRight = D;
layers = (
{
hints = (
{
horizontal = 1;
place = (-12, 85);
place = (-12, 85);
type = Stem;
},
{
horizontal = 1;
place = (502, -20);
target = down;
type = TopGhost;
},
{
horizontal = 1;
place = (697, -20);
target = down;
type = TopGhost;
},
{
horizontal = 1;
place = (760, 141);
place = (760, 141);
type = Stem;
},
{
place = (58, 89);
place = (58, 89);
type = Stem;
},
{
place = (616, 89);
place = (616, 89);
type = Stem;
},
{
place = (708, 65);
place = (708, 65);
type = Stem;
},
{
horizontal = 1;
place = (624, 85);
place = (624, 85);
type = Stem;
}
);
layerId = m01;
shapes = (
{
closed = 1;
nodes = (
(414,760,l),
(310,901,l),
(218,901,l),
(348,760,l)
);
},
{
closed = 1;
nodes = (
(708,697,l),
(708,645,ls),
(708,605,o),
(695,567,o),
(654,556,c),
(599,652,o),
(503,709,o),
(381,709,cs),
(188,709,o),
(58,565,o),
(58,348,cs),
(58,132,o),
(188,-12,o),
(381,-12,cs),
(575,-12,o),
(705,132,o),
(705,348,cs),
(705,405,o),
(696,457,o),
(679,502,c),
(745,521,o),
(773,578,o),
(773,652,cs),
(773,697,l)
);
},
{
closed = 1;
nodes = (
(238,73,o),
(147,180,o),
(147,348,cs),
(147,517,o),
(238,624,o),
(381,624,cs),
(524,624,o),
(616,517,o),
(616,348,cs),
(616,180,o),
(524,73,o),
(381,73,cs)
);
}
);
width = 763;
}
);
note = uni1EDC;
unicode = 7900;
},
{
glyphname = uni1EDE;
kernLeft = C;
kernRight = D;
layers = (
{
hints = (
{
horizontal = 1;
place = (-12, 85);
place = (-12, 85);
type = Stem;
},
{
horizontal = 1;
place = (502, -20);
target = down;
type = TopGhost;
},
{
horizontal = 1;
place = (697, -20);
target = down;
type = TopGhost;
},
{
horizontal = 1;
place = (873, 49);
place = (873, 49);
type = Stem;
},
{
place = (58, 89);
place = (58, 89);
type = Stem;
},
{
place = (435, 57);
place = (435, 57);
type = Stem;
},
{
place = (616, 89);
place = (616, 89);
type = Stem;
},
{
place = (708, 65);
place = (708, 65);
type = Stem;
},
{
horizontal = 1;
place = (624, 85);
place = (624, 85);
type = Stem;
}
);
layerId = m01;
shapes = (
{
closed = 1;
nodes = (
(435,790,o),
(397,784,o),
(361,778,c),
(374,736,l),
(424,745,o),
(492,757,o),
(492,824,cs),
(492,888,o),
(432,922,o),
(349,922,cs),
(334,922,l),
(334,873,l),
(349,873,ls),
(392,873,o),
(435,863,o),
(435,825,cs)
);
},
{
closed = 1;
nodes = (
(708,697,l),
(708,645,ls),
(708,605,o),
(695,567,o),
(654,556,c),
(599,652,o),
(503,709,o),
(381,709,cs),
(188,709,o),
(58,565,o),
(58,348,cs),
(58,132,o),
(188,-12,o),
(381,-12,cs),
(575,-12,o),
(705,132,o),
(705,348,cs),
(705,405,o),
(696,457,o),
(679,502,c),
(745,521,o),
(773,578,o),
(773,652,cs),
(773,697,l)
);
},
{
closed = 1;
nodes = (
(238,73,o),
(147,180,o),
(147,348,cs),
(147,517,o),
(238,624,o),
(381,624,cs),
(524,624,o),
(616,517,o),
(616,348,cs),
(616,180,o),
(524,73,o),
(381,73,cs)
);
}
);
width = 763;
}
);
note = uni1EDE;
unicode = 7902;
},
{
glyphname = uni1EE0;
kernLeft = C;
kernRight = D;
layers = (
{
hints = (
{
horizontal = 1;
place = (-12, 85);
place = (-12, 85);
type = Stem;
},
{
horizontal = 1;
place = (502, -20);
target = down;
type = TopGhost;
},
{
horizontal = 1;
place = (697, -20);
target = down;
type = TopGhost;
},
{
horizontal = 1;
place = (851, 54);
place = (851, 54);
type = Stem;
},
{
place = (58, 89);
place = (58, 89);
type = Stem;
},
{
place = (220, 50);
place = (220, 50);
type = Stem;
},
{
place = (490, 52);
place = (490, 52);
type = Stem;
},
{
place = (616, 89);
place = (616, 89);
type = Stem;
},
{
horizontal = 1;
place = (769, 55);
place = (769, 55);
type = Stem;
},
{
place = (708, 65);
place = (708, 65);
type = Stem;
},
{
horizontal = 1;
place = (624, 85);
place = (624, 85);
type = Stem;
}
);
layerId = m01;
shapes = (
{
closed = 1;
nodes = (
(362,851,o),
(367,769,o),
(449,769,cs),
(505,769,o),
(542,818,o),
(542,901,c),
(490,901,l),
(490,853,o),
(472,824,o),
(449,824,cs),
(401,824,o),
(390,905,o),
(317,905,cs),
(258,905,o),
(220,858,o),
(220,776,c),
(270,776,l),
(270,823,o),
(287,851,o),
(314,851,cs)
);
},
{
closed = 1;
nodes = (
(708,697,l),
(708,645,ls),
(708,605,o),
(695,567,o),
(654,556,c),
(599,652,o),
(503,709,o),
(381,709,cs),
(188,709,o),
(58,565,o),
(58,348,cs),
(58,132,o),
(188,-12,o),
(381,-12,cs),
(575,-12,o),
(705,132,o),
(705,348,cs),
(705,405,o),
(696,457,o),
(679,502,c),
(745,521,o),
(773,578,o),
(773,652,cs),
(773,697,l)
);
},
{
closed = 1;
nodes = (
(238,73,o),
(147,180,o),
(147,348,cs),
(147,517,o),
(238,624,o),
(381,624,cs),
(524,624,o),
(616,517,o),
(616,348,cs),
(616,180,o),
(524,73,o),
(381,73,cs)
);
}
);
width = 763;
}
);
note = uni1EE0;
unicode = 7904;
},
{
glyphname = Ohungarumlaut;
kernLeft = C;
kernRight = D;
layers = (
{
hints = (
{
horizontal = 1;
place = (-12, 85);
place = (-12, 85);
type = Stem;
},
{
horizontal = 1;
place = (624, 85);
place = (624, 85);
type = Stem;
},
{
horizontal = 1;
place = (745, 156);
place = (745, 156);
type = Stem;
},
{
place = (58, 89);
place = (58, 89);
type = Stem;
},
{
place = (616, 89);
place = (616, 89);
type = Stem;
}
);
layerId = m01;
shapes = (
{
closed = 1;
nodes = (
(260,745,l),
(324,745,l),
(447,901,l),
(369,901,l)
);
},
{
closed = 1;
nodes = (
(437,745,l),
(502,745,l),
(638,901,l),
(546,901,l)
);
},
{
closed = 1;
nodes = (
(575,-12,o),
(705,132,o),
(705,348,cs),
(705,565,o),
(575,709,o),
(381,709,cs),
(188,709,o),
(58,565,o),
(58,348,cs),
(58,132,o),
(188,-12,o),
(381,-12,cs)
);
},
{
closed = 1;
nodes = (
(238,73,o),
(147,180,o),
(147,348,cs),
(147,517,o),
(238,624,o),
(381,624,cs),
(524,624,o),
(616,517,o),
(616,348,cs),
(616,180,o),
(524,73,o),
(381,73,cs)
);
}
);
width = 763;
}
);
note = Ohungarumlaut;
unicode = 336;
},
{
glyphname = Omacron;
kernLeft = C;
kernRight = D;
layers = (
{
hints = (
{
horizontal = 1;
place = (-12, 85);
place = (-12, 85);
type = Stem;
},
{
horizontal = 1;
place = (624, 85);
place = (624, 85);
type = Stem;
},
{
horizontal = 1;
place = (792, 51);
place = (792, 51);
type = Stem;
},
{
place = (58, 89);
place = (58, 89);
type = Stem;
},
{
place = (616, 89);
place = (616, 89);
type = Stem;
}
);
layerId = m01;
shapes = (
{
closed = 1;
nodes = (
(245,792,l),
(517,792,l),
(517,843,l),
(245,843,l)
);
},
{
closed = 1;
nodes = (
(575,-12,o),
(705,132,o),
(705,348,cs),
(705,565,o),
(575,709,o),
(381,709,cs),
(188,709,o),
(58,565,o),
(58,348,cs),
(58,132,o),
(188,-12,o),
(381,-12,cs)
);
},
{
closed = 1;
nodes = (
(238,73,o),
(147,180,o),
(147,348,cs),
(147,517,o),
(238,624,o),
(381,624,cs),
(524,624,o),
(616,517,o),
(616,348,cs),
(616,180,o),
(524,73,o),
(381,73,cs)
);
}
);
width = 763;
}
);
note = Omacron;
unicode = 332;
},
{
glyphname = Oslash;
kernLeft = C;
kernRight = D;
layers = (
{
hints = (
{
horizontal = 1;
place = (-12, 85);
place = (-12, 85);
type = Stem;
},
{
horizontal = 1;
place = (623, 74);
place = (623, 74);
type = Stem;
},
{
place = (58, 89);
place = (58, 89);
type = Stem;
},
{
place = (616, 89);
place = (616, 89);
type = Stem;
},
{
horizontal = 1;
place = (0, 74);
place = (0, 74);
type = Stem;
},
{
horizontal = 1;
place = (624, 85);
place = (624, 85);
type = Stem;
},
{
horizontal = 1;
place = (697, -20);
target = down;
type = TopGhost;
}
);
layerId = m01;
shapes = (
{
closed = 1;
nodes = (
(653,697,l),
(577,697,l),
(554,662,l),
(505,692,o),
(447,709,o),
(381,709,cs),
(188,709,o),
(58,565,o),
(58,348,cs),
(58,232,o),
(95,137,o),
(160,74,c),
(110,0,l),
(186,0,l),
(209,35,l),
(258,5,o),
(316,-12,o),
(381,-12,cs),
(575,-12,o),
(705,132,o),
(705,348,cs),
(705,464,o),
(668,559,o),
(603,623,c)
);
},
{
closed = 1;
nodes = (
(147,517,o),
(238,624,o),
(381,624,cs),
(429,624,o),
(471,612,o),
(505,590,c),
(210,149,l),
(169,196,o),
(147,265,o),
(147,348,cs)
);
},
{
closed = 1;
nodes = (
(334,73,o),
(292,85,o),
(257,107,c),
(553,548,l),
(593,500,o),
(616,432,o),
(616,348,cs),
(616,180,o),
(524,73,o),
(381,73,cs)
);
}
);
width = 763;
}
);
note = Oslash;
unicode = 216;
},
{
glyphname = Otilde;
kernLeft = C;
kernRight = D;
layers = (
{
hints = (
{
horizontal = 1;
place = (-12, 85);
place = (-12, 85);
type = Stem;
},
{
horizontal = 1;
place = (624, 85);
place = (624, 85);
type = Stem;
},
{
horizontal = 1;
place = (769, 55);
place = (769, 55);
type = Stem;
},
{
horizontal = 1;
place = (851, 54);
place = (851, 54);
type = Stem;
},
{
place = (58, 89);
place = (58, 89);
type = Stem;
},
{
place = (220, 50);
place = (220, 50);
type = Stem;
},
{
place = (490, 52);
place = (490, 52);
type = Stem;
},
{
place = (616, 89);
place = (616, 89);
type = Stem;
}
);
layerId = m01;
shapes = (
{
closed = 1;
nodes = (
(505,769,o),
(542,818,o),
(542,901,c),
(490,901,l),
(490,853,o),
(472,824,o),
(449,824,cs),
(401,824,o),
(390,905,o),
(317,905,cs),
(258,905,o),
(220,858,o),
(220,776,c),
(270,776,l),
(270,823,o),
(287,851,o),
(314,851,cs),
(362,851,o),
(367,769,o),
(449,769,cs)
);
},
{
closed = 1;
nodes = (
(575,-12,o),
(705,132,o),
(705,348,cs),
(705,565,o),
(575,709,o),
(381,709,cs),
(188,709,o),
(58,565,o),
(58,348,cs),
(58,132,o),
(188,-12,o),
(381,-12,cs)
);
},
{
closed = 1;
nodes = (
(238,73,o),
(147,180,o),
(147,348,cs),
(147,517,o),
(238,624,o),
(381,624,cs),
(524,624,o),
(616,517,o),
(616,348,cs),
(616,180,o),
(524,73,o),
(381,73,cs)
);
}
);
width = 763;
}
);
note = Otilde;
unicode = 213;
},
{
glyphname = OE;
kernLeft = C;
layers = (
{
hints = (
{
horizontal = 1;
place = (0, 82);
place = (0, 82);
type = Stem;
},
{
horizontal = 1;
place = (315, 82);
place = (315, 82);
type = Stem;
},
{
horizontal = 1;
place = (615, 82);
place = (615, 82);
type = Stem;
},
{
place = (58, 89);
place = (58, 89);
type = Stem;
},
{
place = (616, 90);
place = (616, 90);
type = Stem;
},
{
place = (617, 89);
place = (617, 89);
type = Stem;
},
{
horizontal = 1;
place = (-12, 85);
place = (-12, 85);
type = Stem;
},
{
horizontal = 1;
place = (624, 85);
place = (624, 85);
type = Stem;
}
);
layerId = m01;
shapes = (
{
closed = 1;
nodes = (
(1076,615,l),
(1076,697,l),
(617,697,l),
(617,608,l),
(560,672,o),
(479,709,o),
(381,709,cs),
(188,709,o),
(58,565,o),
(58,348,cs),
(58,132,o),
(188,-12,o),
(381,-12,cs),
(479,-12,o),
(560,25,o),
(617,88,c),
(617,0,l),
(1076,0,l),
(1076,82,l),
(706,82,l),
(706,315,l),
(1042,315,l),
(1042,397,l),
(706,397,l),
(706,615,l)
);
},
{
closed = 1;
nodes = (
(238,73,o),
(147,180,o),
(147,348,cs),
(147,517,o),
(238,624,o),
(381,624,cs),
(524,624,o),
(616,517,o),
(616,348,cs),
(616,180,o),
(524,73,o),
(381,73,cs)
);
}
);
width = 1136;
}
);
note = OE;
unicode = 338;
},
{
glyphname = P;
kernLeft = B;
kernRight = P;
lastChange = "2022-12-26 06:08:25 +0000";
layers = (
{
hints = (
{
horizontal = 1;
place = (0, 21);
target = up;
type = BottomGhost;
},
{
horizontal = 1;
place = (299, 82);
place = (299, 82);
type = Stem;
},
{
horizontal = 1;
place = (615, 82);
place = (615, 82);
type = Stem;
},
{
place = (105, 89);
place = (105, 89);
type = Stem;
},
{
place = (457, 89);
place = (457, 89);
type = Stem;
}
);
layerId = m01;
shapes = (
{
closed = 1;
nodes = (
(105,0,l),
(150,0,l),
(194,50,l),
(194,299,l),
(314,299,ls),
(463,299,o),
(546,370,o),
(546,500,cs),
(546,628,o),
(465,697,o),
(314,697,cs),
(105,697,l)
);
},
{
closed = 1;
nodes = (
(194,381,l),
(194,615,l),
(305,615,ls),
(407,615,o),
(457,577,o),
(457,499,cs),
(457,420,o),
(407,381,o),
(305,381,cs)
);
}
);
width = 587;
}
);
note = P;
unicode = 80;
},
{
glyphname = Thorn;
kernLeft = B;
kernRight = Thorn;
layers = (
{
hints = (
{
horizontal = 1;
place = (0, 21);
target = up;
type = BottomGhost;
},
{
horizontal = 1;
place = (202, 75);
place = (202, 75);
type = Stem;
},
{
horizontal = 1;
place = (528, 169);
place = (528, 169);
type = Stem;
},
{
place = (105, 82);
place = (105, 82);
type = Stem;
},
{
place = (457, 82);
place = (457, 82);
type = Stem;
},
{
horizontal = 1;
place = (528, 70);
place = (528, 70);
type = Stem;
}
);
layerId = m01;
shapes = (
{
closed = 1;
nodes = (
(105,0,l),
(187,0,l),
(187,202,l),
(304,202,ls),
(452,202,o),
(539,277,o),
(539,404,cs),
(539,526,o),
(458,598,o),
(322,598,cs),
(187,598,l),
(187,697,l),
(105,697,l)
);
},
{
closed = 1;
nodes = (
(187,277,l),
(187,528,l),
(304,528,ls),
(402,528,o),
(457,483,o),
(457,401,cs),
(457,320,o),
(404,277,o),
(304,277,cs)
);
}
);
width = 579;
}
);
note = Thorn;
unicode = 222;
},
{
glyphname = Q;
kernLeft = C;
kernRight = Q;
lastChange = "2022-12-26 06:08:50 +0000";
layers = (
{
hints = (
{
horizontal = 1;
place = (-3, 21);
target = up;
type = BottomGhost;
},
{
horizontal = 1;
place = (624, 85);
place = (624, 85);
type = Stem;
},
{
place = (56, 89);
place = (56, 89);
type = Stem;
},
{
place = (615, 89);
place = (615, 89);
type = Stem;
},
{
horizontal = 1;
place = (-12, 85);
place = (-12, 85);
type = Stem;
}
);
layerId = m01;
shapes = (
{
closed = 1;
nodes = (
(699,-27,l),
(684,37,l),
(623,97,l),
(674,159,o),
(704,245,o),
(704,348,cs),
(704,565,o),
(574,709,o),
(380,709,cs),
(187,709,o),
(56,565,o),
(56,348,cs),
(56,132,o),
(187,-12,o),
(380,-12,cs),
(451,-12,o),
(514,8,o),
(565,44,c),
(668,-56,l)
);
},
{
closed = 1;
nodes = (
(237,73,o),
(145,180,o),
(145,348,cs),
(145,517,o),
(237,624,o),
(380,624,cs),
(523,624,o),
(615,517,o),
(615,348,cs),
(615,270,o),
(595,205,o),
(560,158,c),
(453,263,l),
(396,208,l),
(502,105,l),
(468,84,o),
(426,73,o),
(380,73,cs)
);
}
);
width = 778;
}
);
note = Q;
unicode = 81;
},
{
glyphname = R;
kernLeft = B;
kernRight = R;
lastChange = "2022-12-26 06:09:30 +0000";
layers = (
{
hints = (
{
horizontal = 1;
place = (0, 21);
target = up;
type = BottomGhost;
},
{
horizontal = 1;
place = (302, 83);
place = (302, 83);
type = Stem;
},
{
horizontal = 1;
place = (615, 82);
place = (615, 82);
type = Stem;
},
{
place = (105, 89);
place = (105, 89);
type = Stem;
},
{
place = (457, 89);
place = (457, 89);
type = Stem;
}
);
layerId = m01;
shapes = (
{
closed = 1;
nodes = (
(555,0,ls),
(565,0,o),
(567,4,o),
(562,13,cs),
(381,314,l),
(509,343,o),
(546,402,o),
(546,501,cs),
(546,627,o),
(469,697,o),
(314,697,cs),
(105,697,l),
(105,0,l),
(150,0,l),
(194,50,l),
(194,302,l),
(274,302,l),
(292,302,l),
(467,0,l)
);
},
{
closed = 1;
nodes = (
(194,385,l),
(194,615,l),
(305,615,ls),
(405,615,o),
(457,579,o),
(457,500,cs),
(457,421,o),
(405,385,o),
(305,385,cs)
);
}
);
width = 629;
}
);
note = R;
unicode = 82;
},
{
glyphname = Racute;
kernLeft = B;
kernRight = R;
layers = (
{
hints = (
{
horizontal = 1;
place = (0, 21);
target = up;
type = BottomGhost;
},
{
horizontal = 1;
place = (302, 83);
place = (302, 83);
type = Stem;
},
{
horizontal = 1;
place = (615, 82);
place = (615, 82);
type = Stem;
},
{
horizontal = 1;
place = (760, 141);
place = (760, 141);
type = Stem;
},
{
place = (105, 89);
place = (105, 89);
type = Stem;
},
{
place = (457, 89);
place = (457, 89);
type = Stem;
}
);
layerId = m01;
shapes = (
{
closed = 1;
nodes = (
(484,901,l),
(392,901,l),
(283,760,l),
(347,760,l)
);
},
{
closed = 1;
nodes = (
(597,0,l),
(408,314,l),
(498,339,o),
(546,402,o),
(546,501,cs),
(546,627,o),
(469,697,o),
(314,697,cs),
(105,697,l),
(105,0,l),
(194,0,l),
(194,302,l),
(274,302,l),
(319,302,l),
(494,0,l)
);
},
{
closed = 1;
nodes = (
(194,385,l),
(194,615,l),
(305,615,ls),
(405,615,o),
(457,579,o),
(457,500,cs),
(457,421,o),
(405,385,o),
(305,385,cs)
);
}
);
width = 629;
}
);
note = Racute;
unicode = 340;
},
{
glyphname = Rcaron;
kernLeft = B;
kernRight = R;
layers = (
{
hints = (
{
horizontal = 1;
place = (0, 21);
target = up;
type = BottomGhost;
},
{
horizontal = 1;
place = (302, 83);
place = (302, 83);
type = Stem;
},
{
horizontal = 1;
place = (615, 82);
place = (615, 82);
type = Stem;
},
{
place = (105, 89);
place = (105, 89);
type = Stem;
},
{
place = (457, 89);
place = (457, 89);
type = Stem;
}
);
layerId = m01;
shapes = (
{
closed = 1;
nodes = (
(466,901,l),
(397,901,l),
(315,815,l),
(233,901,l),
(164,901,l),
(315,744,l)
);
},
{
closed = 1;
nodes = (
(597,0,l),
(408,314,l),
(498,339,o),
(546,402,o),
(546,501,cs),
(546,627,o),
(469,697,o),
(314,697,cs),
(105,697,l),
(105,0,l),
(194,0,l),
(194,302,l),
(274,302,l),
(319,302,l),
(494,0,l)
);
},
{
closed = 1;
nodes = (
(194,385,l),
(194,615,l),
(305,615,ls),
(405,615,o),
(457,579,o),
(457,500,cs),
(457,421,o),
(405,385,o),
(305,385,cs)
);
}
);
width = 629;
}
);
note = Rcaron;
unicode = 344;
},
{
glyphname = uni0156;
kernLeft = B;
kernRight = R;
layers = (
{
hints = (
{
horizontal = 1;
place = (-223, 168);
place = (-223, 168);
type = Stem;
},
{
horizontal = 1;
place = (0, 21);
target = up;
type = BottomGhost;
},
{
horizontal = 1;
place = (302, 83);
place = (302, 83);
type = Stem;
},
{
horizontal = 1;
place = (615, 82);
place = (615, 82);
type = Stem;
},
{
place = (105, 89);
place = (105, 89);
type = Stem;
},
{
place = (457, 89);
place = (457, 89);
type = Stem;
}
);
layerId = m01;
shapes = (
{
closed = 1;
nodes = (
(408,314,l),
(498,339,o),
(546,402,o),
(546,501,cs),
(546,627,o),
(469,697,o),
(314,697,cs),
(105,697,l),
(105,0,l),
(194,0,l),
(194,302,l),
(274,302,l),
(319,302,l),
(494,0,l),
(597,0,l)
);
},
{
closed = 1;
nodes = (
(194,385,l),
(194,615,l),
(305,615,ls),
(405,615,o),
(457,579,o),
(457,500,cs),
(457,421,o),
(405,385,o),
(305,385,cs)
);
},
{
closed = 1;
nodes = (
(188,-223,l),
(241,-223,l),
(360,-55,l),
(269,-55,l)
);
}
);
width = 629;
}
);
note = uni0156;
unicode = 342;
},
{
glyphname = S;
kernLeft = S;
kernRight = S;
layers = (
{
hints = (
{
horizontal = 1;
place = (-11, 80);
place = (-11, 80);
type = Stem;
},
{
horizontal = 1;
place = (629, 80);
place = (629, 80);
type = Stem;
},
{
place = (83, 89);
place = (83, 89);
type = Stem;
},
{
place = (433, 90);
place = (433, 90);
type = Stem;
}
);
layerId = m01;
shapes = (
{
closed = 1;
nodes = (
(436,-11,o),
(523,68,o),
(523,189,cs),
(523,287,o),
(477,342,o),
(324,400,cs),
(216,442,o),
(172,473,o),
(172,531,cs),
(172,585,o),
(220,629,o),
(285,629,cs),
(341,629,o),
(388,598,o),
(416,545,c),
(491,591,l),
(448,668,o),
(378,709,o),
(288,709,cs),
(166,709,o),
(83,636,o),
(83,528,cs),
(83,434,o),
(133,383,o),
(276,328,cs),
(392,283,o),
(433,247,o),
(433,181,cs),
(433,116,o),
(384,69,o),
(293,69,cs),
(204,69,o),
(140,122,o),
(128,210,c),
(40,188,l),
(59,68,o),
(160,-11,o),
(292,-11,cs)
);
}
);
width = 569;
}
);
note = S;
unicode = 83;
},
{
glyphname = Sacute;
kernLeft = S;
kernRight = S;
layers = (
{
hints = (
{
horizontal = 1;
place = (-11, 80);
place = (-11, 80);
type = Stem;
},
{
horizontal = 1;
place = (629, 80);
place = (629, 80);
type = Stem;
},
{
horizontal = 1;
place = (760, 141);
place = (760, 141);
type = Stem;
},
{
place = (83, 89);
place = (83, 89);
type = Stem;
},
{
place = (433, 90);
place = (433, 90);
type = Stem;
}
);
layerId = m01;
shapes = (
{
closed = 1;
nodes = (
(253,760,l),
(317,760,l),
(454,901,l),
(362,901,l)
);
},
{
closed = 1;
nodes = (
(436,-11,o),
(523,68,o),
(523,189,cs),
(523,287,o),
(477,342,o),
(324,400,cs),
(216,442,o),
(172,473,o),
(172,531,cs),
(172,585,o),
(220,629,o),
(285,629,cs),
(341,629,o),
(388,598,o),
(416,545,c),
(491,591,l),
(448,668,o),
(378,709,o),
(288,709,cs),
(166,709,o),
(83,636,o),
(83,528,cs),
(83,434,o),
(133,383,o),
(276,328,cs),
(392,283,o),
(433,247,o),
(433,181,cs),
(433,116,o),
(384,69,o),
(293,69,cs),
(204,69,o),
(140,122,o),
(128,210,c),
(40,188,l),
(59,68,o),
(160,-11,o),
(292,-11,cs)
);
}
);
width = 569;
}
);
note = Sacute;
unicode = 346;
},
{
glyphname = Scaron;
kernLeft = S;
kernRight = S;
layers = (
{
hints = (
{
horizontal = 1;
place = (-11, 80);
place = (-11, 80);
type = Stem;
},
{
horizontal = 1;
place = (629, 80);
place = (629, 80);
type = Stem;
},
{
place = (83, 89);
place = (83, 89);
type = Stem;
},
{
place = (433, 90);
place = (433, 90);
type = Stem;
}
);
layerId = m01;
shapes = (
{
closed = 1;
nodes = (
(284,744,l),
(435,901,l),
(366,901,l),
(284,815,l),
(202,901,l),
(133,901,l)
);
},
{
closed = 1;
nodes = (
(436,-11,o),
(523,68,o),
(523,189,cs),
(523,287,o),
(477,342,o),
(324,400,cs),
(216,442,o),
(172,473,o),
(172,531,cs),
(172,585,o),
(220,629,o),
(285,629,cs),
(341,629,o),
(388,598,o),
(416,545,c),
(491,591,l),
(448,668,o),
(378,709,o),
(288,709,cs),
(166,709,o),
(83,636,o),
(83,528,cs),
(83,434,o),
(133,383,o),
(276,328,cs),
(392,283,o),
(433,247,o),
(433,181,cs),
(433,116,o),
(384,69,o),
(293,69,cs),
(204,69,o),
(140,122,o),
(128,210,c),
(40,188,l),
(59,68,o),
(160,-11,o),
(292,-11,cs)
);
}
);
width = 569;
}
);
note = Scaron;
unicode = 352;
},
{
glyphname = Scedilla;
kernLeft = S;
kernRight = S;
layers = (
{
hints = (
{
horizontal = 1;
place = (-256, 51);
place = (-256, 51);
type = Stem;
},
{
horizontal = 1;
place = (-9, 21);
target = up;
type = BottomGhost;
},
{
horizontal = 1;
place = (629, 80);
place = (629, 80);
type = Stem;
},
{
place = (83, 89);
place = (83, 89);
type = Stem;
},
{
place = (328, 52);
place = (328, 52);
type = Stem;
},
{
place = (433, 90);
place = (433, 90);
type = Stem;
},
{
horizontal = 1;
place = (-95, 164);
place = (-95, 164);
type = Stem;
},
{
horizontal = 1;
place = (-95, 36);
place = (-95, 36);
type = Stem;
}
);
layerId = m01;
shapes = (
{
closed = 1;
nodes = (
(523,287,o),
(477,342,o),
(324,400,cs),
(216,442,o),
(172,473,o),
(172,531,cs),
(172,585,o),
(220,629,o),
(285,629,cs),
(341,629,o),
(388,598,o),
(416,545,c),
(491,591,l),
(448,668,o),
(378,709,o),
(288,709,cs),
(166,709,o),
(83,636,o),
(83,528,cs),
(83,434,o),
(133,383,o),
(276,328,cs),
(392,283,o),
(433,247,o),
(433,181,cs),
(433,116,o),
(384,69,o),
(293,69,cs),
(204,69,o),
(140,122,o),
(128,210,c),
(40,188,l),
(57,80,o),
(140,5,o),
(253,-9,c),
(202,-95,l),
(229,-95,o),
(254,-96,o),
(274,-101,cs),
(304,-108,o),
(328,-123,o),
(328,-155,cs),
(328,-186,o),
(308,-205,o),
(276,-205,cs),
(256,-205,o),
(232,-196,o),
(215,-173,c),
(185,-214,l),
(210,-243,o),
(245,-256,o),
(273,-256,cs),
(336,-256,o),
(380,-212,o),
(380,-153,cs),
(380,-117,o),
(362,-91,o),
(330,-76,cs),
(313,-68,o),
(295,-63,o),
(271,-59,c),
(303,-11,l),
(440,-7,o),
(523,71,o),
(523,189,cs)
);
}
);
width = 569;
}
);
note = Scedilla;
unicode = 350;
},
{
glyphname = uni0218;
kernLeft = S;
kernRight = S;
layers = (
{
hints = (
{
horizontal = 1;
place = (-223, 168);
place = (-223, 168);
type = Stem;
},
{
horizontal = 1;
place = (-11, 80);
place = (-11, 80);
type = Stem;
},
{
horizontal = 1;
place = (629, 80);
place = (629, 80);
type = Stem;
},
{
place = (83, 89);
place = (83, 89);
type = Stem;
},
{
place = (433, 90);
place = (433, 90);
type = Stem;
}
);
layerId = m01;
shapes = (
{
closed = 1;
nodes = (
(436,-11,o),
(523,68,o),
(523,189,cs),
(523,287,o),
(477,342,o),
(324,400,cs),
(216,442,o),
(172,473,o),
(172,531,cs),
(172,585,o),
(220,629,o),
(285,629,cs),
(341,629,o),
(388,598,o),
(416,545,c),
(491,591,l),
(448,668,o),
(378,709,o),
(288,709,cs),
(166,709,o),
(83,636,o),
(83,528,cs),
(83,434,o),
(133,383,o),
(276,328,cs),
(392,283,o),
(433,247,o),
(433,181,cs),
(433,116,o),
(384,69,o),
(293,69,cs),
(204,69,o),
(140,122,o),
(128,210,c),
(40,188,l),
(59,68,o),
(160,-11,o),
(292,-11,cs)
);
},
{
closed = 1;
nodes = (
(157,-223,l),
(210,-223,l),
(329,-55,l),
(238,-55,l)
);
}
);
width = 569;
}
);
note = uni0218;
unicode = 536;
},
{
glyphname = uni1E9E;
layers = (
{
hints = (
{
horizontal = 1;
place = (-10, 83);
place = (-10, 83);
type = Stem;
},
{
horizontal = 1;
place = (611, 86);
place = (611, 86);
type = Stem;
},
{
place = (91, 89);
place = (91, 89);
type = Stem;
},
{
place = (289, 90);
place = (289, 90);
type = Stem;
},
{
place = (553, 97);
place = (553, 97);
type = Stem;
},
{
horizontal = 1;
place = (0, 21);
target = up;
type = BottomGhost;
}
);
layerId = m01;
shapes = (
{
closed = 1;
nodes = (
(573,-10,o),
(650,53,o),
(650,143,cs),
(650,328,o),
(379,267,o),
(379,365,cs),
(379,387,o),
(392,404,o),
(405,419,cs),
(589,631,l),
(589,697,l),
(332,697,ls),
(112,697,o),
(91,545,o),
(91,436,cs),
(91,0,l),
(180,0,l),
(180,436,ls),
(180,554,o),
(220,611,o),
(332,611,cs),
(465,611,l),
(343,471,ls),
(317,441,o),
(289,414,o),
(289,358,cs),
(289,192,o),
(553,257,o),
(553,140,cs),
(553,99,o),
(522,73,o),
(466,73,cs),
(397,73,o),
(352,113,o),
(330,164,c),
(254,124,l),
(279,48,o),
(359,-10,o),
(463,-10,cs)
);
}
);
width = 689;
}
);
note = uni1E9E;
unicode = 7838;
},
{
glyphname = T;
kernLeft = T;
kernRight = T;
lastChange = "2022-12-26 06:09:55 +0000";
layers = (
{
hints = (
{
horizontal = 1;
place = (0, 21);
target = up;
type = BottomGhost;
},
{
horizontal = 1;
place = (615, 82);
place = (615, 82);
type = Stem;
},
{
place = (259, 90);
place = (259, 90);
type = Stem;
}
);
layerId = m01;
shapes = (
{
closed = 1;
nodes = (
(259,0,l),
(304,0,l),
(349,50,l),
(349,615,l),
(583,615,l),
(583,697,l),
(25,697,l),
(25,615,l),
(259,615,l)
);
}
);
width = 608;
}
);
note = T;
unicode = 84;
},
{
glyphname = Tbar;
kernLeft = T;
kernRight = T;
layers = (
{
hints = (
{
horizontal = 1;
place = (0, 21);
target = up;
type = BottomGhost;
},
{
horizontal = 1;
place = (320, 58);
place = (320, 58);
type = Stem;
},
{
horizontal = 1;
place = (615, 82);
place = (615, 82);
type = Stem;
},
{
place = (259, 90);
place = (259, 90);
type = Stem;
}
);
layerId = m01;
shapes = (
{
closed = 1;
nodes = (
(583,615,l),
(583,697,l),
(25,697,l),
(25,615,l),
(259,615,l),
(259,378,l),
(160,378,l),
(160,320,l),
(259,320,l),
(259,0,l),
(349,0,l),
(349,320,l),
(448,320,l),
(448,378,l),
(349,378,l),
(349,615,l)
);
}
);
width = 608;
}
);
note = Tbar;
unicode = 358;
},
{
glyphname = Tcaron;
kernLeft = T;
kernRight = T;
layers = (
{
hints = (
{
horizontal = 1;
place = (0, 21);
target = up;
type = BottomGhost;
},
{
horizontal = 1;
place = (615, 82);
place = (615, 82);
type = Stem;
},
{
place = (259, 90);
place = (259, 90);
type = Stem;
}
);
layerId = m01;
shapes = (
{
closed = 1;
nodes = (
(304,744,l),
(455,901,l),
(386,901,l),
(304,815,l),
(222,901,l),
(153,901,l)
);
},
{
closed = 1;
nodes = (
(259,0,l),
(349,0,l),
(349,615,l),
(583,615,l),
(583,697,l),
(25,697,l),
(25,615,l),
(259,615,l)
);
}
);
width = 608;
}
);
note = Tcaron;
unicode = 356;
},
{
glyphname = uni0162;
kernLeft = T;
kernRight = T;
layers = (
{
hints = (
{
horizontal = 1;
place = (-256, 51);
place = (-256, 51);
type = Stem;
},
{
horizontal = 1;
place = (-95, 36);
place = (-95, 36);
type = Stem;
},
{
horizontal = 1;
place = (0, 21);
target = up;
type = BottomGhost;
},
{
horizontal = 1;
place = (615, 82);
place = (615, 82);
type = Stem;
},
{
place = (259, 90);
place = (259, 90);
type = Stem;
},
{
place = (347, 52);
place = (347, 52);
type = Stem;
}
);
layerId = m01;
shapes = (
{
closed = 1;
nodes = (
(349,0,l),
(349,615,l),
(583,615,l),
(583,697,l),
(25,697,l),
(25,615,l),
(259,615,l),
(259,0,l),
(277,0,l),
(221,-95,l),
(248,-95,o),
(273,-96,o),
(293,-101,cs),
(323,-108,o),
(347,-123,o),
(347,-155,cs),
(347,-186,o),
(327,-205,o),
(295,-205,cs),
(275,-205,o),
(251,-196,o),
(234,-173,c),
(204,-214,l),
(229,-243,o),
(264,-256,o),
(292,-256,cs),
(355,-256,o),
(399,-212,o),
(399,-153,cs),
(399,-117,o),
(381,-91,o),
(349,-76,cs),
(332,-68,o),
(314,-63,o),
(290,-59,c),
(329,0,l)
);
}
);
width = 608;
}
);
note = uni0162;
unicode = 354;
},
{
glyphname = uni021A;
kernLeft = T;
kernRight = T;
layers = (
{
hints = (
{
horizontal = 1;
place = (-223, 168);
place = (-223, 168);
type = Stem;
},
{
horizontal = 1;
place = (0, 21);
target = up;
type = BottomGhost;
},
{
horizontal = 1;
place = (615, 82);
place = (615, 82);
type = Stem;
},
{
place = (259, 90);
place = (259, 90);
type = Stem;
}
);
layerId = m01;
shapes = (
{
closed = 1;
nodes = (
(259,0,l),
(349,0,l),
(349,615,l),
(583,615,l),
(583,697,l),
(25,697,l),
(25,615,l),
(259,615,l)
);
},
{
closed = 1;
nodes = (
(177,-223,l),
(230,-223,l),
(349,-55,l),
(258,-55,l)
);
}
);
width = 608;
}
);
note = uni021A;
unicode = 538;
},
{
glyphname = U;
kernLeft = U;
kernRight = J;
lastChange = "2022-12-26 06:10:06 +0000";
layers = (
{
hints = (
{
horizontal = 1;
place = (-12, 87);
place = (-12, 87);
type = Stem;
},
{
horizontal = 1;
place = (697, -20);
target = down;
type = TopGhost;
},
{
place = (91, 89);
place = (91, 89);
type = Stem;
},
{
place = (513, 89);
place = (513, 89);
type = Stem;
}
);
layerId = m01;
shapes = (
{
closed = 1;
nodes = (
(528,697,ls),
(518,697,o),
(513,692,o),
(513,682,cs),
(513,263,ls),
(513,133,o),
(462,75,o),
(346,75,cs),
(231,75,o),
(180,132,o),
(180,261,cs),
(180,682,ls),
(180,692,o),
(175,697,o),
(165,697,cs),
(91,697,l),
(91,252,ls),
(91,79,o),
(180,-12,o),
(346,-12,cs),
(513,-12,o),
(602,80,o),
(602,257,cs),
(602,697,l)
);
}
);
width = 693;
}
);
note = U;
unicode = 85;
},
{
glyphname = Uacute;
kernLeft = U;
kernRight = J;
layers = (
{
hints = (
{
horizontal = 1;
place = (-12, 87);
place = (-12, 87);
type = Stem;
},
{
horizontal = 1;
place = (697, -20);
target = down;
type = TopGhost;
},
{
horizontal = 1;
place = (760, 141);
place = (760, 141);
type = Stem;
},
{
place = (91, 89);
place = (91, 89);
type = Stem;
},
{
place = (513, 89);
place = (513, 89);
type = Stem;
}
);
layerId = m01;
shapes = (
{
closed = 1;
nodes = (
(315,760,l),
(379,760,l),
(516,901,l),
(424,901,l)
);
},
{
closed = 1;
nodes = (
(513,-12,o),
(602,80,o),
(602,257,cs),
(602,697,l),
(513,697,l),
(513,263,ls),
(513,133,o),
(462,75,o),
(346,75,cs),
(231,75,o),
(180,132,o),
(180,261,cs),
(180,697,l),
(91,697,l),
(91,252,ls),
(91,79,o),
(180,-12,o),
(346,-12,cs)
);
}
);
width = 693;
}
);
note = Uacute;
unicode = 218;
},
{
glyphname = uni01D3;
kernLeft = U;
kernRight = J;
layers = (
{
hints = (
{
horizontal = 1;
place = (-12, 87);
place = (-12, 87);
type = Stem;
},
{
horizontal = 1;
place = (697, -20);
target = down;
type = TopGhost;
},
{
place = (91, 89);
place = (91, 89);
type = Stem;
},
{
place = (513, 89);
place = (513, 89);
type = Stem;
}
);
layerId = m01;
shapes = (
{
closed = 1;
nodes = (
(347,744,l),
(498,901,l),
(429,901,l),
(347,815,l),
(265,901,l),
(196,901,l)
);
},
{
closed = 1;
nodes = (
(513,-12,o),
(602,80,o),
(602,257,cs),
(602,697,l),
(513,697,l),
(513,263,ls),
(513,133,o),
(462,75,o),
(346,75,cs),
(231,75,o),
(180,132,o),
(180,261,cs),
(180,697,l),
(91,697,l),
(91,252,ls),
(91,79,o),
(180,-12,o),
(346,-12,cs)
);
}
);
width = 693;
}
);
note = uni01D3;
unicode = 467;
},
{
glyphname = Ucircumflex;
kernLeft = U;
kernRight = J;
layers = (
{
hints = (
{
horizontal = 1;
place = (-12, 87);
place = (-12, 87);
type = Stem;
},
{
horizontal = 1;
place = (697, -20);
target = down;
type = TopGhost;
},
{
place = (91, 89);
place = (91, 89);
type = Stem;
},
{
place = (513, 89);
place = (513, 89);
type = Stem;
}
);
layerId = m01;
shapes = (
{
closed = 1;
nodes = (
(196,750,l),
(265,750,l),
(347,839,l),
(429,750,l),
(498,750,l),
(347,914,l)
);
},
{
closed = 1;
nodes = (
(513,-12,o),
(602,80,o),
(602,257,cs),
(602,697,l),
(513,697,l),
(513,263,ls),
(513,133,o),
(462,75,o),
(346,75,cs),
(231,75,o),
(180,132,o),
(180,261,cs),
(180,697,l),
(91,697,l),
(91,252,ls),
(91,79,o),
(180,-12,o),
(346,-12,cs)
);
}
);
width = 693;
}
);
note = Ucircumflex;
unicode = 219;
},
{
glyphname = Udieresis;
kernLeft = U;
kernRight = J;
layers = (
{
hints = (
{
horizontal = 1;
place = (-12, 87);
place = (-12, 87);
type = Stem;
},
{
horizontal = 1;
place = (697, -20);
target = down;
type = TopGhost;
},
{
horizontal = 1;
place = (796, 105);
place = (796, 105);
type = Stem;
},
{
place = (91, 89);
place = (91, 89);
type = Stem;
},
{
place = (211, 87);
place = (211, 87);
type = Stem;
},
{
place = (513, 89);
place = (513, 89);
type = Stem;
},
{
place = (396, 87);
place = (396, 87);
type = Stem;
}
);
layerId = m01;
shapes = (
{
closed = 1;
nodes = (
(211,796,l),
(298,796,l),
(298,901,l),
(211,901,l)
);
},
{
closed = 1;
nodes = (
(396,796,l),
(483,796,l),
(483,901,l),
(396,901,l)
);
},
{
closed = 1;
nodes = (
(513,-12,o),
(602,80,o),
(602,257,cs),
(602,697,l),
(513,697,l),
(513,263,ls),
(513,133,o),
(462,75,o),
(346,75,cs),
(231,75,o),
(180,132,o),
(180,261,cs),
(180,697,l),
(91,697,l),
(91,252,ls),
(91,79,o),
(180,-12,o),
(346,-12,cs)
);
}
);
width = 693;
}
);
note = Udieresis;
unicode = 220;
},
{
glyphname = uni01D7;
kernLeft = U;
kernRight = J;
layers = (
{
hints = (
{
horizontal = 1;
place = (-12, 87);
place = (-12, 87);
type = Stem;
},
{
horizontal = 1;
place = (697, -20);
target = down;
type = TopGhost;
},
{
horizontal = 1;
place = (796, 105);
place = (796, 105);
type = Stem;
},
{
horizontal = 1;
place = (964, 141);
place = (964, 141);
type = Stem;
},
{
place = (91, 89);
place = (91, 89);
type = Stem;
},
{
place = (211, 87);
place = (211, 87);
type = Stem;
},
{
place = (513, 89);
place = (513, 89);
type = Stem;
},
{
place = (396, 87);
place = (396, 87);
type = Stem;
}
);
layerId = m01;
shapes = (
{
closed = 1;
nodes = (
(315,964,l),
(379,964,l),
(516,1105,l),
(424,1105,l)
);
},
{
closed = 1;
nodes = (
(211,796,l),
(298,796,l),
(298,901,l),
(211,901,l)
);
},
{
closed = 1;
nodes = (
(396,796,l),
(483,796,l),
(483,901,l),
(396,901,l)
);
},
{
closed = 1;
nodes = (
(513,-12,o),
(602,80,o),
(602,257,cs),
(602,697,l),
(513,697,l),
(513,263,ls),
(513,133,o),
(462,75,o),
(346,75,cs),
(231,75,o),
(180,132,o),
(180,261,cs),
(180,697,l),
(91,697,l),
(91,252,ls),
(91,79,o),
(180,-12,o),
(346,-12,cs)
);
}
);
width = 693;
}
);
note = uni01D7;
unicode = 471;
},
{
glyphname = uni01D9;
kernLeft = U;
kernRight = J;
layers = (
{
hints = (
{
horizontal = 1;
place = (-12, 87);
place = (-12, 87);
type = Stem;
},
{
horizontal = 1;
place = (697, -20);
target = down;
type = TopGhost;
},
{
horizontal = 1;
place = (796, 105);
place = (796, 105);
type = Stem;
},
{
place = (91, 89);
place = (91, 89);
type = Stem;
},
{
place = (211, 87);
place = (211, 87);
type = Stem;
},
{
place = (513, 89);
place = (513, 89);
type = Stem;
},
{
place = (396, 87);
place = (396, 87);
type = Stem;
}
);
layerId = m01;
shapes = (
{
closed = 1;
nodes = (
(347,948,l),
(498,1105,l),
(429,1105,l),
(347,1019,l),
(265,1105,l),
(196,1105,l)
);
},
{
closed = 1;
nodes = (
(211,796,l),
(298,796,l),
(298,901,l),
(211,901,l)
);
},
{
closed = 1;
nodes = (
(396,796,l),
(483,796,l),
(483,901,l),
(396,901,l)
);
},
{
closed = 1;
nodes = (
(513,-12,o),
(602,80,o),
(602,257,cs),
(602,697,l),
(513,697,l),
(513,263,ls),
(513,133,o),
(462,75,o),
(346,75,cs),
(231,75,o),
(180,132,o),
(180,261,cs),
(180,697,l),
(91,697,l),
(91,252,ls),
(91,79,o),
(180,-12,o),
(346,-12,cs)
);
}
);
width = 693;
}
);
note = uni01D9;
unicode = 473;
},
{
glyphname = uni01DB;
kernLeft = U;
kernRight = J;
layers = (
{
hints = (
{
horizontal = 1;
place = (-12, 87);
place = (-12, 87);
type = Stem;
},
{
horizontal = 1;
place = (697, -20);
target = down;
type = TopGhost;
},
{
horizontal = 1;
place = (796, 105);
place = (796, 105);
type = Stem;
},
{
horizontal = 1;
place = (964, 141);
place = (964, 141);
type = Stem;
},
{
place = (91, 89);
place = (91, 89);
type = Stem;
},
{
place = (211, 87);
place = (211, 87);
type = Stem;
},
{
place = (513, 89);
place = (513, 89);
type = Stem;
},
{
place = (396, 87);
place = (396, 87);
type = Stem;
}
);
layerId = m01;
shapes = (
{
closed = 1;
nodes = (
(314,964,l),
(380,964,l),
(276,1105,l),
(184,1105,l)
);
},
{
closed = 1;
nodes = (
(211,796,l),
(298,796,l),
(298,901,l),
(211,901,l)
);
},
{
closed = 1;
nodes = (
(396,796,l),
(483,796,l),
(483,901,l),
(396,901,l)
);
},
{
closed = 1;
nodes = (
(513,-12,o),
(602,80,o),
(602,257,cs),
(602,697,l),
(513,697,l),
(513,263,ls),
(513,133,o),
(462,75,o),
(346,75,cs),
(231,75,o),
(180,132,o),
(180,261,cs),
(180,697,l),
(91,697,l),
(91,252,ls),
(91,79,o),
(180,-12,o),
(346,-12,cs)
);
}
);
width = 693;
}
);
note = uni01DB;
unicode = 475;
},
{
glyphname = uni01D5;
kernLeft = U;
kernRight = J;
layers = (
{
hints = (
{
horizontal = 1;
place = (-12, 87);
place = (-12, 87);
type = Stem;
},
{
horizontal = 1;
place = (697, -20);
target = down;
type = TopGhost;
},
{
horizontal = 1;
place = (796, 105);
place = (796, 105);
type = Stem;
},
{
horizontal = 1;
place = (996, 51);
place = (996, 51);
type = Stem;
},
{
place = (91, 89);
place = (91, 89);
type = Stem;
},
{
place = (211, 87);
place = (211, 87);
type = Stem;
},
{
place = (513, 89);
place = (513, 89);
type = Stem;
},
{
place = (396, 87);
place = (396, 87);
type = Stem;
}
);
layerId = m01;
shapes = (
{
closed = 1;
nodes = (
(210,996,l),
(482,996,l),
(482,1047,l),
(210,1047,l)
);
},
{
closed = 1;
nodes = (
(211,796,l),
(298,796,l),
(298,901,l),
(211,901,l)
);
},
{
closed = 1;
nodes = (
(396,796,l),
(483,796,l),
(483,901,l),
(396,901,l)
);
},
{
closed = 1;
nodes = (
(513,-12,o),
(602,80,o),
(602,257,cs),
(602,697,l),
(513,697,l),
(513,263,ls),
(513,133,o),
(462,75,o),
(346,75,cs),
(231,75,o),
(180,132,o),
(180,261,cs),
(180,697,l),
(91,697,l),
(91,252,ls),
(91,79,o),
(180,-12,o),
(346,-12,cs)
);
}
);
width = 693;
}
);
note = uni01D5;
unicode = 469;
},
{
glyphname = uni1EE4;
kernLeft = U;
kernRight = J;
layers = (
{
hints = (
{
horizontal = 1;
place = (-173, 104);
place = (-173, 104);
type = Stem;
},
{
horizontal = 1;
place = (-12, 87);
place = (-12, 87);
type = Stem;
},
{
horizontal = 1;
place = (697, -20);
target = down;
type = TopGhost;
},
{
place = (91, 89);
place = (91, 89);
type = Stem;
},
{
place = (299, 96);
place = (299, 96);
type = Stem;
},
{
place = (513, 89);
place = (513, 89);
type = Stem;
}
);
layerId = m01;
shapes = (
{
closed = 1;
nodes = (
(513,-12,o),
(602,80,o),
(602,257,cs),
(602,697,l),
(513,697,l),
(513,263,ls),
(513,133,o),
(462,75,o),
(346,75,cs),
(231,75,o),
(180,132,o),
(180,261,cs),
(180,697,l),
(91,697,l),
(91,252,ls),
(91,79,o),
(180,-12,o),
(346,-12,cs)
);
},
{
closed = 1;
nodes = (
(299,-173,l),
(395,-173,l),
(395,-69,l),
(299,-69,l)
);
}
);
width = 693;
}
);
note = uni1EE4;
unicode = 7908;
},
{
glyphname = Ugrave;
kernLeft = U;
kernRight = J;
layers = (
{
hints = (
{
horizontal = 1;
place = (-12, 87);
place = (-12, 87);
type = Stem;
},
{
horizontal = 1;
place = (697, -20);
target = down;
type = TopGhost;
},
{
horizontal = 1;
place = (760, 141);
place = (760, 141);
type = Stem;
},
{
place = (91, 89);
place = (91, 89);
type = Stem;
},
{
place = (513, 89);
place = (513, 89);
type = Stem;
}
);
layerId = m01;
shapes = (
{
closed = 1;
nodes = (
(314,760,l),
(380,760,l),
(276,901,l),
(184,901,l)
);
},
{
closed = 1;
nodes = (
(513,-12,o),
(602,80,o),
(602,257,cs),
(602,697,l),
(513,697,l),
(513,263,ls),
(513,133,o),
(462,75,o),
(346,75,cs),
(231,75,o),
(180,132,o),
(180,261,cs),
(180,697,l),
(91,697,l),
(91,252,ls),
(91,79,o),
(180,-12,o),
(346,-12,cs)
);
}
);
width = 693;
}
);
note = Ugrave;
unicode = 217;
},
{
glyphname = uni1EE6;
kernLeft = U;
kernRight = J;
layers = (
{
hints = (
{
horizontal = 1;
place = (-12, 87);
place = (-12, 87);
type = Stem;
},
{
horizontal = 1;
place = (697, -20);
target = down;
type = TopGhost;
},
{
horizontal = 1;
place = (873, 49);
place = (873, 49);
type = Stem;
},
{
place = (91, 89);
place = (91, 89);
type = Stem;
},
{
place = (401, 57);
place = (401, 57);
type = Stem;
},
{
place = (513, 89);
place = (513, 89);
type = Stem;
}
);
layerId = m01;
shapes = (
{
closed = 1;
nodes = (
(340,736,l),
(390,745,o),
(458,757,o),
(458,824,cs),
(458,888,o),
(398,922,o),
(315,922,cs),
(300,922,l),
(300,873,l),
(315,873,ls),
(358,873,o),
(401,863,o),
(401,825,cs),
(401,790,o),
(363,784,o),
(327,778,c)
);
},
{
closed = 1;
nodes = (
(513,-12,o),
(602,80,o),
(602,257,cs),
(602,697,l),
(513,697,l),
(513,263,ls),
(513,133,o),
(462,75,o),
(346,75,cs),
(231,75,o),
(180,132,o),
(180,261,cs),
(180,697,l),
(91,697,l),
(91,252,ls),
(91,79,o),
(180,-12,o),
(346,-12,cs)
);
}
);
width = 693;
}
);
note = uni1EE6;
unicode = 7910;
},
{
glyphname = Uhorn;
kernLeft = U;
kernRight = J;
layers = (
{
hints = (
{
horizontal = 1;
place = (-12, 87);
place = (-12, 87);
type = Stem;
},
{
horizontal = 1;
place = (697, -20);
target = down;
type = TopGhost;
},
{
place = (91, 89);
place = (91, 89);
type = Stem;
},
{
place = (513, 89);
place = (513, 89);
type = Stem;
},
{
place = (674, 65);
place = (674, 65);
type = Stem;
}
);
layerId = m01;
shapes = (
{
closed = 1;
nodes = (
(674,697,l),
(674,645,ls),
(674,599,o),
(656,557,o),
(602,553,c),
(602,697,l),
(513,697,l),
(513,263,ls),
(513,133,o),
(462,75,o),
(346,75,cs),
(231,75,o),
(180,132,o),
(180,261,cs),
(180,697,l),
(91,697,l),
(91,252,ls),
(91,79,o),
(180,-12,o),
(346,-12,cs),
(513,-12,o),
(602,80,o),
(602,257,cs),
(602,496,l),
(699,499,o),
(739,563,o),
(739,652,cs),
(739,697,l)
);
}
);
width = 693;
}
);
note = Uhorn;
unicode = 431;
},
{
glyphname = uni1EE8;
kernLeft = U;
kernRight = J;
layers = (
{
hints = (
{
horizontal = 1;
place = (-12, 87);
place = (-12, 87);
type = Stem;
},
{
horizontal = 1;
place = (697, -20);
target = down;
type = TopGhost;
},
{
horizontal = 1;
place = (760, 141);
place = (760, 141);
type = Stem;
},
{
place = (91, 89);
place = (91, 89);
type = Stem;
},
{
place = (513, 89);
place = (513, 89);
type = Stem;
},
{
place = (674, 65);
place = (674, 65);
type = Stem;
}
);
layerId = m01;
shapes = (
{
closed = 1;
nodes = (
(516,901,l),
(424,901,l),
(315,760,l),
(379,760,l)
);
},
{
closed = 1;
nodes = (
(674,697,l),
(674,645,ls),
(674,599,o),
(656,557,o),
(602,553,c),
(602,697,l),
(513,697,l),
(513,263,ls),
(513,133,o),
(462,75,o),
(346,75,cs),
(231,75,o),
(180,132,o),
(180,261,cs),
(180,697,l),
(91,697,l),
(91,252,ls),
(91,79,o),
(180,-12,o),
(346,-12,cs),
(513,-12,o),
(602,80,o),
(602,257,cs),
(602,496,l),
(699,499,o),
(739,563,o),
(739,652,cs),
(739,697,l)
);
}
);
width = 693;
}
);
note = uni1EE8;
unicode = 7912;
},
{
glyphname = uni1EF0;
kernLeft = U;
kernRight = J;
layers = (
{
hints = (
{
horizontal = 1;
place = (-173, 104);
place = (-173, 104);
type = Stem;
},
{
horizontal = 1;
place = (-12, 87);
place = (-12, 87);
type = Stem;
},
{
horizontal = 1;
place = (697, -20);
target = down;
type = TopGhost;
},
{
place = (91, 89);
place = (91, 89);
type = Stem;
},
{
place = (299, 96);
place = (299, 96);
type = Stem;
},
{
place = (513, 89);
place = (513, 89);
type = Stem;
},
{
place = (674, 65);
place = (674, 65);
type = Stem;
}
);
layerId = m01;
shapes = (
{
closed = 1;
nodes = (
(674,697,l),
(674,645,ls),
(674,599,o),
(656,557,o),
(602,553,c),
(602,697,l),
(513,697,l),
(513,263,ls),
(513,133,o),
(462,75,o),
(346,75,cs),
(231,75,o),
(180,132,o),
(180,261,cs),
(180,697,l),
(91,697,l),
(91,252,ls),
(91,79,o),
(180,-12,o),
(346,-12,cs),
(513,-12,o),
(602,80,o),
(602,257,cs),
(602,496,l),
(699,499,o),
(739,563,o),
(739,652,cs),
(739,697,l)
);
},
{
closed = 1;
nodes = (
(299,-173,l),
(395,-173,l),
(395,-69,l),
(299,-69,l)
);
}
);
width = 693;
}
);
note = uni1EF0;
unicode = 7920;
},
{
glyphname = uni1EEA;
kernLeft = U;
kernRight = J;
layers = (
{
hints = (
{
horizontal = 1;
place = (-12, 87);
place = (-12, 87);
type = Stem;
},
{
horizontal = 1;
place = (697, -20);
target = down;
type = TopGhost;
},
{
horizontal = 1;
place = (760, 141);
place = (760, 141);
type = Stem;
},
{
place = (91, 89);
place = (91, 89);
type = Stem;
},
{
place = (513, 89);
place = (513, 89);
type = Stem;
},
{
place = (674, 65);
place = (674, 65);
type = Stem;
}
);
layerId = m01;
shapes = (
{
closed = 1;
nodes = (
(380,760,l),
(276,901,l),
(184,901,l),
(314,760,l)
);
},
{
closed = 1;
nodes = (
(674,697,l),
(674,645,ls),
(674,599,o),
(656,557,o),
(602,553,c),
(602,697,l),
(513,697,l),
(513,263,ls),
(513,133,o),
(462,75,o),
(346,75,cs),
(231,75,o),
(180,132,o),
(180,261,cs),
(180,697,l),
(91,697,l),
(91,252,ls),
(91,79,o),
(180,-12,o),
(346,-12,cs),
(513,-12,o),
(602,80,o),
(602,257,cs),
(602,496,l),
(699,499,o),
(739,563,o),
(739,652,cs),
(739,697,l)
);
}
);
width = 693;
}
);
note = uni1EEA;
unicode = 7914;
},
{
glyphname = uni1EEC;
kernLeft = U;
kernRight = J;
layers = (
{
hints = (
{
horizontal = 1;
place = (-12, 87);
place = (-12, 87);
type = Stem;
},
{
horizontal = 1;
place = (697, -20);
target = down;
type = TopGhost;
},
{
horizontal = 1;
place = (873, 49);
place = (873, 49);
type = Stem;
},
{
place = (91, 89);
place = (91, 89);
type = Stem;
},
{
place = (401, 57);
place = (401, 57);
type = Stem;
},
{
place = (513, 89);
place = (513, 89);
type = Stem;
},
{
place = (674, 65);
place = (674, 65);
type = Stem;
}
);
layerId = m01;
shapes = (
{
closed = 1;
nodes = (
(401,790,o),
(363,784,o),
(327,778,c),
(340,736,l),
(390,745,o),
(458,757,o),
(458,824,cs),
(458,888,o),
(398,922,o),
(315,922,cs),
(300,922,l),
(300,873,l),
(315,873,ls),
(358,873,o),
(401,863,o),
(401,825,cs)
);
},
{
closed = 1;
nodes = (
(674,697,l),
(674,645,ls),
(674,599,o),
(656,557,o),
(602,553,c),
(602,697,l),
(513,697,l),
(513,263,ls),
(513,133,o),
(462,75,o),
(346,75,cs),
(231,75,o),
(180,132,o),
(180,261,cs),
(180,697,l),
(91,697,l),
(91,252,ls),
(91,79,o),
(180,-12,o),
(346,-12,cs),
(513,-12,o),
(602,80,o),
(602,257,cs),
(602,496,l),
(699,499,o),
(739,563,o),
(739,652,cs),
(739,697,l)
);
}
);
width = 693;
}
);
note = uni1EEC;
unicode = 7916;
},
{
glyphname = uni1EEE;
kernLeft = U;
kernRight = J;
layers = (
{
hints = (
{
horizontal = 1;
place = (-12, 87);
place = (-12, 87);
type = Stem;
},
{
horizontal = 1;
place = (697, -20);
target = down;
type = TopGhost;
},
{
horizontal = 1;
place = (851, 54);
place = (851, 54);
type = Stem;
},
{
place = (185, 50);
place = (185, 50);
type = Stem;
},
{
place = (455, 52);
place = (455, 52);
type = Stem;
},
{
place = (674, 65);
place = (674, 65);
type = Stem;
},
{
horizontal = 1;
place = (769, 55);
place = (769, 55);
type = Stem;
},
{
place = (513, 89);
place = (513, 89);
type = Stem;
},
{
place = (91, 89);
place = (91, 89);
type = Stem;
}
);
layerId = m01;
shapes = (
{
closed = 1;
nodes = (
(327,851,o),
(332,769,o),
(414,769,cs),
(470,769,o),
(507,818,o),
(507,901,c),
(455,901,l),
(455,853,o),
(437,824,o),
(414,824,cs),
(366,824,o),
(355,905,o),
(282,905,cs),
(223,905,o),
(185,858,o),
(185,776,c),
(235,776,l),
(235,823,o),
(252,851,o),
(279,851,cs)
);
},
{
closed = 1;
nodes = (
(674,697,l),
(674,645,ls),
(674,599,o),
(656,557,o),
(602,553,c),
(602,697,l),
(513,697,l),
(513,263,ls),
(513,133,o),
(462,75,o),
(346,75,cs),
(231,75,o),
(180,132,o),
(180,261,cs),
(180,697,l),
(91,697,l),
(91,252,ls),
(91,79,o),
(180,-12,o),
(346,-12,cs),
(513,-12,o),
(602,80,o),
(602,257,cs),
(602,496,l),
(699,499,o),
(739,563,o),
(739,652,cs),
(739,697,l)
);
}
);
width = 693;
}
);
note = uni1EEE;
unicode = 7918;
},
{
glyphname = Uhungarumlaut;
kernLeft = U;
kernRight = J;
layers = (
{
hints = (
{
horizontal = 1;
place = (-12, 87);
place = (-12, 87);
type = Stem;
},
{
horizontal = 1;
place = (697, -20);
target = down;
type = TopGhost;
},
{
horizontal = 1;
place = (745, 156);
place = (745, 156);
type = Stem;
},
{
place = (91, 89);
place = (91, 89);
type = Stem;
},
{
place = (513, 89);
place = (513, 89);
type = Stem;
}
);
layerId = m01;
shapes = (
{
closed = 1;
nodes = (
(226,745,l),
(290,745,l),
(413,901,l),
(335,901,l)
);
},
{
closed = 1;
nodes = (
(403,745,l),
(468,745,l),
(604,901,l),
(512,901,l)
);
},
{
closed = 1;
nodes = (
(513,-12,o),
(602,80,o),
(602,257,cs),
(602,697,l),
(513,697,l),
(513,263,ls),
(513,133,o),
(462,75,o),
(346,75,cs),
(231,75,o),
(180,132,o),
(180,261,cs),
(180,697,l),
(91,697,l),
(91,252,ls),
(91,79,o),
(180,-12,o),
(346,-12,cs)
);
}
);
width = 693;
}
);
note = Uhungarumlaut;
unicode = 368;
},
{
glyphname = Umacron;
kernLeft = U;
kernRight = J;
layers = (
{
hints = (
{
horizontal = 1;
place = (-12, 87);
place = (-12, 87);
type = Stem;
},
{
horizontal = 1;
place = (697, -20);
target = down;
type = TopGhost;
},
{
horizontal = 1;
place = (792, 51);
place = (792, 51);
type = Stem;
},
{
place = (91, 89);
place = (91, 89);
type = Stem;
},
{
place = (513, 89);
place = (513, 89);
type = Stem;
}
);
layerId = m01;
shapes = (
{
closed = 1;
nodes = (
(210,792,l),
(482,792,l),
(482,843,l),
(210,843,l)
);
},
{
closed = 1;
nodes = (
(513,-12,o),
(602,80,o),
(602,257,cs),
(602,697,l),
(513,697,l),
(513,263,ls),
(513,133,o),
(462,75,o),
(346,75,cs),
(231,75,o),
(180,132,o),
(180,261,cs),
(180,697,l),
(91,697,l),
(91,252,ls),
(91,79,o),
(180,-12,o),
(346,-12,cs)
);
}
);
width = 693;
}
);
note = Umacron;
unicode = 362;
},
{
glyphname = Uogonek;
kernLeft = U;
kernRight = J;
layers = (
{
hints = (
{
horizontal = 1;
place = (-217, 55);
place = (-217, 55);
type = Stem;
},
{
horizontal = 1;
place = (-12, 87);
place = (-12, 87);
type = Stem;
},
{
horizontal = 1;
place = (697, -20);
target = down;
type = TopGhost;
},
{
place = (91, 89);
place = (91, 89);
type = Stem;
},
{
place = (268, 52);
place = (268, 52);
type = Stem;
},
{
place = (513, 89);
place = (513, 89);
type = Stem;
}
);
layerId = m01;
shapes = (
{
closed = 1;
nodes = (
(513,697,l),
(513,263,ls),
(513,133,o),
(462,75,o),
(346,75,cs),
(231,75,o),
(180,132,o),
(180,261,cs),
(180,697,l),
(91,697,l),
(91,252,ls),
(91,83,o),
(176,-8,o),
(335,-12,c),
(301,-37,o),
(268,-77,o),
(268,-127,cs),
(268,-182,o),
(310,-217,o),
(366,-217,cs),
(407,-217,o),
(440,-196,o),
(464,-167,c),
(421,-135,l),
(404,-152,o),
(386,-162,o),
(363,-162,cs),
(341,-162,o),
(320,-151,o),
(320,-119,cs),
(320,-63,o),
(377,-26,o),
(410,-7,c),
(536,15,o),
(602,104,o),
(602,257,cs),
(602,697,l)
);
}
);
width = 693;
}
);
note = Uogonek;
unicode = 370;
},
{
glyphname = Uring;
kernLeft = U;
kernRight = J;
layers = (
{
hints = (
{
horizontal = 1;
place = (-12, 87);
place = (-12, 87);
type = Stem;
},
{
horizontal = 1;
place = (680, 48);
place = (680, 48);
type = Stem;
},
{
horizontal = 1;
place = (838, 47);
place = (838, 47);
type = Stem;
},
{
place = (91, 89);
place = (91, 89);
type = Stem;
},
{
place = (244, 48);
place = (244, 48);
type = Stem;
},
{
place = (402, 47);
place = (402, 47);
type = Stem;
},
{
place = (513, 89);
place = (513, 89);
type = Stem;
},
{
horizontal = 1;
place = (697, -20);
target = down;
type = TopGhost;
}
);
layerId = m01;
shapes = (
{
closed = 1;
nodes = (
(404,680,o),
(449,726,o),
(449,783,cs),
(449,840,o),
(402,885,o),
(347,885,cs),
(290,885,o),
(244,840,o),
(244,783,cs),
(244,727,o),
(289,680,o),
(347,680,cs)
);
},
{
closed = 1;
nodes = (
(315,728,o),
(292,752,o),
(292,783,cs),
(292,814,o),
(315,838,o),
(347,838,cs),
(380,838,o),
(402,814,o),
(402,783,cs),
(402,752,o),
(378,728,o),
(347,728,cs)
);
},
{
closed = 1;
nodes = (
(513,-12,o),
(602,80,o),
(602,257,cs),
(602,697,l),
(513,697,l),
(513,263,ls),
(513,133,o),
(462,75,o),
(346,75,cs),
(231,75,o),
(180,132,o),
(180,261,cs),
(180,697,l),
(91,697,l),
(91,252,ls),
(91,79,o),
(180,-12,o),
(346,-12,cs)
);
}
);
width = 693;
}
);
note = Uring;
unicode = 366;
},
{
glyphname = Utilde;
kernLeft = U;
kernRight = J;
layers = (
{
hints = (
{
horizontal = 1;
place = (-12, 87);
place = (-12, 87);
type = Stem;
},
{
horizontal = 1;
place = (697, -20);
target = down;
type = TopGhost;
},
{
horizontal = 1;
place = (769, 55);
place = (769, 55);
type = Stem;
},
{
horizontal = 1;
place = (851, 54);
place = (851, 54);
type = Stem;
},
{
place = (185, 50);
place = (185, 50);
type = Stem;
},
{
place = (455, 52);
place = (455, 52);
type = Stem;
},
{
place = (513, 89);
place = (513, 89);
type = Stem;
},
{
place = (91, 89);
place = (91, 89);
type = Stem;
}
);
layerId = m01;
shapes = (
{
closed = 1;
nodes = (
(470,769,o),
(507,818,o),
(507,901,c),
(455,901,l),
(455,853,o),
(437,824,o),
(414,824,cs),
(366,824,o),
(355,905,o),
(282,905,cs),
(223,905,o),
(185,858,o),
(185,776,c),
(235,776,l),
(235,823,o),
(252,851,o),
(279,851,cs),
(327,851,o),
(332,769,o),
(414,769,cs)
);
},
{
closed = 1;
nodes = (
(513,-12,o),
(602,80,o),
(602,257,cs),
(602,697,l),
(513,697,l),
(513,263,ls),
(513,133,o),
(462,75,o),
(346,75,cs),
(231,75,o),
(180,132,o),
(180,261,cs),
(180,697,l),
(91,697,l),
(91,252,ls),
(91,79,o),
(180,-12,o),
(346,-12,cs)
);
}
);
width = 693;
}
);
note = Utilde;
unicode = 360;
},
{
glyphname = V;
kernLeft = V;
kernRight = V;
lastChange = "2022-12-26 06:10:28 +0000";
layers = (
{
hints = (
{
horizontal = 1;
place = (0, 21);
target = up;
type = BottomGhost;
},
{
horizontal = 1;
place = (697, -20);
target = down;
type = TopGhost;
},
{
place = (25, 623);
place = (25, 623);
type = Stem;
}
);
layerId = m01;
shapes = (
{
closed = 1;
nodes = (
(559,697,ls),
(554,697,o),
(549,693,o),
(547,688,cs),
(338,142,l),
(124,697,l),
(25,697,l),
(302,0,l),
(372,0,l),
(648,697,l)
);
}
);
width = 674;
}
);
note = V;
unicode = 86;
},
{
glyphname = W;
kernLeft = W;
kernRight = W;
lastChange = "2022-12-26 06:10:42 +0000";
layers = (
{
hints = (
{
horizontal = 1;
place = (0, 21);
target = up;
type = BottomGhost;
},
{
horizontal = 1;
place = (697, -20);
target = down;
type = TopGhost;
},
{
place = (32, 923);
place = (32, 923);
type = Stem;
},
{
horizontal = 1;
place = (0, 134);
place = (0, 134);
type = Stem;
}
);
layerId = m01;
shapes = (
{
closed = 1;
nodes = (
(876,697,ls),
(866,697,o),
(860,693,o),
(857,683,cs),
(701,134,l),
(532,659,l),
(469,659,ls),
(459,659,o),
(452,655,o),
(449,645,cs),
(285,134,l),
(124,697,l),
(32,697,l),
(236,0,l),
(324,0,l),
(494,518,l),
(662,0,l),
(751,0,l),
(955,697,l)
);
}
);
width = 987;
}
);
note = W;
unicode = 87;
},
{
glyphname = Wacute;
kernLeft = W;
kernRight = W;
layers = (
{
hints = (
{
horizontal = 1;
place = (0, 21);
target = up;
type = BottomGhost;
},
{
horizontal = 1;
place = (697, -20);
target = down;
type = TopGhost;
},
{
horizontal = 1;
place = (760, 141);
place = (760, 141);
type = Stem;
},
{
place = (32, 923);
place = (32, 923);
type = Stem;
},
{
horizontal = 1;
place = (0, 134);
place = (0, 134);
type = Stem;
}
);
layerId = m01;
shapes = (
{
closed = 1;
nodes = (
(462,760,l),
(526,760,l),
(663,901,l),
(571,901,l)
);
},
{
closed = 1;
nodes = (
(236,0,l),
(324,0,l),
(494,518,l),
(662,0,l),
(751,0,l),
(955,697,l),
(861,697,l),
(701,134,l),
(532,659,l),
(454,659,l),
(285,134,l),
(124,697,l),
(32,697,l)
);
}
);
width = 987;
}
);
note = Wacute;
unicode = 7810;
},
{
glyphname = Wcircumflex;
kernLeft = W;
kernRight = W;
layers = (
{
hints = (
{
horizontal = 1;
place = (0, 21);
target = up;
type = BottomGhost;
},
{
horizontal = 1;
place = (697, -20);
target = down;
type = TopGhost;
},
{
place = (32, 923);
place = (32, 923);
type = Stem;
},
{
horizontal = 1;
place = (0, 134);
place = (0, 134);
type = Stem;
}
);
layerId = m01;
shapes = (
{
closed = 1;
nodes = (
(343,750,l),
(412,750,l),
(494,839,l),
(576,750,l),
(645,750,l),
(494,914,l)
);
},
{
closed = 1;
nodes = (
(236,0,l),
(324,0,l),
(494,518,l),
(662,0,l),
(751,0,l),
(955,697,l),
(861,697,l),
(701,134,l),
(532,659,l),
(454,659,l),
(285,134,l),
(124,697,l),
(32,697,l)
);
}
);
width = 987;
}
);
note = Wcircumflex;
unicode = 372;
},
{
glyphname = Wdieresis;
kernLeft = W;
kernRight = W;
layers = (
{
hints = (
{
horizontal = 1;
place = (0, 21);
target = up;
type = BottomGhost;
},
{
horizontal = 1;
place = (697, -20);
target = down;
type = TopGhost;
},
{
horizontal = 1;
place = (796, 105);
place = (796, 105);
type = Stem;
},
{
place = (357, 87);
place = (357, 87);
type = Stem;
},
{
place = (542, 87);
place = (542, 87);
type = Stem;
},
{
horizontal = 1;
place = (0, 134);
place = (0, 134);
type = Stem;
}
);
layerId = m01;
shapes = (
{
closed = 1;
nodes = (
(357,796,l),
(444,796,l),
(444,901,l),
(357,901,l)
);
},
{
closed = 1;
nodes = (
(542,796,l),
(629,796,l),
(629,901,l),
(542,901,l)
);
},
{
closed = 1;
nodes = (
(236,0,l),
(324,0,l),
(494,518,l),
(662,0,l),
(751,0,l),
(955,697,l),
(861,697,l),
(701,134,l),
(532,659,l),
(454,659,l),
(285,134,l),
(124,697,l),
(32,697,l)
);
}
);
width = 987;
}
);
note = Wdieresis;
unicode = 7812;
},
{
glyphname = Wgrave;
kernLeft = W;
kernRight = W;
layers = (
{
hints = (
{
horizontal = 1;
place = (0, 21);
target = up;
type = BottomGhost;
},
{
horizontal = 1;
place = (697, -20);
target = down;
type = TopGhost;
},
{
horizontal = 1;
place = (760, 141);
place = (760, 141);
type = Stem;
},
{
place = (32, 923);
place = (32, 923);
type = Stem;
},
{
horizontal = 1;
place = (0, 134);
place = (0, 134);
type = Stem;
}
);
layerId = m01;
shapes = (
{
closed = 1;
nodes = (
(461,760,l),
(527,760,l),
(423,901,l),
(331,901,l)
);
},
{
closed = 1;
nodes = (
(236,0,l),
(324,0,l),
(494,518,l),
(662,0,l),
(751,0,l),
(955,697,l),
(861,697,l),
(701,134,l),
(532,659,l),
(454,659,l),
(285,134,l),
(124,697,l),
(32,697,l)
);
}
);
width = 987;
}
);
note = Wgrave;
unicode = 7808;
},
{
glyphname = X;
kernLeft = X;
kernRight = X;
lastChange = "2022-12-26 06:10:51 +0000";
layers = (
{
hints = (
{
horizontal = 1;
place = (0, 21);
target = up;
type = BottomGhost;
},
{
horizontal = 1;
place = (697, -20);
target = down;
type = TopGhost;
},
{
place = (30, 602);
place = (30, 602);
type = Stem;
}
);
layerId = m01;
shapes = (
{
closed = 1;
nodes = (
(517,12,ls),
(523,4,o),
(530,0,o),
(540,0,cs),
(632,0,l),
(392,350,l),
(628,697,l),
(522,697,l),
(331,412,l),
(149,685,ls),
(143,693,o),
(136,697,o),
(126,697,cs),
(33,697,l),
(269,350,l),
(30,0,l),
(138,0,l),
(330,285,l)
);
}
);
width = 661;
}
);
note = X;
unicode = 88;
},
{
glyphname = Y;
kernLeft = Y;
kernRight = Y;
layers = (
{
hints = (
{
horizontal = 1;
place = (0, 21);
target = up;
type = BottomGhost;
},
{
horizontal = 1;
place = (697, -20);
target = down;
type = TopGhost;
},
{
place = (285, 89);
place = (285, 89);
type = Stem;
}
);
layerId = m01;
shapes = (
{
closed = 1;
nodes = (
(285,0,l),
(374,0,l),
(374,269,l),
(639,697,l),
(533,697,l),
(328,355,l),
(124,697,l),
(19,697,l),
(285,269,l)
);
}
);
width = 658;
}
);
note = Y;
unicode = 89;
},
{
glyphname = Yacute;
kernLeft = Y;
kernRight = Y;
layers = (
{
hints = (
{
horizontal = 1;
place = (0, 21);
target = up;
type = BottomGhost;
},
{
horizontal = 1;
place = (697, -20);
target = down;
type = TopGhost;
},
{
horizontal = 1;
place = (760, 141);
place = (760, 141);
type = Stem;
},
{
place = (285, 89);
place = (285, 89);
type = Stem;
}
);
layerId = m01;
shapes = (
{
closed = 1;
nodes = (
(298,760,l),
(362,760,l),
(499,901,l),
(407,901,l)
);
},
{
closed = 1;
nodes = (
(285,0,l),
(374,0,l),
(374,269,l),
(639,697,l),
(533,697,l),
(328,355,l),
(124,697,l),
(19,697,l),
(285,269,l)
);
}
);
width = 658;
}
);
note = Yacute;
unicode = 221;
},
{
glyphname = Ycircumflex;
kernLeft = Y;
kernRight = Y;
layers = (
{
hints = (
{
horizontal = 1;
place = (0, 21);
target = up;
type = BottomGhost;
},
{
horizontal = 1;
place = (697, -20);
target = down;
type = TopGhost;
},
{
place = (285, 89);
place = (285, 89);
type = Stem;
}
);
layerId = m01;
shapes = (
{
closed = 1;
nodes = (
(178,750,l),
(247,750,l),
(329,839,l),
(411,750,l),
(480,750,l),
(329,914,l)
);
},
{
closed = 1;
nodes = (
(285,0,l),
(374,0,l),
(374,269,l),
(639,697,l),
(533,697,l),
(328,355,l),
(124,697,l),
(19,697,l),
(285,269,l)
);
}
);
width = 658;
}
);
note = Ycircumflex;
unicode = 374;
},
{
glyphname = Ydieresis;
kernLeft = Y;
kernRight = Y;
layers = (
{
hints = (
{
horizontal = 1;
place = (0, 21);
target = up;
type = BottomGhost;
},
{
horizontal = 1;
place = (697, -20);
target = down;
type = TopGhost;
},
{
horizontal = 1;
place = (796, 105);
place = (796, 105);
type = Stem;
},
{
place = (193, 87);
place = (193, 87);
type = Stem;
},
{
place = (378, 87);
place = (378, 87);
type = Stem;
},
{
place = (285, 89);
place = (285, 89);
type = Stem;
}
);
layerId = m01;
shapes = (
{
closed = 1;
nodes = (
(193,796,l),
(280,796,l),
(280,901,l),
(193,901,l)
);
},
{
closed = 1;
nodes = (
(378,796,l),
(465,796,l),
(465,901,l),
(378,901,l)
);
},
{
closed = 1;
nodes = (
(285,0,l),
(374,0,l),
(374,269,l),
(639,697,l),
(533,697,l),
(328,355,l),
(124,697,l),
(19,697,l),
(285,269,l)
);
}
);
width = 658;
}
);
note = Ydieresis;
unicode = 376;
},
{
glyphname = uni1EF4;
kernLeft = Y;
kernRight = Y;
layers = (
{
hints = (
{
horizontal = 1;
place = (-173, 104);
place = (-173, 104);
type = Stem;
},
{
horizontal = 1;
place = (0, 21);
target = up;
type = BottomGhost;
},
{
horizontal = 1;
place = (697, -20);
target = down;
type = TopGhost;
},
{
place = (285, 89);
place = (285, 89);
type = Stem;
},
{
place = (281, 96);
place = (281, 96);
type = Stem;
}
);
layerId = m01;
shapes = (
{
closed = 1;
nodes = (
(285,0,l),
(374,0,l),
(374,269,l),
(639,697,l),
(533,697,l),
(328,355,l),
(124,697,l),
(19,697,l),
(285,269,l)
);
},
{
closed = 1;
nodes = (
(281,-173,l),
(377,-173,l),
(377,-69,l),
(281,-69,l)
);
}
);
width = 658;
}
);
note = uni1EF4;
unicode = 7924;
},
{
glyphname = Ygrave;
kernLeft = Y;
kernRight = Y;
layers = (
{
hints = (
{
horizontal = 1;
place = (0, 21);
target = up;
type = BottomGhost;
},
{
horizontal = 1;
place = (697, -20);
target = down;
type = TopGhost;
},
{
horizontal = 1;
place = (760, 141);
place = (760, 141);
type = Stem;
},
{
place = (285, 89);
place = (285, 89);
type = Stem;
}
);
layerId = m01;
shapes = (
{
closed = 1;
nodes = (
(296,760,l),
(362,760,l),
(258,901,l),
(166,901,l)
);
},
{
closed = 1;
nodes = (
(285,0,l),
(374,0,l),
(374,269,l),
(639,697,l),
(533,697,l),
(328,355,l),
(124,697,l),
(19,697,l),
(285,269,l)
);
}
);
width = 658;
}
);
note = Ygrave;
unicode = 7922;
},
{
glyphname = uni1EF6;
kernLeft = Y;
kernRight = Y;
layers = (
{
hints = (
{
horizontal = 1;
place = (0, 21);
target = up;
type = BottomGhost;
},
{
horizontal = 1;
place = (697, -20);
target = down;
type = TopGhost;
},
{
horizontal = 1;
place = (873, 49);
place = (873, 49);
type = Stem;
},
{
place = (285, 89);
place = (285, 89);
type = Stem;
},
{
place = (383, 57);
place = (383, 57);
type = Stem;
}
);
layerId = m01;
shapes = (
{
closed = 1;
nodes = (
(322,736,l),
(372,745,o),
(440,757,o),
(440,824,cs),
(440,888,o),
(380,922,o),
(297,922,cs),
(282,922,l),
(282,873,l),
(297,873,ls),
(340,873,o),
(383,863,o),
(383,825,cs),
(383,790,o),
(345,784,o),
(309,778,c)
);
},
{
closed = 1;
nodes = (
(285,0,l),
(374,0,l),
(374,269,l),
(639,697,l),
(533,697,l),
(328,355,l),
(124,697,l),
(19,697,l),
(285,269,l)
);
}
);
width = 658;
}
);
note = uni1EF6;
unicode = 7926;
},
{
glyphname = uni1EF8;
kernLeft = Y;
kernRight = Y;
layers = (
{
hints = (
{
horizontal = 1;
place = (0, 21);
target = up;
type = BottomGhost;
},
{
horizontal = 1;
place = (697, -20);
target = down;
type = TopGhost;
},
{
horizontal = 1;
place = (769, 55);
place = (769, 55);
type = Stem;
},
{
horizontal = 1;
place = (851, 54);
place = (851, 54);
type = Stem;
},
{
place = (168, 50);
place = (168, 50);
type = Stem;
},
{
place = (285, 89);
place = (285, 89);
type = Stem;
},
{
place = (438, 52);
place = (438, 52);
type = Stem;
}
);
layerId = m01;
shapes = (
{
closed = 1;
nodes = (
(453,769,o),
(490,818,o),
(490,901,c),
(438,901,l),
(438,853,o),
(420,824,o),
(397,824,cs),
(349,824,o),
(338,905,o),
(265,905,cs),
(206,905,o),
(168,858,o),
(168,776,c),
(218,776,l),
(218,823,o),
(235,851,o),
(262,851,cs),
(310,851,o),
(315,769,o),
(397,769,cs)
);
},
{
closed = 1;
nodes = (
(285,0,l),
(374,0,l),
(374,269,l),
(639,697,l),
(533,697,l),
(328,355,l),
(124,697,l),
(19,697,l),
(285,269,l)
);
}
);
width = 658;
}
);
note = uni1EF8;
unicode = 7928;
},
{
glyphname = Z;
kernLeft = Z;
kernRight = Z;
lastChange = "2022-12-26 06:11:03 +0000";
layers = (
{
hints = (
{
horizontal = 1;
place = (0, 82);
place = (0, 82);
type = Stem;
},
{
horizontal = 1;
place = (615, 82);
place = (615, 82);
type = Stem;
},
{
place = (40, 554);
place = (40, 554);
type = Stem;
}
);
layerId = m01;
shapes = (
{
closed = 1;
nodes = (
(592,67,ls),
(592,77,o),
(587,82,o),
(577,82,cs),
(160,82,l),
(594,629,l),
(594,697,l),
(63,697,l),
(63,615,l),
(477,615,l),
(40,65,l),
(40,0,l),
(592,0,l)
);
}
);
width = 640;
}
);
note = Z;
unicode = 90;
},
{
glyphname = Zacute;
kernLeft = Z;
kernRight = Z;
layers = (
{
hints = (
{
horizontal = 1;
place = (0, 82);
place = (0, 82);
type = Stem;
},
{
horizontal = 1;
place = (615, 82);
place = (615, 82);
type = Stem;
},
{
horizontal = 1;
place = (760, 141);
place = (760, 141);
type = Stem;
},
{
place = (40, 554);
place = (40, 554);
type = Stem;
}
);
layerId = m01;
shapes = (
{
closed = 1;
nodes = (
(489,901,l),
(397,901,l),
(288,760,l),
(352,760,l)
);
},
{
closed = 1;
nodes = (
(594,697,l),
(63,697,l),
(63,615,l),
(477,615,l),
(40,65,l),
(40,0,l),
(592,0,l),
(592,82,l),
(160,82,l),
(594,629,l)
);
}
);
width = 640;
}
);
note = Zacute;
unicode = 377;
},
{
glyphname = Zcaron;
kernLeft = Z;
kernRight = Z;
layers = (
{
hints = (
{
horizontal = 1;
place = (0, 82);
place = (0, 82);
type = Stem;
},
{
horizontal = 1;
place = (615, 82);
place = (615, 82);
type = Stem;
},
{
place = (40, 554);
place = (40, 554);
type = Stem;
}
);
layerId = m01;
shapes = (
{
closed = 1;
nodes = (
(471,901,l),
(402,901,l),
(320,815,l),
(238,901,l),
(169,901,l),
(320,744,l)
);
},
{
closed = 1;
nodes = (
(594,697,l),
(63,697,l),
(63,615,l),
(477,615,l),
(40,65,l),
(40,0,l),
(592,0,l),
(592,82,l),
(160,82,l),
(594,629,l)
);
}
);
width = 640;
}
);
note = Zcaron;
unicode = 381;
},
{
glyphname = Zdotaccent;
kernLeft = Z;
kernRight = Z;
layers = (
{
hints = (
{
horizontal = 1;
place = (0, 82);
place = (0, 82);
type = Stem;
},
{
horizontal = 1;
place = (615, 82);
place = (615, 82);
type = Stem;
},
{
horizontal = 1;
place = (796, 105);
place = (796, 105);
type = Stem;
},
{
place = (272, 96);
place = (272, 96);
type = Stem;
}
);
layerId = m01;
shapes = (
{
closed = 1;
nodes = (
(368,901,l),
(272,901,l),
(272,796,l),
(368,796,l)
);
},
{
closed = 1;
nodes = (
(594,697,l),
(63,697,l),
(63,615,l),
(477,615,l),
(40,65,l),
(40,0,l),
(592,0,l),
(592,82,l),
(160,82,l),
(594,629,l)
);
}
);
width = 640;
}
);
note = Zdotaccent;
unicode = 379;
},
{
glyphname = uni1EB6.ss03;
kernLeft = A;
kernRight = A;
layers = (
{
hints = (
{
horizontal = 1;
place = (0, 21);
target = up;
type = BottomGhost;
},
{
horizontal = 1;
place = (173, 79);
place = (173, 79);
type = Stem;
},
{
horizontal = 1;
place = (697, -20);
target = down;
type = TopGhost;
},
{
horizontal = 1;
place = (769, 52);
place = (769, 52);
type = Stem;
},
{
place = (174, 62);
place = (174, 62);
type = Stem;
},
{
place = (418, 62);
place = (418, 62);
type = Stem;
},
{
horizontal = 1;
place = (-178, 124);
place = (-178, 124);
type = Stem;
},
{
place = (266, 123);
place = (266, 123);
type = Stem;
}
);
layerId = m01;
shapes = (
{
closed = 1;
nodes = (
(426,769,o),
(480,813,o),
(480,901,c),
(418,901,l),
(418,849,o),
(383,821,o),
(327,821,cs),
(273,821,o),
(236,847,o),
(236,901,c),
(174,901,l),
(174,816,o),
(224,769,o),
(327,769,cs)
);
},
{
closed = 1;
nodes = (
(629,0,l),
(362,697,l),
(292,697,l),
(25,0,l),
(123,0,l),
(185,173,l),
(469,173,l),
(531,0,l)
);
},
{
closed = 1;
nodes = (
(214,252,l),
(327,568,l),
(440,252,l)
);
},
{
closed = 1;
nodes = (
(293,-54,o),
(266,-81,o),
(266,-116,cs),
(266,-150,o),
(294,-178,o),
(328,-178,cs),
(362,-178,o),
(389,-150,o),
(389,-116,cs),
(389,-81,o),
(362,-54,o),
(328,-54,cs)
);
}
);
width = 654;
}
);
note = uni1EB6.ss03;
},
{
glyphname = uni1EAC.ss03;
kernLeft = A;
kernRight = A;
layers = (
{
hints = (
{
horizontal = 1;
place = (-178, 124);
place = (-178, 124);
type = Stem;
},
{
horizontal = 1;
place = (0, 21);
target = up;
type = BottomGhost;
},
{
horizontal = 1;
place = (173, 79);
place = (173, 79);
type = Stem;
},
{
horizontal = 1;
place = (697, -20);
target = down;
type = TopGhost;
},
{
place = (266, 123);
place = (266, 123);
type = Stem;
}
);
layerId = m01;
shapes = (
{
closed = 1;
nodes = (
(327,839,l),
(409,750,l),
(478,750,l),
(327,914,l),
(176,750,l),
(245,750,l)
);
},
{
closed = 1;
nodes = (
(629,0,l),
(362,697,l),
(292,697,l),
(25,0,l),
(123,0,l),
(185,173,l),
(469,173,l),
(531,0,l)
);
},
{
closed = 1;
nodes = (
(214,252,l),
(327,568,l),
(440,252,l)
);
},
{
closed = 1;
nodes = (
(293,-54,o),
(266,-81,o),
(266,-116,cs),
(266,-150,o),
(294,-178,o),
(328,-178,cs),
(362,-178,o),
(389,-150,o),
(389,-116,cs),
(389,-81,o),
(362,-54,o),
(328,-54,cs)
);
}
);
width = 654;
}
);
note = uni1EAC.ss03;
},
{
glyphname = Adieresis.ss03;
kernLeft = A;
kernRight = A;
layers = (
{
hints = (
{
horizontal = 1;
place = (0, 21);
target = up;
type = BottomGhost;
},
{
horizontal = 1;
place = (173, 79);
place = (173, 79);
type = Stem;
},
{
horizontal = 1;
place = (697, -20);
target = down;
type = TopGhost;
},
{
horizontal = 1;
place = (785, 124);
place = (785, 124);
type = Stem;
},
{
place = (175, 123);
place = (175, 123);
type = Stem;
},
{
place = (357, 122);
place = (357, 122);
type = Stem;
}
);
layerId = m01;
shapes = (
{
closed = 1;
nodes = (
(271,785,o),
(298,813,o),
(298,848,cs),
(298,882,o),
(271,909,o),
(237,909,cs),
(202,909,o),
(175,882,o),
(175,848,cs),
(175,813,o),
(203,785,o),
(237,785,cs)
);
},
{
closed = 1;
nodes = (
(453,785,o),
(479,813,o),
(479,848,cs),
(479,882,o),
(453,909,o),
(418,909,cs),
(383,909,o),
(357,882,o),
(357,848,cs),
(357,813,o),
(384,785,o),
(418,785,cs)
);
},
{
closed = 1;
nodes = (
(531,0,l),
(629,0,l),
(362,697,l),
(292,697,l),
(25,0,l),
(123,0,l),
(185,173,l),
(469,173,l)
);
},
{
closed = 1;
nodes = (
(214,252,l),
(327,568,l),
(440,252,l)
);
}
);
width = 654;
}
);
note = Adieresis.ss03;
},
{
glyphname = uni1EA0.ss03;
kernLeft = A;
kernRight = A;
layers = (
{
hints = (
{
horizontal = 1;
place = (-178, 124);
place = (-178, 124);
type = Stem;
},
{
horizontal = 1;
place = (0, 21);
target = up;
type = BottomGhost;
},
{
horizontal = 1;
place = (173, 79);
place = (173, 79);
type = Stem;
},
{
horizontal = 1;
place = (697, -20);
target = down;
type = TopGhost;
},
{
place = (266, 123);
place = (266, 123);
type = Stem;
}
);
layerId = m01;
shapes = (
{
closed = 1;
nodes = (
(629,0,l),
(362,697,l),
(292,697,l),
(25,0,l),
(123,0,l),
(185,173,l),
(469,173,l),
(531,0,l)
);
},
{
closed = 1;
nodes = (
(214,252,l),
(327,568,l),
(440,252,l)
);
},
{
closed = 1;
nodes = (
(293,-54,o),
(266,-81,o),
(266,-116,cs),
(266,-150,o),
(294,-178,o),
(328,-178,cs),
(362,-178,o),
(389,-150,o),
(389,-116,cs),
(389,-81,o),
(362,-54,o),
(328,-54,cs)
);
}
);
width = 654;
}
);
note = uni1EA0.ss03;
},
{
glyphname = Cdotaccent.ss03;
kernLeft = C;
kernRight = C;
layers = (
{
hints = (
{
horizontal = 1;
place = (-12, 85);
place = (-12, 85);
type = Stem;
},
{
horizontal = 1;
place = (624, 85);
place = (624, 85);
type = Stem;
},
{
horizontal = 1;
place = (785, 124);
place = (785, 124);
type = Stem;
},
{
place = (59, 89);
place = (59, 89);
type = Stem;
},
{
place = (328, 123);
place = (328, 123);
type = Stem;
}
);
layerId = m01;
shapes = (
{
closed = 1;
nodes = (
(424,785,o),
(451,813,o),
(451,848,cs),
(451,882,o),
(424,909,o),
(390,909,cs),
(355,909,o),
(328,882,o),
(328,848,cs),
(328,813,o),
(356,785,o),
(390,785,cs)
);
},
{
closed = 1;
nodes = (
(525,-12,o),
(631,57,o),
(682,187,c),
(598,218,l),
(562,122,o),
(487,73,o),
(383,73,cs),
(234,73,o),
(148,174,o),
(148,350,cs),
(148,525,o),
(234,624,o),
(386,624,cs),
(491,624,o),
(563,578,o),
(598,482,c),
(680,514,l),
(631,643,o),
(528,709,o),
(386,709,cs),
(183,709,o),
(59,573,o),
(59,350,cs),
(59,125,o),
(182,-12,o),
(383,-12,cs)
);
}
);
width = 723;
}
);
note = Cdotaccent.ss03;
},
{
glyphname = uni1EC6.ss03;
layers = (
{
hints = (
{
horizontal = 1;
place = (-178, 124);
place = (-178, 124);
type = Stem;
},
{
horizontal = 1;
place = (0, 82);
place = (0, 82);
type = Stem;
},
{
horizontal = 1;
place = (315, 82);
place = (315, 82);
type = Stem;
},
{
horizontal = 1;
place = (615, 82);
place = (615, 82);
type = Stem;
},
{
place = (105, 89);
place = (105, 89);
type = Stem;
},
{
place = (273, 123);
place = (273, 123);
type = Stem;
}
);
layerId = m01;
shapes = (
{
closed = 1;
nodes = (
(184,750,l),
(253,750,l),
(335,839,l),
(417,750,l),
(486,750,l),
(335,914,l)
);
},
{
closed = 1;
nodes = (
(105,0,l),
(565,0,l),
(565,82,l),
(194,82,l),
(194,315,l),
(531,315,l),
(531,397,l),
(194,397,l),
(194,615,l),
(565,615,l),
(565,697,l),
(105,697,l)
);
},
{
closed = 1;
nodes = (
(369,-178,o),
(396,-150,o),
(396,-116,cs),
(396,-81,o),
(369,-54,o),
(335,-54,cs),
(300,-54,o),
(273,-81,o),
(273,-116,cs),
(273,-150,o),
(301,-178,o),
(335,-178,cs)
);
}
);
width = 625;
}
);
note = uni1EC6.ss03;
},
{
glyphname = Edieresis.ss03;
layers = (
{
hints = (
{
horizontal = 1;
place = (0, 82);
place = (0, 82);
type = Stem;
},
{
horizontal = 1;
place = (315, 82);
place = (315, 82);
type = Stem;
},
{
horizontal = 1;
place = (615, 82);
place = (615, 82);
type = Stem;
},
{
horizontal = 1;
place = (785, 124);
place = (785, 124);
type = Stem;
},
{
place = (182, 123);
place = (182, 123);
type = Stem;
},
{
place = (364, 122);
place = (364, 122);
type = Stem;
},
{
place = (105, 89);
place = (105, 89);
type = Stem;
}
);
layerId = m01;
shapes = (
{
closed = 1;
nodes = (
(278,785,o),
(305,813,o),
(305,848,cs),
(305,882,o),
(278,909,o),
(244,909,cs),
(209,909,o),
(182,882,o),
(182,848,cs),
(182,813,o),
(210,785,o),
(244,785,cs)
);
},
{
closed = 1;
nodes = (
(460,785,o),
(486,813,o),
(486,848,cs),
(486,882,o),
(460,909,o),
(425,909,cs),
(390,909,o),
(364,882,o),
(364,848,cs),
(364,813,o),
(391,785,o),
(425,785,cs)
);
},
{
closed = 1;
nodes = (
(105,0,l),
(565,0,l),
(565,82,l),
(194,82,l),
(194,315,l),
(531,315,l),
(531,397,l),
(194,397,l),
(194,615,l),
(565,615,l),
(565,697,l),
(105,697,l)
);
}
);
width = 625;
}
);
note = Edieresis.ss03;
},
{
glyphname = Edotaccent.ss03;
layers = (
{
hints = (
{
horizontal = 1;
place = (0, 82);
place = (0, 82);
type = Stem;
},
{
horizontal = 1;
place = (315, 82);
place = (315, 82);
type = Stem;
},
{
horizontal = 1;
place = (615, 82);
place = (615, 82);
type = Stem;
},
{
horizontal = 1;
place = (785, 124);
place = (785, 124);
type = Stem;
},
{
place = (105, 89);
place = (105, 89);
type = Stem;
},
{
place = (273, 123);
place = (273, 123);
type = Stem;
}
);
layerId = m01;
shapes = (
{
closed = 1;
nodes = (
(369,785,o),
(396,813,o),
(396,848,cs),
(396,882,o),
(369,909,o),
(335,909,cs),
(300,909,o),
(273,882,o),
(273,848,cs),
(273,813,o),
(301,785,o),
(335,785,cs)
);
},
{
closed = 1;
nodes = (
(105,0,l),
(565,0,l),
(565,82,l),
(194,82,l),
(194,315,l),
(531,315,l),
(531,397,l),
(194,397,l),
(194,615,l),
(565,615,l),
(565,697,l),
(105,697,l)
);
}
);
width = 625;
}
);
note = Edotaccent.ss03;
},
{
glyphname = uni1EB8.ss03;
layers = (
{
hints = (
{
horizontal = 1;
place = (-178, 124);
place = (-178, 124);
type = Stem;
},
{
horizontal = 1;
place = (0, 82);
place = (0, 82);
type = Stem;
},
{
horizontal = 1;
place = (315, 82);
place = (315, 82);
type = Stem;
},
{
horizontal = 1;
place = (615, 82);
place = (615, 82);
type = Stem;
},
{
place = (105, 89);
place = (105, 89);
type = Stem;
},
{
place = (273, 123);
place = (273, 123);
type = Stem;
}
);
layerId = m01;
shapes = (
{
closed = 1;
nodes = (
(105,0,l),
(565,0,l),
(565,82,l),
(194,82,l),
(194,315,l),
(531,315,l),
(531,397,l),
(194,397,l),
(194,615,l),
(565,615,l),
(565,697,l),
(105,697,l)
);
},
{
closed = 1;
nodes = (
(369,-178,o),
(396,-150,o),
(396,-116,cs),
(396,-81,o),
(369,-54,o),
(335,-54,cs),
(300,-54,o),
(273,-81,o),
(273,-116,cs),
(273,-150,o),
(301,-178,o),
(335,-178,cs)
);
}
);
width = 625;
}
);
note = uni1EB8.ss03;
},
{
glyphname = Gdotaccent.ss03;
kernRight = G;
layers = (
{
hints = (
{
horizontal = 1;
place = (-12, 85);
place = (-12, 85);
type = Stem;
},
{
horizontal = 1;
place = (289, 77);
place = (289, 77);
type = Stem;
},
{
horizontal = 1;
place = (624, 85);
place = (624, 85);
type = Stem;
},
{
horizontal = 1;
place = (785, 124);
place = (785, 124);
type = Stem;
},
{
place = (58, 89);
place = (58, 89);
type = Stem;
},
{
place = (320, 123);
place = (320, 123);
type = Stem;
},
{
place = (596, 86);
place = (596, 86);
type = Stem;
},
{
horizontal = 1;
place = (0, 21);
target = up;
type = BottomGhost;
}
);
layerId = m01;
shapes = (
{
closed = 1;
nodes = (
(416,785,o),
(443,813,o),
(443,848,cs),
(443,882,o),
(416,909,o),
(382,909,cs),
(347,909,o),
(320,882,o),
(320,848,cs),
(320,813,o),
(348,785,o),
(382,785,cs)
);
},
{
closed = 1;
nodes = (
(432,366,l),
(432,289,l),
(596,289,l),
(596,271,ls),
(596,134,o),
(504,73,o),
(387,73,cs),
(224,73,o),
(147,189,o),
(147,352,cs),
(147,518,o),
(229,624,o),
(385,624,cs),
(494,624,o),
(564,574,o),
(597,482,c),
(680,514,l),
(632,638,o),
(531,709,o),
(386,709,cs),
(174,709,o),
(58,557,o),
(58,350,cs),
(58,138,o),
(180,-12,o),
(381,-12,cs),
(481,-12,o),
(562,26,o),
(602,95,c),
(614,0,l),
(682,0,l),
(682,366,l)
);
}
);
width = 762;
}
);
note = Gdotaccent.ss03;
},
{
glyphname = Idieresis.ss03;
layers = (
{
hints = (
{
horizontal = 1;
place = (0, 21);
target = up;
type = BottomGhost;
},
{
horizontal = 1;
place = (697, -20);
target = down;
type = TopGhost;
},
{
horizontal = 1;
place = (785, 124);
place = (785, 124);
type = Stem;
},
{
place = (-2, 123);
place = (-2, 123);
type = Stem;
},
{
place = (180, 122);
place = (180, 122);
type = Stem;
},
{
place = (105, 89);
place = (105, 89);
type = Stem;
}
);
layerId = m01;
shapes = (
{
closed = 1;
nodes = (
(94,785,o),
(121,813,o),
(121,848,cs),
(121,882,o),
(94,909,o),
(60,909,cs),
(25,909,o),
(-2,882,o),
(-2,848,cs),
(-2,813,o),
(26,785,o),
(60,785,cs)
);
},
{
closed = 1;
nodes = (
(276,785,o),
(302,813,o),
(302,848,cs),
(302,882,o),
(276,909,o),
(241,909,cs),
(206,909,o),
(180,882,o),
(180,848,cs),
(180,813,o),
(207,785,o),
(241,785,cs)
);
},
{
closed = 1;
nodes = (
(105,0,l),
(194,0,l),
(194,697,l),
(105,697,l)
);
}
);
width = 300;
}
);
note = Idieresis.ss03;
},
{
glyphname = uni1ECA.ss03;
layers = (
{
hints = (
{
horizontal = 1;
place = (-178, 124);
place = (-178, 124);
type = Stem;
},
{
horizontal = 1;
place = (0, 21);
target = up;
type = BottomGhost;
},
{
horizontal = 1;
place = (697, -20);
target = down;
type = TopGhost;
},
{
place = (105, 89);
place = (105, 89);
type = Stem;
}
);
layerId = m01;
shapes = (
{
closed = 1;
nodes = (
(105,0,l),
(194,0,l),
(194,697,l),
(105,697,l)
);
},
{
closed = 1;
nodes = (
(185,-178,o),
(212,-150,o),
(212,-116,cs),
(212,-81,o),
(185,-54,o),
(151,-54,cs),
(116,-54,o),
(89,-81,o),
(89,-116,cs),
(89,-150,o),
(117,-178,o),
(151,-178,cs)
);
}
);
width = 300;
}
);
note = uni1ECA.ss03;
},
{
glyphname = uni1ED8.ss03;
layers = (
{
hints = (
{
horizontal = 1;
place = (-178, 124);
place = (-178, 124);
type = Stem;
},
{
horizontal = 1;
place = (-12, 85);
place = (-12, 85);
type = Stem;
},
{
horizontal = 1;
place = (624, 85);
place = (624, 85);
type = Stem;
},
{
place = (58, 89);
place = (58, 89);
type = Stem;
},
{
place = (320, 123);
place = (320, 123);
type = Stem;
},
{
place = (616, 89);
place = (616, 89);
type = Stem;
}
);
layerId = m01;
shapes = (
{
closed = 1;
nodes = (
(230,750,l),
(299,750,l),
(381,839,l),
(463,750,l),
(532,750,l),
(381,914,l)
);
},
{
closed = 1;
nodes = (
(575,-12,o),
(705,132,o),
(705,348,cs),
(705,565,o),
(575,709,o),
(381,709,cs),
(188,709,o),
(58,565,o),
(58,348,cs),
(58,132,o),
(188,-12,o),
(381,-12,cs)
);
},
{
closed = 1;
nodes = (
(238,73,o),
(147,180,o),
(147,348,cs),
(147,517,o),
(238,624,o),
(381,624,cs),
(524,624,o),
(616,517,o),
(616,348,cs),
(616,180,o),
(524,73,o),
(381,73,cs)
);
},
{
closed = 1;
nodes = (
(416,-178,o),
(443,-150,o),
(443,-116,cs),
(443,-81,o),
(416,-54,o),
(382,-54,cs),
(347,-54,o),
(320,-81,o),
(320,-116,cs),
(320,-150,o),
(348,-178,o),
(382,-178,cs)
);
}
);
width = 763;
}
);
note = uni1ED8.ss03;
},
{
glyphname = Odieresis.ss03;
layers = (
{
hints = (
{
horizontal = 1;
place = (-12, 85);
place = (-12, 85);
type = Stem;
},
{
horizontal = 1;
place = (624, 85);
place = (624, 85);
type = Stem;
},
{
horizontal = 1;
place = (785, 124);
place = (785, 124);
type = Stem;
},
{
place = (58, 89);
place = (58, 89);
type = Stem;
},
{
place = (229, 123);
place = (229, 123);
type = Stem;
},
{
place = (411, 122);
place = (411, 122);
type = Stem;
},
{
place = (616, 89);
place = (616, 89);
type = Stem;
}
);
layerId = m01;
shapes = (
{
closed = 1;
nodes = (
(325,785,o),
(352,813,o),
(352,848,cs),
(352,882,o),
(325,909,o),
(291,909,cs),
(256,909,o),
(229,882,o),
(229,848,cs),
(229,813,o),
(257,785,o),
(291,785,cs)
);
},
{
closed = 1;
nodes = (
(507,785,o),
(533,813,o),
(533,848,cs),
(533,882,o),
(507,909,o),
(472,909,cs),
(437,909,o),
(411,882,o),
(411,848,cs),
(411,813,o),
(438,785,o),
(472,785,cs)
);
},
{
closed = 1;
nodes = (
(575,-12,o),
(705,132,o),
(705,348,cs),
(705,565,o),
(575,709,o),
(381,709,cs),
(188,709,o),
(58,565,o),
(58,348,cs),
(58,132,o),
(188,-12,o),
(381,-12,cs)
);
},
{
closed = 1;
nodes = (
(238,73,o),
(147,180,o),
(147,348,cs),
(147,517,o),
(238,624,o),
(381,624,cs),
(524,624,o),
(616,517,o),
(616,348,cs),
(616,180,o),
(524,73,o),
(381,73,cs)
);
}
);
width = 763;
}
);
note = Odieresis.ss03;
},
{
glyphname = uni1ECC.ss03;
layers = (
{
hints = (
{
horizontal = 1;
place = (-178, 124);
place = (-178, 124);
type = Stem;
},
{
horizontal = 1;
place = (-12, 85);
place = (-12, 85);
type = Stem;
},
{
horizontal = 1;
place = (624, 85);
place = (624, 85);
type = Stem;
},
{
place = (58, 89);
place = (58, 89);
type = Stem;
},
{
place = (320, 123);
place = (320, 123);
type = Stem;
},
{
place = (616, 89);
place = (616, 89);
type = Stem;
}
);
layerId = m01;
shapes = (
{
closed = 1;
nodes = (
(575,-12,o),
(705,132,o),
(705,348,cs),
(705,565,o),
(575,709,o),
(381,709,cs),
(188,709,o),
(58,565,o),
(58,348,cs),
(58,132,o),
(188,-12,o),
(381,-12,cs)
);
},
{
closed = 1;
nodes = (
(238,73,o),
(147,180,o),
(147,348,cs),
(147,517,o),
(238,624,o),
(381,624,cs),
(524,624,o),
(616,517,o),
(616,348,cs),
(616,180,o),
(524,73,o),
(381,73,cs)
);
},
{
closed = 1;
nodes = (
(416,-178,o),
(443,-150,o),
(443,-116,cs),
(443,-81,o),
(416,-54,o),
(382,-54,cs),
(347,-54,o),
(320,-81,o),
(320,-116,cs),
(320,-150,o),
(348,-178,o),
(382,-178,cs)
);
}
);
width = 763;
}
);
note = uni1ECC.ss03;
},
{
glyphname = uni1EE2.ss03;
layers = (
{
hints = (
{
horizontal = 1;
place = (-178, 124);
place = (-178, 124);
type = Stem;
},
{
horizontal = 1;
place = (-12, 85);
place = (-12, 85);
type = Stem;
},
{
horizontal = 1;
place = (502, -20);
target = down;
type = TopGhost;
},
{
horizontal = 1;
place = (697, -20);
target = down;
type = TopGhost;
},
{
place = (58, 89);
place = (58, 89);
type = Stem;
},
{
place = (708, 65);
place = (708, 65);
type = Stem;
},
{
horizontal = 1;
place = (624, 85);
place = (624, 85);
type = Stem;
},
{
place = (616, 89);
place = (616, 89);
type = Stem;
},
{
place = (320, 123);
place = (320, 123);
type = Stem;
}
);
layerId = m01;
shapes = (
{
closed = 1;
nodes = (
(708,697,l),
(708,645,ls),
(708,605,o),
(695,567,o),
(654,556,c),
(599,652,o),
(503,709,o),
(381,709,cs),
(188,709,o),
(58,565,o),
(58,348,cs),
(58,132,o),
(188,-12,o),
(381,-12,cs),
(575,-12,o),
(705,132,o),
(705,348,cs),
(705,405,o),
(696,457,o),
(679,502,c),
(745,521,o),
(773,578,o),
(773,652,cs),
(773,697,l)
);
},
{
closed = 1;
nodes = (
(238,73,o),
(147,180,o),
(147,348,cs),
(147,517,o),
(238,624,o),
(381,624,cs),
(524,624,o),
(616,517,o),
(616,348,cs),
(616,180,o),
(524,73,o),
(381,73,cs)
);
},
{
closed = 1;
nodes = (
(347,-54,o),
(320,-81,o),
(320,-116,cs),
(320,-150,o),
(348,-178,o),
(382,-178,cs),
(416,-178,o),
(443,-150,o),
(443,-116,cs),
(443,-81,o),
(416,-54,o),
(382,-54,cs)
);
}
);
width = 763;
}
);
note = uni1EE2.ss03;
},
{
glyphname = Udieresis.ss03;
kernLeft = U;
layers = (
{
hints = (
{
horizontal = 1;
place = (-12, 87);
place = (-12, 87);
type = Stem;
},
{
horizontal = 1;
place = (697, -20);
target = down;
type = TopGhost;
},
{
horizontal = 1;
place = (785, 124);
place = (785, 124);
type = Stem;
},
{
place = (91, 89);
place = (91, 89);
type = Stem;
},
{
place = (195, 123);
place = (195, 123);
type = Stem;
},
{
place = (377, 122);
place = (377, 122);
type = Stem;
},
{
place = (513, 89);
place = (513, 89);
type = Stem;
}
);
layerId = m01;
shapes = (
{
closed = 1;
nodes = (
(291,785,o),
(318,813,o),
(318,848,cs),
(318,882,o),
(291,909,o),
(257,909,cs),
(222,909,o),
(195,882,o),
(195,848,cs),
(195,813,o),
(223,785,o),
(257,785,cs)
);
},
{
closed = 1;
nodes = (
(473,785,o),
(499,813,o),
(499,848,cs),
(499,882,o),
(473,909,o),
(438,909,cs),
(403,909,o),
(377,882,o),
(377,848,cs),
(377,813,o),
(404,785,o),
(438,785,cs)
);
},
{
closed = 1;
nodes = (
(513,-12,o),
(602,80,o),
(602,257,cs),
(602,697,l),
(513,697,l),
(513,263,ls),
(513,133,o),
(462,75,o),
(346,75,cs),
(231,75,o),
(180,132,o),
(180,261,cs),
(180,697,l),
(91,697,l),
(91,252,ls),
(91,79,o),
(180,-12,o),
(346,-12,cs)
);
}
);
width = 693;
}
);
note = Udieresis.ss03;
},
{
glyphname = uni01D7.ss03;
kernLeft = U;
layers = (
{
hints = (
{
horizontal = 1;
place = (-12, 87);
place = (-12, 87);
type = Stem;
},
{
horizontal = 1;
place = (697, -20);
target = down;
type = TopGhost;
},
{
horizontal = 1;
place = (785, 124);
place = (785, 124);
type = Stem;
},
{
horizontal = 1;
place = (972, 141);
place = (972, 141);
type = Stem;
},
{
place = (91, 89);
place = (91, 89);
type = Stem;
},
{
place = (513, 89);
place = (513, 89);
type = Stem;
},
{
place = (195, 123);
place = (195, 123);
type = Stem;
},
{
place = (377, 122);
place = (377, 122);
type = Stem;
}
);
layerId = m01;
shapes = (
{
closed = 1;
nodes = (
(315,972,l),
(379,972,l),
(516,1113,l),
(424,1113,l)
);
},
{
closed = 1;
nodes = (
(291,785,o),
(318,813,o),
(318,848,cs),
(318,882,o),
(291,909,o),
(257,909,cs),
(222,909,o),
(195,882,o),
(195,848,cs),
(195,813,o),
(223,785,o),
(257,785,cs)
);
},
{
closed = 1;
nodes = (
(473,785,o),
(499,813,o),
(499,848,cs),
(499,882,o),
(473,909,o),
(438,909,cs),
(403,909,o),
(377,882,o),
(377,848,cs),
(377,813,o),
(404,785,o),
(438,785,cs)
);
},
{
closed = 1;
nodes = (
(513,-12,o),
(602,80,o),
(602,257,cs),
(602,697,l),
(513,697,l),
(513,263,ls),
(513,133,o),
(462,75,o),
(346,75,cs),
(231,75,o),
(180,132,o),
(180,261,cs),
(180,697,l),
(91,697,l),
(91,252,ls),
(91,79,o),
(180,-12,o),
(346,-12,cs)
);
}
);
width = 693;
}
);
note = uni01D7.ss03;
},
{
glyphname = uni01D9.ss03;
kernLeft = U;
layers = (
{
hints = (
{
horizontal = 1;
place = (-12, 87);
place = (-12, 87);
type = Stem;
},
{
horizontal = 1;
place = (697, -20);
target = down;
type = TopGhost;
},
{
horizontal = 1;
place = (785, 124);
place = (785, 124);
type = Stem;
},
{
place = (91, 89);
place = (91, 89);
type = Stem;
},
{
place = (513, 89);
place = (513, 89);
type = Stem;
},
{
place = (195, 123);
place = (195, 123);
type = Stem;
},
{
place = (377, 122);
place = (377, 122);
type = Stem;
}
);
layerId = m01;
shapes = (
{
closed = 1;
nodes = (
(347,956,l),
(498,1113,l),
(429,1113,l),
(347,1027,l),
(265,1113,l),
(196,1113,l)
);
},
{
closed = 1;
nodes = (
(291,785,o),
(318,813,o),
(318,848,cs),
(318,882,o),
(291,909,o),
(257,909,cs),
(222,909,o),
(195,882,o),
(195,848,cs),
(195,813,o),
(223,785,o),
(257,785,cs)
);
},
{
closed = 1;
nodes = (
(473,785,o),
(499,813,o),
(499,848,cs),
(499,882,o),
(473,909,o),
(438,909,cs),
(403,909,o),
(377,882,o),
(377,848,cs),
(377,813,o),
(404,785,o),
(438,785,cs)
);
},
{
closed = 1;
nodes = (
(513,-12,o),
(602,80,o),
(602,257,cs),
(602,697,l),
(513,697,l),
(513,263,ls),
(513,133,o),
(462,75,o),
(346,75,cs),
(231,75,o),
(180,132,o),
(180,261,cs),
(180,697,l),
(91,697,l),
(91,252,ls),
(91,79,o),
(180,-12,o),
(346,-12,cs)
);
}
);
width = 693;
}
);
note = uni01D9.ss03;
},
{
glyphname = uni01DB.ss03;
kernLeft = U;
layers = (
{
hints = (
{
horizontal = 1;
place = (-12, 87);
place = (-12, 87);
type = Stem;
},
{
horizontal = 1;
place = (697, -20);
target = down;
type = TopGhost;
},
{
horizontal = 1;
place = (785, 124);
place = (785, 124);
type = Stem;
},
{
horizontal = 1;
place = (972, 141);
place = (972, 141);
type = Stem;
},
{
place = (91, 89);
place = (91, 89);
type = Stem;
},
{
place = (513, 89);
place = (513, 89);
type = Stem;
},
{
place = (195, 123);
place = (195, 123);
type = Stem;
},
{
place = (377, 122);
place = (377, 122);
type = Stem;
}
);
layerId = m01;
shapes = (
{
closed = 1;
nodes = (
(314,972,l),
(380,972,l),
(276,1113,l),
(184,1113,l)
);
},
{
closed = 1;
nodes = (
(291,785,o),
(318,813,o),
(318,848,cs),
(318,882,o),
(291,909,o),
(257,909,cs),
(222,909,o),
(195,882,o),
(195,848,cs),
(195,813,o),
(223,785,o),
(257,785,cs)
);
},
{
closed = 1;
nodes = (
(473,785,o),
(499,813,o),
(499,848,cs),
(499,882,o),
(473,909,o),
(438,909,cs),
(403,909,o),
(377,882,o),
(377,848,cs),
(377,813,o),
(404,785,o),
(438,785,cs)
);
},
{
closed = 1;
nodes = (
(513,-12,o),
(602,80,o),
(602,257,cs),
(602,697,l),
(513,697,l),
(513,263,ls),
(513,133,o),
(462,75,o),
(346,75,cs),
(231,75,o),
(180,132,o),
(180,261,cs),
(180,697,l),
(91,697,l),
(91,252,ls),
(91,79,o),
(180,-12,o),
(346,-12,cs)
);
}
);
width = 693;
}
);
note = uni01DB.ss03;
},
{
glyphname = uni01D5.ss03;
kernLeft = U;
layers = (
{
hints = (
{
horizontal = 1;
place = (-12, 87);
place = (-12, 87);
type = Stem;
},
{
horizontal = 1;
place = (697, -20);
target = down;
type = TopGhost;
},
{
horizontal = 1;
place = (785, 124);
place = (785, 124);
type = Stem;
},
{
horizontal = 1;
place = (1004, 51);
place = (1004, 51);
type = Stem;
},
{
place = (91, 89);
place = (91, 89);
type = Stem;
},
{
place = (513, 89);
place = (513, 89);
type = Stem;
},
{
place = (195, 123);
place = (195, 123);
type = Stem;
},
{
place = (377, 122);
place = (377, 122);
type = Stem;
}
);
layerId = m01;
shapes = (
{
closed = 1;
nodes = (
(210,1004,l),
(482,1004,l),
(482,1055,l),
(210,1055,l)
);
},
{
closed = 1;
nodes = (
(291,785,o),
(318,813,o),
(318,848,cs),
(318,882,o),
(291,909,o),
(257,909,cs),
(222,909,o),
(195,882,o),
(195,848,cs),
(195,813,o),
(223,785,o),
(257,785,cs)
);
},
{
closed = 1;
nodes = (
(473,785,o),
(499,813,o),
(499,848,cs),
(499,882,o),
(473,909,o),
(438,909,cs),
(403,909,o),
(377,882,o),
(377,848,cs),
(377,813,o),
(404,785,o),
(438,785,cs)
);
},
{
closed = 1;
nodes = (
(513,-12,o),
(602,80,o),
(602,257,cs),
(602,697,l),
(513,697,l),
(513,263,ls),
(513,133,o),
(462,75,o),
(346,75,cs),
(231,75,o),
(180,132,o),
(180,261,cs),
(180,697,l),
(91,697,l),
(91,252,ls),
(91,79,o),
(180,-12,o),
(346,-12,cs)
);
}
);
width = 693;
}
);
note = uni01D5.ss03;
},
{
glyphname = uni1EE4.ss03;
kernLeft = U;
layers = (
{
hints = (
{
horizontal = 1;
place = (-178, 124);
place = (-178, 124);
type = Stem;
},
{
horizontal = 1;
place = (-12, 87);
place = (-12, 87);
type = Stem;
},
{
horizontal = 1;
place = (697, -20);
target = down;
type = TopGhost;
},
{
place = (91, 89);
place = (91, 89);
type = Stem;
},
{
place = (285, 123);
place = (285, 123);
type = Stem;
},
{
place = (513, 89);
place = (513, 89);
type = Stem;
}
);
layerId = m01;
shapes = (
{
closed = 1;
nodes = (
(513,-12,o),
(602,80,o),
(602,257,cs),
(602,697,l),
(513,697,l),
(513,263,ls),
(513,133,o),
(462,75,o),
(346,75,cs),
(231,75,o),
(180,132,o),
(180,261,cs),
(180,697,l),
(91,697,l),
(91,252,ls),
(91,79,o),
(180,-12,o),
(346,-12,cs)
);
},
{
closed = 1;
nodes = (
(381,-178,o),
(408,-150,o),
(408,-116,cs),
(408,-81,o),
(381,-54,o),
(347,-54,cs),
(312,-54,o),
(285,-81,o),
(285,-116,cs),
(285,-150,o),
(313,-178,o),
(347,-178,cs)
);
}
);
width = 693;
}
);
note = uni1EE4.ss03;
},
{
glyphname = uni1EF0.ss03;
kernLeft = U;
layers = (
{
hints = (
{
horizontal = 1;
place = (-178, 124);
place = (-178, 124);
type = Stem;
},
{
horizontal = 1;
place = (-12, 87);
place = (-12, 87);
type = Stem;
},
{
horizontal = 1;
place = (697, -20);
target = down;
type = TopGhost;
},
{
place = (91, 89);
place = (91, 89);
type = Stem;
},
{
place = (285, 123);
place = (285, 123);
type = Stem;
},
{
place = (513, 89);
place = (513, 89);
type = Stem;
},
{
place = (674, 65);
place = (674, 65);
type = Stem;
}
);
layerId = m01;
shapes = (
{
closed = 1;
nodes = (
(674,697,l),
(674,645,ls),
(674,599,o),
(656,557,o),
(602,553,c),
(602,697,l),
(513,697,l),
(513,263,ls),
(513,133,o),
(462,75,o),
(346,75,cs),
(231,75,o),
(180,132,o),
(180,261,cs),
(180,697,l),
(91,697,l),
(91,252,ls),
(91,79,o),
(180,-12,o),
(346,-12,cs),
(513,-12,o),
(602,80,o),
(602,257,cs),
(602,496,l),
(699,499,o),
(739,563,o),
(739,652,cs),
(739,697,l)
);
},
{
closed = 1;
nodes = (
(312,-54,o),
(285,-81,o),
(285,-116,cs),
(285,-150,o),
(313,-178,o),
(347,-178,cs),
(381,-178,o),
(408,-150,o),
(408,-116,cs),
(408,-81,o),
(381,-54,o),
(347,-54,cs)
);
}
);
width = 693;
}
);
note = uni1EF0.ss03;
},
{
glyphname = Wdieresis.ss03;
kernLeft = W;
kernRight = W;
layers = (
{
hints = (
{
horizontal = 1;
place = (0, 21);
target = up;
type = BottomGhost;
},
{
horizontal = 1;
place = (697, -20);
target = down;
type = TopGhost;
},
{
horizontal = 1;
place = (785, 124);
place = (785, 124);
type = Stem;
},
{
place = (341, 123);
place = (341, 123);
type = Stem;
},
{
place = (523, 122);
place = (523, 122);
type = Stem;
},
{
horizontal = 1;
place = (0, 134);
place = (0, 134);
type = Stem;
}
);
layerId = m01;
shapes = (
{
closed = 1;
nodes = (
(437,785,o),
(464,813,o),
(464,848,cs),
(464,882,o),
(437,909,o),
(403,909,cs),
(368,909,o),
(341,882,o),
(341,848,cs),
(341,813,o),
(369,785,o),
(403,785,cs)
);
},
{
closed = 1;
nodes = (
(619,785,o),
(645,813,o),
(645,848,cs),
(645,882,o),
(619,909,o),
(584,909,cs),
(549,909,o),
(523,882,o),
(523,848,cs),
(523,813,o),
(550,785,o),
(584,785,cs)
);
},
{
closed = 1;
nodes = (
(236,0,l),
(324,0,l),
(494,518,l),
(662,0,l),
(751,0,l),
(955,697,l),
(861,697,l),
(701,134,l),
(532,659,l),
(454,659,l),
(285,134,l),
(124,697,l),
(32,697,l)
);
}
);
width = 987;
}
);
note = Wdieresis.ss03;
},
{
glyphname = Ydieresis.ss03;
kernLeft = Y;
kernRight = Y;
layers = (
{
hints = (
{
horizontal = 1;
place = (0, 21);
target = up;
type = BottomGhost;
},
{
horizontal = 1;
place = (697, -20);
target = down;
type = TopGhost;
},
{
horizontal = 1;
place = (785, 124);
place = (785, 124);
type = Stem;
},
{
place = (177, 123);
place = (177, 123);
type = Stem;
},
{
place = (359, 122);
place = (359, 122);
type = Stem;
},
{
place = (285, 89);
place = (285, 89);
type = Stem;
}
);
layerId = m01;
shapes = (
{
closed = 1;
nodes = (
(273,785,o),
(300,813,o),
(300,848,cs),
(300,882,o),
(273,909,o),
(239,909,cs),
(204,909,o),
(177,882,o),
(177,848,cs),
(177,813,o),
(205,785,o),
(239,785,cs)
);
},
{
closed = 1;
nodes = (
(455,785,o),
(481,813,o),
(481,848,cs),
(481,882,o),
(455,909,o),
(420,909,cs),
(385,909,o),
(359,882,o),
(359,848,cs),
(359,813,o),
(386,785,o),
(420,785,cs)
);
},
{
closed = 1;
nodes = (
(285,0,l),
(374,0,l),
(374,269,l),
(639,697,l),
(533,697,l),
(328,355,l),
(124,697,l),
(19,697,l),
(285,269,l)
);
}
);
width = 658;
}
);
note = Ydieresis.ss03;
},
{
glyphname = uni1EF4.ss03;
kernLeft = Y;
kernRight = Y;
layers = (
{
hints = (
{
horizontal = 1;
place = (-178, 124);
place = (-178, 124);
type = Stem;
},
{
horizontal = 1;
place = (0, 21);
target = up;
type = BottomGhost;
},
{
horizontal = 1;
place = (697, -20);
target = down;
type = TopGhost;
},
{
place = (285, 89);
place = (285, 89);
type = Stem;
},
{
place = (268, 123);
place = (268, 123);
type = Stem;
}
);
layerId = m01;
shapes = (
{
closed = 1;
nodes = (
(285,0,l),
(374,0,l),
(374,269,l),
(639,697,l),
(533,697,l),
(328,355,l),
(124,697,l),
(19,697,l),
(285,269,l)
);
},
{
closed = 1;
nodes = (
(364,-178,o),
(391,-150,o),
(391,-116,cs),
(391,-81,o),
(364,-54,o),
(330,-54,cs),
(295,-54,o),
(268,-81,o),
(268,-116,cs),
(268,-150,o),
(296,-178,o),
(330,-178,cs)
);
}
);
width = 658;
}
);
note = uni1EF4.ss03;
},
{
glyphname = Zdotaccent.ss03;
kernLeft = Z;
kernRight = Z;
layers = (
{
hints = (
{
horizontal = 1;
place = (0, 82);
place = (0, 82);
type = Stem;
},
{
horizontal = 1;
place = (615, 82);
place = (615, 82);
type = Stem;
},
{
horizontal = 1;
place = (785, 124);
place = (785, 124);
type = Stem;
},
{
place = (258, 123);
place = (258, 123);
type = Stem;
}
);
layerId = m01;
shapes = (
{
closed = 1;
nodes = (
(354,785,o),
(381,813,o),
(381,848,cs),
(381,882,o),
(354,909,o),
(320,909,cs),
(285,909,o),
(258,882,o),
(258,848,cs),
(258,813,o),
(286,785,o),
(320,785,cs)
);
},
{
closed = 1;
nodes = (
(594,697,l),
(63,697,l),
(63,615,l),
(477,615,l),
(40,65,l),
(40,0,l),
(592,0,l),
(592,82,l),
(160,82,l),
(594,629,l)
);
}
);
width = 640;
}
);
note = Zdotaccent.ss03;
},
{
glyphname = a;
kernLeft = a;
kernRight = a;
lastChange = "2022-12-26 04:01:54 +0000";
layers = (
{
hints = (
{
horizontal = 1;
place = (-9, 72);
place = (-9, 72);
type = Stem;
},
{
horizontal = 1;
place = (221, 67);
place = (221, 67);
type = Stem;
},
{
horizontal = 1;
place = (426, 76);
place = (426, 76);
type = Stem;
},
{
place = (37, 86);
place = (37, 86);
type = Stem;
},
{
place = (377, 86);
place = (377, 86);
type = Stem;
},
{
place = (381, 82);
place = (381, 82);
type = Stem;
},
{
horizontal = 1;
place = (0, 21);
target = up;
type = BottomGhost;
}
);
layerId = m01;
shapes = (
{
closed = 1;
nodes = (
(181,502,o),
(117,473,o),
(64,411,cs),
(58,404,o),
(60,394,o),
(66,389,cs),
(116,347,l),
(155,399,o),
(202,426,o),
(260,426,cs),
(335,426,o),
(377,384,o),
(377,308,cs),
(377,288,l),
(268,288,ls),
(185,288,o),
(136,280,o),
(99,260,cs),
(59,238,o),
(37,198,o),
(37,146,cs),
(37,51,o),
(104,-9,o),
(210,-9,cs),
(284,-9,o),
(343,21,o),
(378,74,c),
(392,0,l),
(431,0,l),
(463,63,l),
(463,308,ls),
(463,430,o),
(388,502,o),
(262,502,cs)
);
},
{
closed = 1;
nodes = (
(164,63,o),
(123,94,o),
(123,142,cs),
(123,167,o),
(132,186,o),
(148,199,cs),
(169,215,o),
(203,221,o),
(278,221,cs),
(377,221,l),
(377,216,ls),
(377,125,o),
(317,63,o),
(230,63,cs)
);
}
);
width = 533;
}
);
note = a;
unicode = 97;
},
{
glyphname = aacute;
kernLeft = a;
kernRight = a;
layers = (
{
hints = (
{
horizontal = 1;
place = (-9, 72);
place = (-9, 72);
type = Stem;
},
{
horizontal = 1;
place = (221, 67);
place = (221, 67);
type = Stem;
},
{
horizontal = 1;
place = (426, 76);
place = (426, 76);
type = Stem;
},
{
horizontal = 1;
place = (556, 141);
place = (556, 141);
type = Stem;
},
{
place = (37, 86);
place = (37, 86);
type = Stem;
},
{
place = (377, 86);
place = (377, 86);
type = Stem;
},
{
place = (381, 82);
place = (381, 82);
type = Stem;
},
{
horizontal = 1;
place = (0, 21);
target = up;
type = BottomGhost;
}
);
layerId = m01;
shapes = (
{
closed = 1;
nodes = (
(431,697,l),
(339,697,l),
(230,556,l),
(294,556,l)
);
},
{
closed = 1;
nodes = (
(176,502,o),
(109,469,o),
(54,399,c),
(116,347,l),
(155,399,o),
(202,426,o),
(260,426,cs),
(335,426,o),
(377,384,o),
(377,308,cs),
(377,288,l),
(268,288,ls),
(185,288,o),
(136,280,o),
(99,260,cs),
(59,238,o),
(37,198,o),
(37,146,cs),
(37,51,o),
(104,-9,o),
(210,-9,cs),
(284,-9,o),
(343,21,o),
(378,74,c),
(384,0,l),
(463,0,l),
(463,308,ls),
(463,430,o),
(388,502,o),
(262,502,cs)
);
},
{
closed = 1;
nodes = (
(164,63,o),
(123,94,o),
(123,142,cs),
(123,167,o),
(132,186,o),
(148,199,cs),
(169,215,o),
(203,221,o),
(278,221,cs),
(377,221,l),
(377,216,ls),
(377,125,o),
(317,63,o),
(230,63,cs)
);
}
);
width = 533;
}
);
note = aacute;
unicode = 225;
},
{
glyphname = abreve;
kernLeft = a;
kernRight = a;
layers = (
{
hints = (
{
horizontal = 1;
place = (-9, 72);
place = (-9, 72);
type = Stem;
},
{
horizontal = 1;
place = (221, 67);
place = (221, 67);
type = Stem;
},
{
horizontal = 1;
place = (426, 76);
place = (426, 76);
type = Stem;
},
{
horizontal = 1;
place = (565, 132);
place = (565, 132);
type = Stem;
},
{
place = (109, 62);
place = (109, 62);
type = Stem;
},
{
place = (353, 62);
place = (353, 62);
type = Stem;
},
{
horizontal = 1;
place = (565, 52);
place = (565, 52);
type = Stem;
},
{
place = (37, 86);
place = (37, 86);
type = Stem;
},
{
place = (377, 86);
place = (377, 86);
type = Stem;
},
{
place = (381, 82);
place = (381, 82);
type = Stem;
},
{
horizontal = 1;
place = (0, 21);
target = up;
type = BottomGhost;
}
);
layerId = m01;
shapes = (
{
closed = 1;
nodes = (
(361,565,o),
(415,609,o),
(415,697,c),
(353,697,l),
(353,645,o),
(318,617,o),
(262,617,cs),
(208,617,o),
(171,643,o),
(171,697,c),
(109,697,l),
(109,612,o),
(159,565,o),
(262,565,cs)
);
},
{
closed = 1;
nodes = (
(176,502,o),
(109,469,o),
(54,399,c),
(116,347,l),
(155,399,o),
(202,426,o),
(260,426,cs),
(335,426,o),
(377,384,o),
(377,308,cs),
(377,288,l),
(268,288,ls),
(185,288,o),
(136,280,o),
(99,260,cs),
(59,238,o),
(37,198,o),
(37,146,cs),
(37,51,o),
(104,-9,o),
(210,-9,cs),
(284,-9,o),
(343,21,o),
(378,74,c),
(384,0,l),
(463,0,l),
(463,308,ls),
(463,430,o),
(388,502,o),
(262,502,cs)
);
},
{
closed = 1;
nodes = (
(164,63,o),
(123,94,o),
(123,142,cs),
(123,167,o),
(132,186,o),
(148,199,cs),
(169,215,o),
(203,221,o),
(278,221,cs),
(377,221,l),
(377,216,ls),
(377,125,o),
(317,63,o),
(230,63,cs)
);
}
);
width = 533;
}
);
note = abreve;
unicode = 259;
},
{
glyphname = uni1EAF;
kernLeft = a;
kernRight = a;
layers = (
{
hints = (
{
horizontal = 1;
place = (-9, 72);
place = (-9, 72);
type = Stem;
},
{
horizontal = 1;
place = (221, 67);
place = (221, 67);
type = Stem;
},
{
horizontal = 1;
place = (426, 76);
place = (426, 76);
type = Stem;
},
{
horizontal = 1;
place = (565, 132);
place = (565, 132);
type = Stem;
},
{
horizontal = 1;
place = (760, 141);
place = (760, 141);
type = Stem;
},
{
place = (37, 86);
place = (37, 86);
type = Stem;
},
{
place = (377, 86);
place = (377, 86);
type = Stem;
},
{
place = (109, 62);
place = (109, 62);
type = Stem;
},
{
place = (353, 62);
place = (353, 62);
type = Stem;
},
{
horizontal = 1;
place = (565, 52);
place = (565, 52);
type = Stem;
},
{
place = (381, 82);
place = (381, 82);
type = Stem;
},
{
horizontal = 1;
place = (0, 21);
target = up;
type = BottomGhost;
}
);
layerId = m01;
shapes = (
{
closed = 1;
nodes = (
(431,901,l),
(339,901,l),
(230,760,l),
(294,760,l)
);
},
{
closed = 1;
nodes = (
(361,565,o),
(415,609,o),
(415,697,c),
(353,697,l),
(353,645,o),
(318,617,o),
(262,617,cs),
(208,617,o),
(171,643,o),
(171,697,c),
(109,697,l),
(109,612,o),
(159,565,o),
(262,565,cs)
);
},
{
closed = 1;
nodes = (
(176,502,o),
(109,469,o),
(54,399,c),
(116,347,l),
(155,399,o),
(202,426,o),
(260,426,cs),
(335,426,o),
(377,384,o),
(377,308,cs),
(377,288,l),
(268,288,ls),
(185,288,o),
(136,280,o),
(99,260,cs),
(59,238,o),
(37,198,o),
(37,146,cs),
(37,51,o),
(104,-9,o),
(210,-9,cs),
(284,-9,o),
(343,21,o),
(378,74,c),
(384,0,l),
(463,0,l),
(463,308,ls),
(463,430,o),
(388,502,o),
(262,502,cs)
);
},
{
closed = 1;
nodes = (
(164,63,o),
(123,94,o),
(123,142,cs),
(123,167,o),
(132,186,o),
(148,199,cs),
(169,215,o),
(203,221,o),
(278,221,cs),
(377,221,l),
(377,216,ls),
(377,125,o),
(317,63,o),
(230,63,cs)
);
}
);
width = 533;
}
);
note = uni1EAF;
unicode = 7855;
},
{
glyphname = uni1EB7;
kernLeft = a;
kernRight = a;
layers = (
{
hints = (
{
horizontal = 1;
place = (-173, 104);
place = (-173, 104);
type = Stem;
},
{
horizontal = 1;
place = (-9, 72);
place = (-9, 72);
type = Stem;
},
{
horizontal = 1;
place = (221, 67);
place = (221, 67);
type = Stem;
},
{
horizontal = 1;
place = (426, 76);
place = (426, 76);
type = Stem;
},
{
horizontal = 1;
place = (565, 132);
place = (565, 132);
type = Stem;
},
{
place = (109, 62);
place = (109, 62);
type = Stem;
},
{
place = (214, 96);
place = (214, 96);
type = Stem;
},
{
place = (353, 62);
place = (353, 62);
type = Stem;
},
{
horizontal = 1;
place = (565, 52);
place = (565, 52);
type = Stem;
},
{
place = (37, 86);
place = (37, 86);
type = Stem;
},
{
place = (377, 86);
place = (377, 86);
type = Stem;
},
{
place = (381, 82);
place = (381, 82);
type = Stem;
},
{
horizontal = 1;
place = (0, 21);
target = up;
type = BottomGhost;
}
);
layerId = m01;
shapes = (
{
closed = 1;
nodes = (
(361,565,o),
(415,609,o),
(415,697,c),
(353,697,l),
(353,645,o),
(318,617,o),
(262,617,cs),
(208,617,o),
(171,643,o),
(171,697,c),
(109,697,l),
(109,612,o),
(159,565,o),
(262,565,cs)
);
},
{
closed = 1;
nodes = (
(176,502,o),
(109,469,o),
(54,399,c),
(116,347,l),
(155,399,o),
(202,426,o),
(260,426,cs),
(335,426,o),
(377,384,o),
(377,308,cs),
(377,288,l),
(268,288,ls),
(185,288,o),
(136,280,o),
(99,260,cs),
(59,238,o),
(37,198,o),
(37,146,cs),
(37,51,o),
(104,-9,o),
(210,-9,cs),
(284,-9,o),
(343,21,o),
(378,74,c),
(384,0,l),
(463,0,l),
(463,308,ls),
(463,430,o),
(388,502,o),
(262,502,cs)
);
},
{
closed = 1;
nodes = (
(164,63,o),
(123,94,o),
(123,142,cs),
(123,167,o),
(132,186,o),
(148,199,cs),
(169,215,o),
(203,221,o),
(278,221,cs),
(377,221,l),
(377,216,ls),
(377,125,o),
(317,63,o),
(230,63,cs)
);
},
{
closed = 1;
nodes = (
(214,-173,l),
(310,-173,l),
(310,-69,l),
(214,-69,l)
);
}
);
width = 533;
}
);
note = uni1EB7;
unicode = 7863;
},
{
glyphname = uni1EB1;
kernLeft = a;
kernRight = a;
layers = (
{
hints = (
{
horizontal = 1;
place = (-9, 72);
place = (-9, 72);
type = Stem;
},
{
horizontal = 1;
place = (221, 67);
place = (221, 67);
type = Stem;
},
{
horizontal = 1;
place = (426, 76);
place = (426, 76);
type = Stem;
},
{
horizontal = 1;
place = (565, 132);
place = (565, 132);
type = Stem;
},
{
horizontal = 1;
place = (760, 141);
place = (760, 141);
type = Stem;
},
{
place = (37, 86);
place = (37, 86);
type = Stem;
},
{
place = (377, 86);
place = (377, 86);
type = Stem;
},
{
place = (109, 62);
place = (109, 62);
type = Stem;
},
{
place = (353, 62);
place = (353, 62);
type = Stem;
},
{
horizontal = 1;
place = (565, 52);
place = (565, 52);
type = Stem;
},
{
place = (381, 82);
place = (381, 82);
type = Stem;
},
{
horizontal = 1;
place = (0, 21);
target = up;
type = BottomGhost;
}
);
layerId = m01;
shapes = (
{
closed = 1;
nodes = (
(295,760,l),
(191,901,l),
(99,901,l),
(229,760,l)
);
},
{
closed = 1;
nodes = (
(109,697,l),
(109,612,o),
(159,565,o),
(262,565,cs),
(361,565,o),
(415,609,o),
(415,697,c),
(353,697,l),
(353,645,o),
(318,617,o),
(262,617,cs),
(208,617,o),
(171,643,o),
(171,697,c)
);
},
{
closed = 1;
nodes = (
(176,502,o),
(109,469,o),
(54,399,c),
(116,347,l),
(155,399,o),
(202,426,o),
(260,426,cs),
(335,426,o),
(377,384,o),
(377,308,cs),
(377,288,l),
(268,288,ls),
(185,288,o),
(136,280,o),
(99,260,cs),
(59,238,o),
(37,198,o),
(37,146,cs),
(37,51,o),
(104,-9,o),
(210,-9,cs),
(284,-9,o),
(343,21,o),
(378,74,c),
(384,0,l),
(463,0,l),
(463,308,ls),
(463,430,o),
(388,502,o),
(262,502,cs)
);
},
{
closed = 1;
nodes = (
(164,63,o),
(123,94,o),
(123,142,cs),
(123,167,o),
(132,186,o),
(148,199,cs),
(169,215,o),
(203,221,o),
(278,221,cs),
(377,221,l),
(377,216,ls),
(377,125,o),
(317,63,o),
(230,63,cs)
);
}
);
width = 533;
}
);
note = uni1EB1;
unicode = 7857;
},
{
glyphname = uni1EB3;
kernLeft = a;
kernRight = a;
layers = (
{
hints = (
{
horizontal = 1;
place = (-9, 72);
place = (-9, 72);
type = Stem;
},
{
horizontal = 1;
place = (221, 67);
place = (221, 67);
type = Stem;
},
{
horizontal = 1;
place = (426, 76);
place = (426, 76);
type = Stem;
},
{
horizontal = 1;
place = (565, 132);
place = (565, 132);
type = Stem;
},
{
horizontal = 1;
place = (873, 49);
place = (873, 49);
type = Stem;
},
{
place = (109, 62);
place = (109, 62);
type = Stem;
},
{
place = (316, 57);
place = (316, 57);
type = Stem;
},
{
place = (37, 86);
place = (37, 86);
type = Stem;
},
{
place = (353, 62);
place = (353, 62);
type = Stem;
},
{
horizontal = 1;
place = (565, 52);
place = (565, 52);
type = Stem;
},
{
place = (377, 86);
place = (377, 86);
type = Stem;
},
{
place = (381, 82);
place = (381, 82);
type = Stem;
},
{
horizontal = 1;
place = (0, 21);
target = up;
type = BottomGhost;
}
);
layerId = m01;
shapes = (
{
closed = 1;
nodes = (
(316,790,o),
(278,784,o),
(242,778,c),
(255,736,l),
(305,745,o),
(373,757,o),
(373,824,cs),
(373,888,o),
(313,922,o),
(230,922,cs),
(215,922,l),
(215,873,l),
(230,873,ls),
(273,873,o),
(316,863,o),
(316,825,cs)
);
},
{
closed = 1;
nodes = (
(361,565,o),
(415,609,o),
(415,697,c),
(353,697,l),
(353,645,o),
(318,617,o),
(262,617,cs),
(208,617,o),
(171,643,o),
(171,697,c),
(109,697,l),
(109,612,o),
(159,565,o),
(262,565,cs)
);
},
{
closed = 1;
nodes = (
(176,502,o),
(109,469,o),
(54,399,c),
(116,347,l),
(155,399,o),
(202,426,o),
(260,426,cs),
(335,426,o),
(377,384,o),
(377,308,cs),
(377,288,l),
(268,288,ls),
(185,288,o),
(136,280,o),
(99,260,cs),
(59,238,o),
(37,198,o),
(37,146,cs),
(37,51,o),
(104,-9,o),
(210,-9,cs),
(284,-9,o),
(343,21,o),
(378,74,c),
(384,0,l),
(463,0,l),
(463,308,ls),
(463,430,o),
(388,502,o),
(262,502,cs)
);
},
{
closed = 1;
nodes = (
(164,63,o),
(123,94,o),
(123,142,cs),
(123,167,o),
(132,186,o),
(148,199,cs),
(169,215,o),
(203,221,o),
(278,221,cs),
(377,221,l),
(377,216,ls),
(377,125,o),
(317,63,o),
(230,63,cs)
);
}
);
width = 533;
}
);
note = uni1EB3;
unicode = 7859;
},
